solid support_camera
facet normal 5.929660438645675e-15 0.9822872507286908 -0.18738131458571325
  outer loop
    vertex -0.5958012386772903 -59.152297747495666 -5.407333009083942
    vertex -3.5642210890843495 -59.22877525309964 -5.8082421332857175
    vertex -3.5642210890844623 -59.152297747495645 -5.40733300908392
  endloop
endfacet
facet normal 5.929660438645675e-15 0.9822872507286908 -0.18738131458571325
  outer loop
    vertex -3.5642210890843495 -59.22877525309964 -5.8082421332857175
    vertex -0.5958012386772903 -59.152297747495666 -5.407333009083942
    vertex -0.5958012386771775 -59.22877525309966 -5.808242133285728
  endloop
endfacet
facet normal -4.382815382098982e-15 -0.9980267284282714 0.06279051952931734
  outer loop
    vertex -0.5958012386773355 -65.62667052676771 -4.999999999999941
    vertex -3.5642210890845076 -65.60104330603976 -4.592666990915935
    vertex -3.5642210890845076 -65.62667052676771 -4.99999999999993
  endloop
endfacet
facet normal -4.382815382098982e-15 -0.9980267284282714 0.06279051952931734
  outer loop
    vertex -3.5642210890845076 -65.60104330603976 -4.592666990915935
    vertex -0.5958012386773355 -65.62667052676771 -4.999999999999941
    vertex -0.5958012386773355 -65.60104330603977 -4.592666990915958
  endloop
endfacet
facet normal -4.7926360294995e-15 0.12533323356430828 -0.9921147013144773
  outer loop
    vertex -3.564221089084395 -62.172601338297426 -8.243586867391812
    vertex -0.5958012386772227 -61.76768125436412 -8.192433564868173
    vertex -0.5958012386772227 -62.17260133829745 -8.243586867391825
  endloop
endfacet
facet normal -4.7926360294995e-15 0.12533323356430828 -0.9921147013144773
  outer loop
    vertex -0.5958012386772227 -61.76768125436412 -8.192433564868173
    vertex -3.564221089084395 -62.172601338297426 -8.243586867391812
    vertex -3.564221089084395 -61.7676812543641 -8.192433564868171
  endloop
endfacet
facet normal 2.8516472921935084e-15 -0.3681245526846711 0.9297764858882541
  outer loop
    vertex -0.5958012386773128 -63.3809757584863 -1.9090663220406918
    vertex -3.564221089084485 -63.76045322435419 -2.0593120794853657
    vertex -0.5958012386773128 -63.76045322435421 -2.0593120794853794
  endloop
endfacet
facet normal 2.8516472921935084e-15 -0.3681245526846711 0.9297764858882541
  outer loop
    vertex -3.564221089084485 -63.76045322435419 -2.0593120794853657
    vertex -0.5958012386773128 -63.3809757584863 -1.9090663220406918
    vertex -3.564221089084485 -63.38097575848628 -1.909066322040689
  endloop
endfacet
facet normal -2.8842113235873025e-15 0.4817536741017147 -0.8763066800438639
  outer loop
    vertex -3.5642210890845076 -60.99288782918121 -7.940687920514488
    vertex -0.5958012386773128 -60.63523344308598 -7.744065757881494
    vertex -0.5958012386773355 -60.99288782918123 -7.9406879205145104
  endloop
endfacet
facet normal -2.8842113235873025e-15 0.4817536741017147 -0.8763066800438639
  outer loop
    vertex -0.5958012386773128 -60.63523344308598 -7.744065757881494
    vertex -3.5642210890845076 -60.99288782918121 -7.940687920514488
    vertex -3.564221089084485 -60.63523344308595 -7.744065757881472
  endloop
endfacet
facet normal 4.168826384080869e-15 0.7705132427757926 -0.6374239897486856
  outer loop
    vertex -0.5958012386773128 -59.747365295049136 -6.910302069950482
    vertex -3.564221089084485 -60.0075224876481 -7.224778094268171
    vertex -3.564221089084485 -59.747365295049114 -6.910302069950469
  endloop
endfacet
facet normal 4.168826384080869e-15 0.7705132427757926 -0.6374239897486856
  outer loop
    vertex -3.564221089084485 -60.0075224876481 -7.224778094268171
    vertex -0.5958012386773128 -59.747365295049136 -6.910302069950482
    vertex -0.5958012386773128 -60.00752248764813 -7.224778094268184
  endloop
endfacet
facet normal -9.913191988048084e-15 -0.5877852522924696 -0.80901699437495
  outer loop
    vertex -3.5642210890845076 -64.44829849345093 -7.504168039021253
    vertex -0.5958012386773355 -64.11810761044946 -7.744065757881499
    vertex -0.5958012386773355 -64.44829849345096 -7.504168039021264
  endloop
endfacet
facet normal -9.913191988048084e-15 -0.5877852522924696 -0.80901699437495
  outer loop
    vertex -0.5958012386773355 -64.11810761044946 -7.744065757881499
    vertex -3.5642210890845076 -64.44829849345093 -7.504168039021253
    vertex -3.5642210890845076 -64.11810761044944 -7.744065757881477
  endloop
endfacet
facet normal -7.60029376704866e-15 -0.9822872507286865 -0.18738131458573654
  outer loop
    vertex -3.564221089084395 -65.52456580043574 -5.808242133285711
    vertex -0.5958012386773355 -65.60104330603977 -5.407333009083937
    vertex -3.5642210890845076 -65.60104330603976 -5.407333009083914
  endloop
endfacet
facet normal -7.60029376704866e-15 -0.9822872507286865 -0.18738131458573654
  outer loop
    vertex -0.5958012386773355 -65.60104330603977 -5.407333009083937
    vertex -3.564221089084395 -65.52456580043574 -5.808242133285711
    vertex -0.5958012386772227 -65.52456580043577 -5.808242133285723
  endloop
endfacet
facet normal -9.006241403922944e-15 -0.7705132427757926 -0.6374239897486856
  outer loop
    vertex -0.595801238677358 -64.7458185658873 -7.224778094268187
    vertex -3.5642210890845303 -65.00597575848627 -6.91030206995047
    vertex -3.5642210890845303 -64.74581856588728 -7.2247780942681725
  endloop
endfacet
facet normal -9.006241403922944e-15 -0.7705132427757926 -0.6374239897486856
  outer loop
    vertex -3.5642210890845303 -65.00597575848627 -6.91030206995047
    vertex -0.595801238677358 -64.7458185658873 -7.224778094268187
    vertex -0.595801238677358 -65.00597575848629 -6.910302069950484
  endloop
endfacet
facet normal -9.30611496657028e-15 -0.9510565162951524 -0.3090169943749511
  outer loop
    vertex -0.595801238677358 -65.39844410590453 -6.196404796225144
    vertex -3.564221089084395 -65.52456580043574 -5.808242133285711
    vertex -3.5642210890845303 -65.3984441059045 -6.196404796225132
  endloop
endfacet
facet normal -9.30611496657028e-15 -0.9510565162951524 -0.3090169943749511
  outer loop
    vertex -3.564221089084395 -65.52456580043574 -5.808242133285711
    vertex -0.595801238677358 -65.39844410590453 -6.196404796225144
    vertex -0.5958012386772227 -65.52456580043577 -5.808242133285723
  endloop
endfacet
facet normal 2.7677664117521495e-15 -0.48175367410171993 0.8763066800438611
  outer loop
    vertex -0.5958012386773128 -63.76045322435421 -2.0593120794853794
    vertex -3.564221089084485 -64.11810761044944 -2.2559342421183812
    vertex -0.5958012386773128 -64.11810761044946 -2.2559342421183954
  endloop
endfacet
facet normal 2.7677664117521495e-15 -0.48175367410171993 0.8763066800438611
  outer loop
    vertex -3.564221089084485 -64.11810761044944 -2.2559342421183812
    vertex -0.5958012386773128 -63.76045322435421 -2.0593120794853794
    vertex -3.564221089084485 -63.76045322435419 -2.0593120794853657
  endloop
endfacet
facet normal 5.183292105088586e-15 0.8443279255020116 -0.535826794979002
  outer loop
    vertex -0.5958012386773355 -59.528673816625165 -6.565699440830521
    vertex -3.564221089084485 -59.747365295049114 -6.910302069950469
    vertex -3.5642210890845076 -59.52867381662514 -6.565699440830509
  endloop
endfacet
facet normal 5.183292105088586e-15 0.8443279255020116 -0.535826794979002
  outer loop
    vertex -3.564221089084485 -59.747365295049114 -6.910302069950469
    vertex -0.5958012386773355 -59.528673816625165 -6.565699440830521
    vertex -0.5958012386773128 -59.747365295049136 -6.910302069950482
  endloop
endfacet
facet normal -9.784153497681324e-15 -0.9048270524660218 -0.42577929156506783
  outer loop
    vertex -0.5958012386773806 -65.22466723691028 -6.565699440830521
    vertex -3.5642210890845303 -65.3984441059045 -6.196404796225132
    vertex -3.564221089084553 -65.22466723691024 -6.565699440830509
  endloop
endfacet
facet normal -9.784153497681324e-15 -0.9048270524660218 -0.42577929156506783
  outer loop
    vertex -3.5642210890845303 -65.3984441059045 -6.196404796225132
    vertex -0.5958012386773806 -65.22466723691028 -6.565699440830521
    vertex -0.595801238677358 -65.39844410590453 -6.196404796225144
  endloop
endfacet
facet normal -9.686207315452478e-15 -0.36812455268468197 -0.9297764858882499
  outer loop
    vertex -3.5642210890845076 -63.76045322435419 -7.940687920514492
    vertex -0.5958012386773355 -63.3809757584863 -8.090933677959198
    vertex -0.5958012386773355 -63.76045322435421 -7.940687920514515
  endloop
endfacet
facet normal -9.686207315452478e-15 -0.36812455268468197 -0.9297764858882499
  outer loop
    vertex -0.5958012386773355 -63.3809757584863 -8.090933677959198
    vertex -3.5642210890845076 -63.76045322435419 -7.940687920514492
    vertex -3.5642210890845076 -63.38097575848628 -8.090933677959177
  endloop
endfacet
facet normal -5.106520923201626e-15 -0.982287250728686 0.18738131458573906
  outer loop
    vertex -3.5642210890845076 -65.60104330603976 -4.592666990915935
    vertex -0.595801238677358 -65.52456580043577 -4.1917578667141715
    vertex -3.5642210890845303 -65.52456580043574 -4.191757866714149
  endloop
endfacet
facet normal -5.106520923201626e-15 -0.982287250728686 0.18738131458573906
  outer loop
    vertex -0.595801238677358 -65.52456580043577 -4.1917578667141715
    vertex -3.5642210890845076 -65.60104330603976 -4.592666990915935
    vertex -0.5958012386773355 -65.60104330603977 -4.592666990915958
  endloop
endfacet
facet normal -1.054830716486074e-14 -0.48175367410171993 -0.8763066800438609
  outer loop
    vertex -3.5642210890845076 -64.11810761044944 -7.744065757881477
    vertex -0.5958012386773355 -63.76045322435421 -7.940687920514515
    vertex -0.5958012386773355 -64.11810761044946 -7.744065757881499
  endloop
endfacet
facet normal -1.054830716486074e-14 -0.48175367410171993 -0.8763066800438609
  outer loop
    vertex -0.5958012386773355 -63.76045322435421 -7.940687920514515
    vertex -3.5642210890845076 -64.11810761044944 -7.744065757881477
    vertex -3.5642210890845076 -63.76045322435419 -7.940687920514492
  endloop
endfacet
facet normal -9.656090148608827e-15 -0.8443279255020132 -0.5358267949789995
  outer loop
    vertex -3.5642210890845303 -65.00597575848627 -6.91030206995047
    vertex -0.5958012386773806 -65.22466723691028 -6.565699440830521
    vertex -3.564221089084553 -65.22466723691024 -6.565699440830509
  endloop
endfacet
facet normal -9.656090148608827e-15 -0.8443279255020132 -0.5358267949789995
  outer loop
    vertex -0.5958012386773806 -65.22466723691028 -6.565699440830521
    vertex -3.5642210890845303 -65.00597575848627 -6.91030206995047
    vertex -0.595801238677358 -65.00597575848629 -6.910302069950484
  endloop
endfacet
facet normal 4.382815382099024e-15 0.9980267284282719 -0.06279051952931047
  outer loop
    vertex -0.5958012386772903 -59.12667052676772 -4.999999999999947
    vertex -3.5642210890844623 -59.152297747495645 -5.40733300908392
    vertex -3.5642210890844623 -59.126670526767704 -4.999999999999936
  endloop
endfacet
facet normal 4.382815382099024e-15 0.9980267284282719 -0.06279051952931047
  outer loop
    vertex -3.5642210890844623 -59.152297747495645 -5.40733300908392
    vertex -0.5958012386772903 -59.12667052676772 -4.999999999999947
    vertex -0.5958012386772903 -59.152297747495666 -5.407333009083942
  endloop
endfacet
facet normal -5.098588804553924e-15 -0.9980267284282714 -0.06279051952931722
  outer loop
    vertex -0.5958012386773355 -65.60104330603977 -5.407333009083937
    vertex -3.5642210890845076 -65.62667052676771 -4.99999999999993
    vertex -3.5642210890845076 -65.60104330603976 -5.407333009083914
  endloop
endfacet
facet normal -5.098588804553924e-15 -0.9980267284282714 -0.06279051952931722
  outer loop
    vertex -3.5642210890845076 -65.62667052676771 -4.99999999999993
    vertex -0.5958012386773355 -65.60104330603977 -5.407333009083937
    vertex -0.5958012386773355 -65.62667052676771 -4.999999999999941
  endloop
endfacet
facet normal 8.34085732871767e-16 0.5877852522924655 -0.809016994374953
  outer loop
    vertex -3.564221089084485 -60.63523344308595 -7.744065757881472
    vertex -0.5958012386773128 -60.30504256008447 -7.504168039021262
    vertex -0.5958012386773128 -60.63523344308598 -7.744065757881494
  endloop
endfacet
facet normal 8.34085732871767e-16 0.5877852522924655 -0.809016994374953
  outer loop
    vertex -0.5958012386773128 -60.30504256008447 -7.504168039021262
    vertex -3.564221089084485 -60.63523344308595 -7.744065757881472
    vertex -3.564221089084485 -60.30504256008445 -7.504168039021249
  endloop
endfacet
facet normal 6.334027673800856e-15 0.9048270524660218 -0.42577929156506794
  outer loop
    vertex -0.5958012386773355 -59.3548969476309 -6.196404796225148
    vertex -3.5642210890845076 -59.52867381662514 -6.565699440830509
    vertex -3.5642210890845076 -59.35489694763088 -6.196404796225137
  endloop
endfacet
facet normal 6.334027673800856e-15 0.9048270524660218 -0.42577929156506794
  outer loop
    vertex -3.5642210890845076 -59.52867381662514 -6.565699440830509
    vertex -0.5958012386773355 -59.3548969476309 -6.196404796225148
    vertex -0.5958012386773355 -59.528673816625165 -6.565699440830521
  endloop
endfacet
facet normal -4.5298441276291814e-15 0.36812455268468247 -0.9297764858882497
  outer loop
    vertex -3.5642210890845076 -61.372365295049114 -8.090933677959177
    vertex -0.5958012386773355 -60.99288782918123 -7.9406879205145104
    vertex -0.5958012386773355 -61.372365295049136 -8.090933677959198
  endloop
endfacet
facet normal -4.5298441276291814e-15 0.36812455268468247 -0.9297764858882497
  outer loop
    vertex -0.5958012386773355 -60.99288782918123 -7.9406879205145104
    vertex -3.5642210890845076 -61.372365295049114 -8.090933677959177
    vertex -3.5642210890845076 -60.99288782918121 -7.940687920514488
  endloop
endfacet
facet normal -5.740010636190386e-15 -0.9048270524660192 0.42577929156507327
  outer loop
    vertex -0.595801238677358 -65.39844410590453 -3.8035952037747394
    vertex -3.564221089084395 -65.22466723691024 -3.4343005591693565
    vertex -3.5642210890845303 -65.3984441059045 -3.803595203774728
  endloop
endfacet
facet normal -5.740010636190386e-15 -0.9048270524660192 0.42577929156507327
  outer loop
    vertex -3.564221089084395 -65.22466723691024 -3.4343005591693565
    vertex -0.595801238677358 -65.39844410590453 -3.8035952037747394
    vertex -0.5958012386772227 -65.22466723691028 -3.4343005591693787
  endloop
endfacet
facet normal -7.17594504342759e-15 -0.24868988716484677 -0.9685831611286333
  outer loop
    vertex -3.5642210890845076 -63.38097575848628 -8.090933677959177
    vertex -0.5958012386772227 -62.985659799171316 -8.192433564868173
    vertex -0.5958012386773355 -63.3809757584863 -8.090933677959198
  endloop
endfacet
facet normal -7.17594504342759e-15 -0.24868988716484677 -0.9685831611286333
  outer loop
    vertex -0.5958012386772227 -62.985659799171316 -8.192433564868173
    vertex -3.5642210890845076 -63.38097575848628 -8.090933677959177
    vertex -3.564221089084395 -62.98565979917131 -8.192433564868171
  endloop
endfacet
facet normal -6.5178477096197024e-15 -0.12533323356430798 -0.9921147013144775
  outer loop
    vertex -3.564221089084395 -62.98565979917131 -8.192433564868171
    vertex -0.5958012386772227 -62.58073971523799 -8.243586867391825
    vertex -0.5958012386772227 -62.985659799171316 -8.192433564868173
  endloop
endfacet
facet normal -6.5178477096197024e-15 -0.12533323356430798 -0.9921147013144775
  outer loop
    vertex -0.5958012386772227 -62.58073971523799 -8.243586867391825
    vertex -3.564221089084395 -62.98565979917131 -8.192433564868171
    vertex -3.564221089084395 -62.58073971523797 -8.243586867391812
  endloop
endfacet
facet normal 3.4098200142543993e-15 0.6845471059286886 -0.7289686274214116
  outer loop
    vertex -3.564221089084485 -60.30504256008445 -7.504168039021249
    vertex -0.5958012386773128 -60.00752248764813 -7.224778094268184
    vertex -0.5958012386773128 -60.30504256008447 -7.504168039021262
  endloop
endfacet
facet normal 3.4098200142543993e-15 0.6845471059286886 -0.7289686274214116
  outer loop
    vertex -0.5958012386773128 -60.00752248764813 -7.224778094268184
    vertex -3.564221089084485 -60.30504256008445 -7.504168039021249
    vertex -3.564221089084485 -60.0075224876481 -7.224778094268171
  endloop
endfacet
facet normal -7.599912747278222e-15 -5.55111512312593e-17 -1.0
  outer loop
    vertex -3.564221089084395 -62.58073971523797 -8.243586867391812
    vertex -0.5958012386772227 -62.17260133829745 -8.243586867391825
    vertex -0.5958012386772227 -62.58073971523799 -8.243586867391825
  endloop
endfacet
facet normal -7.599912747278222e-15 -5.55111512312593e-17 -1.0
  outer loop
    vertex -0.5958012386772227 -62.17260133829745 -8.243586867391825
    vertex -3.564221089084395 -62.58073971523797 -8.243586867391812
    vertex -3.564221089084395 -62.172601338297426 -8.243586867391812
  endloop
endfacet
facet normal 1.1171351324462005e-14 0.5877852522924737 0.809016994374947
  outer loop
    vertex -0.5958012386772903 -60.30504256008447 -2.4958319609786304
    vertex -3.5642210890844623 -60.63523344308595 -2.255934242118383
    vertex -0.5958012386772903 -60.63523344308598 -2.2559342421183985
  endloop
endfacet
facet normal 1.1171351324462005e-14 0.5877852522924737 0.809016994374947
  outer loop
    vertex -3.5642210890844623 -60.63523344308595 -2.255934242118383
    vertex -0.5958012386772903 -60.30504256008447 -2.4958319609786304
    vertex -3.5642210890844623 -60.30504256008445 -2.495831960978616
  endloop
endfacet
facet normal 2.026701932702329e-15 -0.24868988716485962 0.96858316112863
  outer loop
    vertex -0.5958012386773128 -62.98565979917133 -1.8075664351317005
    vertex -3.564221089084485 -63.38097575848628 -1.909066322040689
    vertex -0.5958012386773128 -63.3809757584863 -1.9090663220406918
  endloop
endfacet
facet normal 2.026701932702329e-15 -0.24868988716485962 0.96858316112863
  outer loop
    vertex -3.564221089084485 -63.38097575848628 -1.909066322040689
    vertex -0.5958012386773128 -62.98565979917133 -1.8075664351317005
    vertex -3.564221089084485 -62.98565979917131 -1.8075664351316978
  endloop
endfacet
facet normal -4.568845082290272e-15 -0.8443279255020172 0.5358267949789932
  outer loop
    vertex -0.5958012386772227 -65.22466723691028 -3.4343005591693787
    vertex -3.564221089084395 -65.00597575848627 -3.089697930049396
    vertex -3.564221089084395 -65.22466723691024 -3.4343005591693565
  endloop
endfacet
facet normal -4.568845082290272e-15 -0.8443279255020172 0.5358267949789932
  outer loop
    vertex -3.564221089084395 -65.00597575848627 -3.089697930049396
    vertex -0.5958012386772227 -65.22466723691028 -3.4343005591693787
    vertex -0.5958012386772227 -65.00597575848629 -3.0896979300493985
  endloop
endfacet
facet normal -9.612903061828238e-16 -0.6845471059286904 0.72896862742141
  outer loop
    vertex -0.5958012386773128 -64.44829849345096 -2.49583196097863
    vertex -3.564221089084485 -64.74581856588728 -2.7752219057316934
    vertex -0.5958012386773128 -64.7458185658873 -2.7752219057317076
  endloop
endfacet
facet normal -9.612903061828238e-16 -0.6845471059286904 0.72896862742141
  outer loop
    vertex -3.564221089084485 -64.74581856588728 -2.7752219057316934
    vertex -0.5958012386773128 -64.44829849345096 -2.49583196097863
    vertex -3.564221089084485 -64.44829849345093 -2.4958319609786157
  endloop
endfacet
facet normal -3.318680971654143e-15 -0.7705132427757854 0.6374239897486945
  outer loop
    vertex -3.564221089084395 -65.00597575848627 -3.089697930049396
    vertex -0.5958012386773128 -64.7458185658873 -2.7752219057317076
    vertex -3.564221089084485 -64.74581856588728 -2.7752219057316934
  endloop
endfacet
facet normal -3.318680971654143e-15 -0.7705132427757854 0.6374239897486945
  outer loop
    vertex -0.5958012386773128 -64.7458185658873 -2.7752219057317076
    vertex -3.564221089084395 -65.00597575848627 -3.089697930049396
    vertex -0.5958012386772227 -65.00597575848629 -3.0896979300493985
  endloop
endfacet
facet normal 5.608428203786013e-16 -0.587785252292477 0.8090169943749448
  outer loop
    vertex -0.5958012386773128 -64.11810761044946 -2.2559342421183954
    vertex -3.564221089084485 -64.44829849345093 -2.4958319609786157
    vertex -0.5958012386773128 -64.44829849345096 -2.49583196097863
  endloop
endfacet
facet normal 5.608428203786013e-16 -0.587785252292477 0.8090169943749448
  outer loop
    vertex -3.564221089084485 -64.44829849345093 -2.4958319609786157
    vertex -0.5958012386773128 -64.11810761044946 -2.2559342421183954
    vertex -3.564221089084485 -64.11810761044944 -2.2559342421183812
  endloop
endfacet
facet normal 7.63698907236409e-15 0.9510565162951534 -0.30901699437494823
  outer loop
    vertex -3.5642210890843495 -59.22877525309964 -5.8082421332857175
    vertex -0.5958012386773355 -59.3548969476309 -6.196404796225148
    vertex -3.5642210890845076 -59.35489694763088 -6.196404796225137
  endloop
endfacet
facet normal 7.63698907236409e-15 0.9510565162951534 -0.30901699437494823
  outer loop
    vertex -0.5958012386773355 -59.3548969476309 -6.196404796225148
    vertex -3.5642210890843495 -59.22877525309964 -5.8082421332857175
    vertex -0.5958012386771775 -59.22877525309966 -5.808242133285728
  endloop
endfacet
facet normal -6.368567192994416e-15 -0.9510565162951538 0.30901699437494723
  outer loop
    vertex -0.595801238677358 -65.52456580043577 -4.1917578667141715
    vertex -3.5642210890845303 -65.3984441059045 -3.803595203774728
    vertex -3.5642210890845303 -65.52456580043574 -4.191757866714149
  endloop
endfacet
facet normal -6.368567192994416e-15 -0.9510565162951538 0.30901699437494723
  outer loop
    vertex -3.5642210890845303 -65.3984441059045 -3.803595203774728
    vertex -0.595801238677358 -65.52456580043577 -4.1917578667141715
    vertex -0.595801238677358 -65.39844410590453 -3.8035952037747394
  endloop
endfacet
facet normal -3.808006142090144e-15 0.24868988716484616 -0.9685831611286333
  outer loop
    vertex -3.564221089084395 -61.7676812543641 -8.192433564868171
    vertex -0.5958012386773355 -61.372365295049136 -8.090933677959198
    vertex -0.5958012386772227 -61.76768125436412 -8.192433564868173
  endloop
endfacet
facet normal -3.808006142090144e-15 0.24868988716484616 -0.9685831611286333
  outer loop
    vertex -0.5958012386773355 -61.372365295049136 -8.090933677959198
    vertex -3.564221089084395 -61.7676812543641 -8.192433564868171
    vertex -3.5642210890845076 -61.372365295049114 -8.090933677959177
  endloop
endfacet
facet normal 7.746466413533124e-15 0.36812455268467004 0.9297764858882547
  outer loop
    vertex -0.5958012386772903 -60.99288782918123 -2.0593120794853825
    vertex -3.5642210890844623 -61.372365295049114 -1.9090663220406907
    vertex -0.5958012386772903 -61.372365295049136 -1.909066322040695
  endloop
endfacet
facet normal 7.746466413533124e-15 0.36812455268467004 0.9297764858882547
  outer loop
    vertex -3.5642210890844623 -61.372365295049114 -1.9090663220406907
    vertex -0.5958012386772903 -60.99288782918123 -2.0593120794853825
    vertex -3.5642210890844623 -60.99288782918121 -2.0593120794853674
  endloop
endfacet
facet normal 1.1390497623870011e-14 0.6845471059286904 0.72896862742141
  outer loop
    vertex -0.5958012386772903 -60.00752248764813 -2.775221905731708
    vertex -3.5642210890844623 -60.30504256008445 -2.495831960978616
    vertex -0.5958012386772903 -60.30504256008447 -2.4958319609786304
  endloop
endfacet
facet normal 1.1390497623870011e-14 0.6845471059286904 0.72896862742141
  outer loop
    vertex -3.5642210890844623 -60.30504256008445 -2.495831960978616
    vertex -0.5958012386772903 -60.00752248764813 -2.775221905731708
    vertex -3.5642210890844623 -60.0075224876481 -2.775221905731694
  endloop
endfacet
facet normal 1.0318849093989984e-14 0.4817536741017142 0.8763066800438643
  outer loop
    vertex -0.5958012386772903 -60.63523344308598 -2.2559342421183985
    vertex -3.5642210890844623 -60.99288782918121 -2.0593120794853674
    vertex -0.5958012386772903 -60.99288782918123 -2.0593120794853825
  endloop
endfacet
facet normal 1.0318849093989984e-14 0.4817536741017142 0.8763066800438643
  outer loop
    vertex -3.5642210890844623 -60.99288782918121 -2.0593120794853674
    vertex -0.5958012386772903 -60.63523344308598 -2.2559342421183985
    vertex -3.5642210890844623 -60.63523344308595 -2.255934242118383
  endloop
endfacet
facet normal -8.941099897728505e-15 -0.6845471059286886 -0.7289686274214116
  outer loop
    vertex -3.5642210890845303 -64.74581856588728 -7.2247780942681725
    vertex -0.5958012386773355 -64.44829849345096 -7.504168039021264
    vertex -0.595801238677358 -64.7458185658873 -7.224778094268187
  endloop
endfacet
facet normal -8.941099897728505e-15 -0.6845471059286886 -0.7289686274214116
  outer loop
    vertex -0.5958012386773355 -64.44829849345096 -7.504168039021264
    vertex -3.5642210890845303 -64.74581856588728 -7.2247780942681725
    vertex -3.5642210890845076 -64.44829849345093 -7.504168039021253
  endloop
endfacet
facet normal 5.333441475340392e-15 0.24868988716486135 0.9685831611286295
  outer loop
    vertex -0.5958012386772903 -61.372365295049136 -1.909066322040695
    vertex -3.5642210890844623 -61.7676812543641 -1.8075664351316993
    vertex -0.5958012386772903 -61.767681254364106 -1.8075664351317051
  endloop
endfacet
facet normal 5.333441475340392e-15 0.24868988716486135 0.9685831611286295
  outer loop
    vertex -3.5642210890844623 -61.7676812543641 -1.8075664351316993
    vertex -0.5958012386772903 -61.372365295049136 -1.909066322040695
    vertex -3.5642210890844623 -61.372365295049114 -1.9090663220406907
  endloop
endfacet
facet normal 3.79995637363911e-15 5.551115123104782e-17 1.0
  outer loop
    vertex -0.5958012386773128 -62.17260133829745 -1.7564131326080648
    vertex -3.564221089084485 -62.58073971523797 -1.7564131326080572
    vertex -0.5958012386773128 -62.58073971523799 -1.75641313260806
  endloop
endfacet
facet normal 3.79995637363911e-15 5.551115123104782e-17 1.0
  outer loop
    vertex -3.564221089084485 -62.58073971523797 -1.7564131326080572
    vertex -0.5958012386773128 -62.17260133829745 -1.7564131326080648
    vertex -3.564221089084485 -62.172601338297426 -1.756413132608059
  endloop
endfacet
facet normal 1.0376460080414508e-14 0.9048270524660192 0.42577929156507327
  outer loop
    vertex -3.5642210890843495 -59.52867381662514 -3.4343005591693565
    vertex -0.5958012386773128 -59.3548969476309 -3.8035952037747434
    vertex -3.564221089084485 -59.35489694763088 -3.8035952037747323
  endloop
endfacet
facet normal 1.0376460080414508e-14 0.9048270524660192 0.42577929156507327
  outer loop
    vertex -0.5958012386773128 -59.3548969476309 -3.8035952037747434
    vertex -3.5642210890843495 -59.52867381662514 -3.4343005591693565
    vertex -0.5958012386771775 -59.528673816625165 -3.4343005591693703
  endloop
endfacet
facet normal 4.979459383964256e-15 0.9980267284282717 0.06279051952931121
  outer loop
    vertex -0.5958012386772903 -59.152297747495666 -4.592666990915962
    vertex -3.5642210890844623 -59.126670526767704 -4.999999999999936
    vertex -3.5642210890844623 -59.152297747495645 -4.5926669909159505
  endloop
endfacet
facet normal 4.979459383964256e-15 0.9980267284282717 0.06279051952931121
  outer loop
    vertex -3.5642210890844623 -59.126670526767704 -4.999999999999936
    vertex -0.5958012386772903 -59.152297747495666 -4.592666990915962
    vertex -0.5958012386772903 -59.12667052676772 -4.999999999999947
  endloop
endfacet
facet normal 1.1797002503095385e-14 0.7705132427757909 0.6374239897486876
  outer loop
    vertex -0.5958012386772903 -60.00752248764813 -2.775221905731708
    vertex -3.5642210890843495 -59.747365295049114 -3.0896979300493963
    vertex -3.5642210890844623 -60.0075224876481 -2.775221905731694
  endloop
endfacet
facet normal 1.1797002503095385e-14 0.7705132427757909 0.6374239897486876
  outer loop
    vertex -3.5642210890843495 -59.747365295049114 -3.0896979300493963
    vertex -0.5958012386772903 -60.00752248764813 -2.775221905731708
    vertex -0.5958012386771775 -59.747365295049136 -3.0896979300494105
  endloop
endfacet
facet normal 7.245015213980163e-15 0.982287250728691 0.1873813145857123
  outer loop
    vertex -0.5958012386773128 -59.22877525309966 -4.191757866714176
    vertex -3.5642210890844623 -59.152297747495645 -4.5926669909159505
    vertex -3.564221089084485 -59.22877525309964 -4.191757866714164
  endloop
endfacet
facet normal 7.245015213980163e-15 0.982287250728691 0.1873813145857123
  outer loop
    vertex -3.5642210890844623 -59.152297747495645 -4.5926669909159505
    vertex -0.5958012386773128 -59.22877525309966 -4.191757866714176
    vertex -0.5958012386772903 -59.152297747495666 -4.592666990915962
  endloop
endfacet
facet normal 1.1691413530074934e-14 0.8443279255020132 0.5358267949789995
  outer loop
    vertex -0.5958012386771775 -59.747365295049136 -3.0896979300494105
    vertex -3.5642210890843495 -59.52867381662514 -3.4343005591693565
    vertex -3.5642210890843495 -59.747365295049114 -3.0896979300493963
  endloop
endfacet
facet normal 1.1691413530074934e-14 0.8443279255020132 0.5358267949789995
  outer loop
    vertex -3.5642210890843495 -59.52867381662514 -3.4343005591693565
    vertex -0.5958012386771775 -59.747365295049136 -3.0896979300494105
    vertex -0.5958012386771775 -59.528673816625165 -3.4343005591693703
  endloop
endfacet
facet normal 9.530720446375204e-15 0.951056516295155 0.30901699437494307
  outer loop
    vertex -0.5958012386773128 -59.3548969476309 -3.8035952037747434
    vertex -3.564221089084485 -59.22877525309964 -4.191757866714164
    vertex -3.564221089084485 -59.35489694763088 -3.8035952037747323
  endloop
endfacet
facet normal 9.530720446375204e-15 0.951056516295155 0.30901699437494307
  outer loop
    vertex -3.564221089084485 -59.22877525309964 -4.191757866714164
    vertex -0.5958012386773128 -59.3548969476309 -3.8035952037747434
    vertex -0.5958012386773128 -59.22877525309966 -4.191757866714176
  endloop
endfacet
facet normal 4.603247287484639e-15 0.12533323356429457 0.9921147013144791
  outer loop
    vertex -0.5958012386772903 -61.767681254364106 -1.8075664351317051
    vertex -3.564221089084485 -62.172601338297426 -1.756413132608059
    vertex -0.5958012386773128 -62.17260133829745 -1.7564131326080648
  endloop
endfacet
facet normal 4.603247287484639e-15 0.12533323356429457 0.9921147013144791
  outer loop
    vertex -3.564221089084485 -62.172601338297426 -1.756413132608059
    vertex -0.5958012386772903 -61.767681254364106 -1.8075664351317051
    vertex -3.5642210890844623 -61.7676812543641 -1.8075664351316993
  endloop
endfacet
facet normal 2.9078835603078794e-15 -0.1253332335642942 0.9921147013144791
  outer loop
    vertex -0.5958012386773128 -62.58073971523799 -1.75641313260806
    vertex -3.564221089084485 -62.98565979917131 -1.8075664351316978
    vertex -0.5958012386773128 -62.98565979917133 -1.8075664351317005
  endloop
endfacet
facet normal 2.9078835603078794e-15 -0.1253332335642942 0.9921147013144791
  outer loop
    vertex -3.564221089084485 -62.98565979917131 -1.8075664351316978
    vertex -0.5958012386773128 -62.58073971523799 -1.75641313260806
    vertex -3.564221089084485 -62.58073971523797 -1.7564131326080572
  endloop
endfacet
facet normal 0.0 5.551115123125784e-17 1.0
  outer loop
    vertex -0.09580123867713332 -58.126670526767754 -0.7564131326080594
    vertex -3.56422108908444 -66.62667052676771 -0.7564131326080605
    vertex -0.09580123867726868 -66.62667052676775 -0.7564131326080521
  endloop
endfacet
facet normal 0.0 5.551115123125784e-17 1.0
  outer loop
    vertex -3.56422108908444 -66.62667052676771 -0.7564131326080605
    vertex -0.09580123867713332 -58.126670526767754 -0.7564131326080594
    vertex -3.5642210890843047 -58.12667052676772 -0.7564131326080594
  endloop
endfacet
facet normal 8.943447634918081e-15 1.0 -5.551115123132801e-17
  outer loop
    vertex -3.5642210890843047 -58.12667052676772 -0.7564131326080594
    vertex -0.09580123867733636 -58.126670526767754 -9.24358686739181
    vertex -3.564221089084485 -58.12667052676772 -9.24358686739181
  endloop
endfacet
facet normal 8.943447634918081e-15 1.0 -5.551115123132801e-17
  outer loop
    vertex -0.09580123867733636 -58.126670526767754 -9.24358686739181
    vertex -3.5642210890843047 -58.12667052676772 -0.7564131326080594
    vertex -0.09580123867713332 -58.126670526767754 -0.7564131326080594
  endloop
endfacet
facet normal 1.0 -8.791660210296388e-15 3.3226213703987095e-16
  outer loop
    vertex -0.09580123867733636 -66.62667052676775 -9.243586867391803
    vertex -0.09580123867713332 -58.126670526767754 -0.7564131326080594
    vertex -0.09580123867726868 -66.62667052676775 -0.7564131326080521
  endloop
endfacet
facet normal 1.0 -8.791660210296388e-15 3.3226213703987095e-16
  outer loop
    vertex -0.09580123867713332 -58.126670526767754 -0.7564131326080594
    vertex -0.09580123867733636 -66.62667052676775 -9.243586867391803
    vertex -0.09580123867733636 -58.126670526767754 -9.24358686739181
  endloop
endfacet
facet normal -9.34996798195981e-15 -1.0 5.551115123117852e-17
  outer loop
    vertex -0.09580123867733636 -66.62667052676775 -9.243586867391803
    vertex -3.56422108908444 -66.62667052676771 -0.7564131326080605
    vertex -3.5642210890845076 -66.62667052676771 -9.24358686739181
  endloop
endfacet
facet normal -9.34996798195981e-15 -1.0 5.551115123117852e-17
  outer loop
    vertex -3.56422108908444 -66.62667052676771 -0.7564131326080605
    vertex -0.09580123867733636 -66.62667052676775 -9.243586867391803
    vertex -0.09580123867726868 -66.62667052676775 -0.7564131326080521
  endloop
endfacet
facet normal 0.0 -5.551115123125784e-17 -1.0
  outer loop
    vertex -3.5642210890845076 -66.62667052676771 -9.24358686739181
    vertex -0.09580123867733636 -58.126670526767754 -9.24358686739181
    vertex -0.09580123867733636 -66.62667052676775 -9.243586867391803
  endloop
endfacet
facet normal 0.0 -5.551115123125784e-17 -1.0
  outer loop
    vertex -0.09580123867733636 -58.126670526767754 -9.24358686739181
    vertex -3.5642210890845076 -66.62667052676771 -9.24358686739181
    vertex -3.564221089084485 -58.12667052676772 -9.24358686739181
  endloop
endfacet
facet normal -1.0 8.791660210296385e-15 -3.3226213703986937e-16
  outer loop
    vertex -3.5642210890843047 -58.12667052676772 -0.7564131326080594
    vertex -3.5642210890844623 -61.7676812543641 -1.8075664351316993
    vertex -3.56422108908444 -66.62667052676771 -0.7564131326080605
  endloop
endfacet
facet normal -1.0 8.791660210296385e-15 -3.3226213703986937e-16
  outer loop
    vertex -3.5642210890844623 -61.7676812543641 -1.8075664351316993
    vertex -3.5642210890843047 -58.12667052676772 -0.7564131326080594
    vertex -3.5642210890844623 -61.372365295049114 -1.9090663220406907
  endloop
endfacet
facet normal -1.0 8.791660210296385e-15 -3.3226213703986937e-16
  outer loop
    vertex -3.5642210890844623 -61.372365295049114 -1.9090663220406907
    vertex -3.5642210890843047 -58.12667052676772 -0.7564131326080594
    vertex -3.5642210890844623 -60.99288782918121 -2.0593120794853674
  endloop
endfacet
facet normal -1.0 8.791660210296385e-15 -3.3226213703986937e-16
  outer loop
    vertex -3.5642210890844623 -60.99288782918121 -2.0593120794853674
    vertex -3.5642210890843047 -58.12667052676772 -0.7564131326080594
    vertex -3.5642210890844623 -60.63523344308595 -2.255934242118383
  endloop
endfacet
facet normal -1.0 8.791660210296385e-15 -3.3226213703986937e-16
  outer loop
    vertex -3.5642210890844623 -60.63523344308595 -2.255934242118383
    vertex -3.5642210890843047 -58.12667052676772 -0.7564131326080594
    vertex -3.5642210890844623 -60.30504256008445 -2.495831960978616
  endloop
endfacet
facet normal -1.0 8.791660210296385e-15 -3.3226213703986937e-16
  outer loop
    vertex -3.5642210890844623 -60.30504256008445 -2.495831960978616
    vertex -3.5642210890843047 -58.12667052676772 -0.7564131326080594
    vertex -3.5642210890844623 -60.0075224876481 -2.775221905731694
  endloop
endfacet
facet normal -1.0 8.791660210296385e-15 -3.3226213703986937e-16
  outer loop
    vertex -3.5642210890844623 -60.0075224876481 -2.775221905731694
    vertex -3.5642210890843047 -58.12667052676772 -0.7564131326080594
    vertex -3.5642210890843495 -59.747365295049114 -3.0896979300493963
  endloop
endfacet
facet normal -1.0 8.791660210296385e-15 -3.3226213703986937e-16
  outer loop
    vertex -3.5642210890843495 -59.747365295049114 -3.0896979300493963
    vertex -3.5642210890843047 -58.12667052676772 -0.7564131326080594
    vertex -3.5642210890843495 -59.52867381662514 -3.4343005591693565
  endloop
endfacet
facet normal -1.0 8.791660210296385e-15 -3.3226213703986937e-16
  outer loop
    vertex -3.5642210890843495 -59.52867381662514 -3.4343005591693565
    vertex -3.5642210890843047 -58.12667052676772 -0.7564131326080594
    vertex -3.564221089084485 -59.35489694763088 -3.8035952037747323
  endloop
endfacet
facet normal -1.0 8.791660210296385e-15 -3.3226213703986937e-16
  outer loop
    vertex -3.564221089084485 -59.35489694763088 -3.8035952037747323
    vertex -3.5642210890843047 -58.12667052676772 -0.7564131326080594
    vertex -3.564221089084485 -59.22877525309964 -4.191757866714164
  endloop
endfacet
facet normal -1.0 8.791660210296385e-15 -3.3226213703986937e-16
  outer loop
    vertex -3.564221089084485 -59.22877525309964 -4.191757866714164
    vertex -3.5642210890843047 -58.12667052676772 -0.7564131326080594
    vertex -3.564221089084485 -58.12667052676772 -9.24358686739181
  endloop
endfacet
facet normal -1.0 8.791660210296385e-15 -3.3226213703986937e-16
  outer loop
    vertex -3.56422108908444 -66.62667052676771 -0.7564131326080605
    vertex -3.5642210890844623 -61.7676812543641 -1.8075664351316993
    vertex -3.564221089084485 -62.172601338297426 -1.756413132608059
  endloop
endfacet
facet normal -1.0 8.791660210296385e-15 -3.3226213703986937e-16
  outer loop
    vertex -3.56422108908444 -66.62667052676771 -0.7564131326080605
    vertex -3.564221089084485 -62.172601338297426 -1.756413132608059
    vertex -3.564221089084485 -62.58073971523797 -1.7564131326080572
  endloop
endfacet
facet normal -1.0 8.791660210296385e-15 -3.3226213703986937e-16
  outer loop
    vertex -3.564221089084485 -59.22877525309964 -4.191757866714164
    vertex -3.564221089084485 -58.12667052676772 -9.24358686739181
    vertex -3.5642210890844623 -59.152297747495645 -4.5926669909159505
  endloop
endfacet
facet normal -1.0 8.791660210296385e-15 -3.3226213703986937e-16
  outer loop
    vertex -3.5642210890844623 -59.152297747495645 -4.5926669909159505
    vertex -3.564221089084485 -58.12667052676772 -9.24358686739181
    vertex -3.5642210890844623 -59.126670526767704 -4.999999999999936
  endloop
endfacet
facet normal -1.0 8.791660210296385e-15 -3.3226213703986937e-16
  outer loop
    vertex -3.5642210890844623 -59.126670526767704 -4.999999999999936
    vertex -3.564221089084485 -58.12667052676772 -9.24358686739181
    vertex -3.5642210890844623 -59.152297747495645 -5.40733300908392
  endloop
endfacet
facet normal -1.0 8.791660210296385e-15 -3.3226213703986937e-16
  outer loop
    vertex -3.5642210890844623 -59.152297747495645 -5.40733300908392
    vertex -3.564221089084485 -58.12667052676772 -9.24358686739181
    vertex -3.5642210890843495 -59.22877525309964 -5.8082421332857175
  endloop
endfacet
facet normal -1.0 8.791660210296385e-15 -3.3226213703986937e-16
  outer loop
    vertex -3.5642210890843495 -59.22877525309964 -5.8082421332857175
    vertex -3.564221089084485 -58.12667052676772 -9.24358686739181
    vertex -3.5642210890845076 -59.35489694763088 -6.196404796225137
  endloop
endfacet
facet normal -1.0 8.791660210296385e-15 -3.3226213703986937e-16
  outer loop
    vertex -3.5642210890845076 -59.35489694763088 -6.196404796225137
    vertex -3.564221089084485 -58.12667052676772 -9.24358686739181
    vertex -3.5642210890845076 -59.52867381662514 -6.565699440830509
  endloop
endfacet
facet normal -1.0 8.791660210296385e-15 -3.3226213703986937e-16
  outer loop
    vertex -3.5642210890845076 -59.52867381662514 -6.565699440830509
    vertex -3.564221089084485 -58.12667052676772 -9.24358686739181
    vertex -3.564221089084485 -59.747365295049114 -6.910302069950469
  endloop
endfacet
facet normal -1.0 8.791660210296385e-15 -3.3226213703986937e-16
  outer loop
    vertex -3.564221089084485 -59.747365295049114 -6.910302069950469
    vertex -3.564221089084485 -58.12667052676772 -9.24358686739181
    vertex -3.564221089084485 -60.0075224876481 -7.224778094268171
  endloop
endfacet
facet normal -1.0 8.791660210296385e-15 -3.3226213703986937e-16
  outer loop
    vertex -3.564221089084485 -60.0075224876481 -7.224778094268171
    vertex -3.564221089084485 -58.12667052676772 -9.24358686739181
    vertex -3.564221089084485 -60.30504256008445 -7.504168039021249
  endloop
endfacet
facet normal -1.0 8.791660210296385e-15 -3.3226213703986937e-16
  outer loop
    vertex -3.564221089084485 -60.30504256008445 -7.504168039021249
    vertex -3.564221089084485 -58.12667052676772 -9.24358686739181
    vertex -3.564221089084485 -60.63523344308595 -7.744065757881472
  endloop
endfacet
facet normal -1.0 8.791660210296385e-15 -3.3226213703986937e-16
  outer loop
    vertex -3.564221089084485 -60.63523344308595 -7.744065757881472
    vertex -3.564221089084485 -58.12667052676772 -9.24358686739181
    vertex -3.5642210890845076 -60.99288782918121 -7.940687920514488
  endloop
endfacet
facet normal -1.0 8.791660210296385e-15 -3.3226213703986937e-16
  outer loop
    vertex -3.5642210890845076 -60.99288782918121 -7.940687920514488
    vertex -3.564221089084485 -58.12667052676772 -9.24358686739181
    vertex -3.5642210890845076 -61.372365295049114 -8.090933677959177
  endloop
endfacet
facet normal -1.0 8.791660210296385e-15 -3.3226213703986937e-16
  outer loop
    vertex -3.5642210890845076 -61.372365295049114 -8.090933677959177
    vertex -3.564221089084485 -58.12667052676772 -9.24358686739181
    vertex -3.564221089084395 -61.7676812543641 -8.192433564868171
  endloop
endfacet
facet normal -1.0 8.791660210296385e-15 -3.3226213703986937e-16
  outer loop
    vertex -3.564221089084395 -61.7676812543641 -8.192433564868171
    vertex -3.564221089084485 -58.12667052676772 -9.24358686739181
    vertex -3.564221089084395 -62.172601338297426 -8.243586867391812
  endloop
endfacet
facet normal -1.0 8.791660210296385e-15 -3.3226213703986937e-16
  outer loop
    vertex -3.564221089084395 -62.172601338297426 -8.243586867391812
    vertex -3.564221089084485 -58.12667052676772 -9.24358686739181
    vertex -3.564221089084395 -62.58073971523797 -8.243586867391812
  endloop
endfacet
facet normal -1.0 8.791660210296385e-15 -3.3226213703986937e-16
  outer loop
    vertex -3.56422108908444 -66.62667052676771 -0.7564131326080605
    vertex -3.5642210890845303 -65.52456580043574 -4.191757866714149
    vertex -3.5642210890845076 -66.62667052676771 -9.24358686739181
  endloop
endfacet
facet normal -1.0 8.791660210296385e-15 -3.3226213703986937e-16
  outer loop
    vertex -3.5642210890845303 -65.52456580043574 -4.191757866714149
    vertex -3.56422108908444 -66.62667052676771 -0.7564131326080605
    vertex -3.5642210890845303 -65.3984441059045 -3.803595203774728
  endloop
endfacet
facet normal -1.0 8.791660210296385e-15 -3.3226213703986937e-16
  outer loop
    vertex -3.5642210890845303 -65.3984441059045 -3.803595203774728
    vertex -3.56422108908444 -66.62667052676771 -0.7564131326080605
    vertex -3.564221089084395 -65.22466723691024 -3.4343005591693565
  endloop
endfacet
facet normal -1.0 8.791660210296385e-15 -3.3226213703986937e-16
  outer loop
    vertex -3.564221089084395 -65.22466723691024 -3.4343005591693565
    vertex -3.56422108908444 -66.62667052676771 -0.7564131326080605
    vertex -3.564221089084395 -65.00597575848627 -3.089697930049396
  endloop
endfacet
facet normal -1.0 8.791660210296385e-15 -3.3226213703986937e-16
  outer loop
    vertex -3.564221089084395 -65.00597575848627 -3.089697930049396
    vertex -3.56422108908444 -66.62667052676771 -0.7564131326080605
    vertex -3.564221089084485 -64.74581856588728 -2.7752219057316934
  endloop
endfacet
facet normal -1.0 8.791660210296385e-15 -3.3226213703986937e-16
  outer loop
    vertex -3.564221089084485 -64.74581856588728 -2.7752219057316934
    vertex -3.56422108908444 -66.62667052676771 -0.7564131326080605
    vertex -3.564221089084485 -64.44829849345093 -2.4958319609786157
  endloop
endfacet
facet normal -1.0 8.791660210296385e-15 -3.3226213703986937e-16
  outer loop
    vertex -3.564221089084485 -64.44829849345093 -2.4958319609786157
    vertex -3.56422108908444 -66.62667052676771 -0.7564131326080605
    vertex -3.564221089084485 -64.11810761044944 -2.2559342421183812
  endloop
endfacet
facet normal -1.0 8.791660210296385e-15 -3.3226213703986937e-16
  outer loop
    vertex -3.564221089084485 -64.11810761044944 -2.2559342421183812
    vertex -3.56422108908444 -66.62667052676771 -0.7564131326080605
    vertex -3.564221089084485 -63.76045322435419 -2.0593120794853657
  endloop
endfacet
facet normal -1.0 8.791660210296385e-15 -3.3226213703986937e-16
  outer loop
    vertex -3.564221089084485 -63.76045322435419 -2.0593120794853657
    vertex -3.56422108908444 -66.62667052676771 -0.7564131326080605
    vertex -3.564221089084485 -63.38097575848628 -1.909066322040689
  endloop
endfacet
facet normal -1.0 8.791660210296385e-15 -3.3226213703986937e-16
  outer loop
    vertex -3.564221089084485 -63.38097575848628 -1.909066322040689
    vertex -3.56422108908444 -66.62667052676771 -0.7564131326080605
    vertex -3.564221089084485 -62.98565979917131 -1.8075664351316978
  endloop
endfacet
facet normal -1.0 8.791660210296385e-15 -3.3226213703986937e-16
  outer loop
    vertex -3.564221089084485 -62.98565979917131 -1.8075664351316978
    vertex -3.56422108908444 -66.62667052676771 -0.7564131326080605
    vertex -3.564221089084485 -62.58073971523797 -1.7564131326080572
  endloop
endfacet
facet normal -1.0 8.791660210296385e-15 -3.3226213703986937e-16
  outer loop
    vertex -3.5642210890845076 -66.62667052676771 -9.24358686739181
    vertex -3.5642210890845303 -65.52456580043574 -4.191757866714149
    vertex -3.5642210890845076 -65.60104330603976 -4.592666990915935
  endloop
endfacet
facet normal -1.0 8.791660210296385e-15 -3.3226213703986937e-16
  outer loop
    vertex -3.5642210890845076 -66.62667052676771 -9.24358686739181
    vertex -3.5642210890845076 -65.60104330603976 -4.592666990915935
    vertex -3.5642210890845076 -65.62667052676771 -4.99999999999993
  endloop
endfacet
facet normal -1.0 8.791660210296385e-15 -3.3226213703986937e-16
  outer loop
    vertex -3.5642210890845076 -66.62667052676771 -9.24358686739181
    vertex -3.5642210890845076 -65.62667052676771 -4.99999999999993
    vertex -3.5642210890845076 -65.60104330603976 -5.407333009083914
  endloop
endfacet
facet normal -1.0 8.791660210296385e-15 -3.3226213703986937e-16
  outer loop
    vertex -3.5642210890845076 -66.62667052676771 -9.24358686739181
    vertex -3.5642210890845076 -65.60104330603976 -5.407333009083914
    vertex -3.564221089084395 -65.52456580043574 -5.808242133285711
  endloop
endfacet
facet normal -1.0 8.791660210296385e-15 -3.3226213703986937e-16
  outer loop
    vertex -3.5642210890845076 -66.62667052676771 -9.24358686739181
    vertex -3.564221089084395 -65.52456580043574 -5.808242133285711
    vertex -3.5642210890845303 -65.3984441059045 -6.196404796225132
  endloop
endfacet
facet normal -1.0 8.791660210296385e-15 -3.3226213703986937e-16
  outer loop
    vertex -3.5642210890845076 -66.62667052676771 -9.24358686739181
    vertex -3.5642210890845303 -65.3984441059045 -6.196404796225132
    vertex -3.564221089084553 -65.22466723691024 -6.565699440830509
  endloop
endfacet
facet normal -1.0 8.791660210296385e-15 -3.3226213703986937e-16
  outer loop
    vertex -3.5642210890845076 -66.62667052676771 -9.24358686739181
    vertex -3.564221089084553 -65.22466723691024 -6.565699440830509
    vertex -3.5642210890845303 -65.00597575848627 -6.91030206995047
  endloop
endfacet
facet normal -1.0 8.791660210296385e-15 -3.3226213703986937e-16
  outer loop
    vertex -3.5642210890845076 -66.62667052676771 -9.24358686739181
    vertex -3.5642210890845303 -65.00597575848627 -6.91030206995047
    vertex -3.5642210890845303 -64.74581856588728 -7.2247780942681725
  endloop
endfacet
facet normal -1.0 8.791660210296385e-15 -3.3226213703986937e-16
  outer loop
    vertex -3.5642210890845076 -66.62667052676771 -9.24358686739181
    vertex -3.5642210890845303 -64.74581856588728 -7.2247780942681725
    vertex -3.5642210890845076 -64.44829849345093 -7.504168039021253
  endloop
endfacet
facet normal -1.0 8.791660210296385e-15 -3.3226213703986937e-16
  outer loop
    vertex -3.5642210890845076 -66.62667052676771 -9.24358686739181
    vertex -3.5642210890845076 -64.44829849345093 -7.504168039021253
    vertex -3.5642210890845076 -64.11810761044944 -7.744065757881477
  endloop
endfacet
facet normal -1.0 8.791660210296385e-15 -3.3226213703986937e-16
  outer loop
    vertex -3.5642210890845076 -66.62667052676771 -9.24358686739181
    vertex -3.5642210890845076 -64.11810761044944 -7.744065757881477
    vertex -3.5642210890845076 -63.76045322435419 -7.940687920514492
  endloop
endfacet
facet normal -1.0 8.791660210296385e-15 -3.3226213703986937e-16
  outer loop
    vertex -3.5642210890845076 -66.62667052676771 -9.24358686739181
    vertex -3.5642210890845076 -63.76045322435419 -7.940687920514492
    vertex -3.5642210890845076 -63.38097575848628 -8.090933677959177
  endloop
endfacet
facet normal -1.0 8.791660210296385e-15 -3.3226213703986937e-16
  outer loop
    vertex -3.5642210890845076 -66.62667052676771 -9.24358686739181
    vertex -3.5642210890845076 -63.38097575848628 -8.090933677959177
    vertex -3.564221089084395 -62.98565979917131 -8.192433564868171
  endloop
endfacet
facet normal -1.0 8.791660210296385e-15 -3.3226213703986937e-16
  outer loop
    vertex -3.5642210890845076 -66.62667052676771 -9.24358686739181
    vertex -3.564221089084395 -62.98565979917131 -8.192433564868171
    vertex -3.564221089084395 -62.58073971523797 -8.243586867391812
  endloop
endfacet
facet normal -1.0 8.791660210296385e-15 -3.3226213703986937e-16
  outer loop
    vertex -3.5642210890845076 -66.62667052676771 -9.24358686739181
    vertex -3.564221089084395 -62.58073971523797 -8.243586867391812
    vertex -3.564221089084485 -58.12667052676772 -9.24358686739181
  endloop
endfacet
endsolid support_camera
