solid support_camera_v2
facet normal -0.9989930665413147 -0.04486483035051569 0.0
  outer loop
    vertex 99.24827336938786 8.932506278855355 -1.973976537783528e-14
    vertex 99.64943268893474 -2.255973186038318e-14 -2.000000000000019
    vertex 99.64943268893474 -2.255973186038318e-14 -1.973976537783528e-14
  endloop
endfacet
facet normal -0.9989930665413147 -0.04486483035051569 0.0
  outer loop
    vertex 99.64943268893474 -2.255973186038318e-14 -2.000000000000019
    vertex 99.24827336938786 8.932506278855355 -1.973976537783528e-14
    vertex 99.24827336938786 8.932506278855355 -2.000000000000019
  endloop
endfacet
facet normal -0.9989930665413147 -0.04486483035051316 1.7373257982431335e-15
  outer loop
    vertex 104.22814483936416 9.380702823372522 12.999999999999977
    vertex 104.64943268893482 0.0 -2.255973186038318e-14
    vertex 104.64943268893487 0.0 12.999999999999977
  endloop
endfacet
facet normal -0.9989930665413147 -0.04486483035051316 1.7373257982431335e-15
  outer loop
    vertex 104.64943268893482 0.0 -2.255973186038318e-14
    vertex 104.22814483936416 9.380702823372522 12.999999999999977
    vertex 104.22814483936416 9.380702823372522 -2.255973186038318e-14
  endloop
endfacet
facet normal -0.706750507457906 -0.03174020188850624 0.7067505074579498
  outer loop
    vertex 99.64943268893474 -2.255973186038318e-14 -1.973976537783528e-14
    vertex 100.24424766338316 9.022145587758775 0.9999999999999798
    vertex 99.24827336938786 8.932506278855355 -1.973976537783528e-14
  endloop
endfacet
facet normal -0.706750507457906 -0.03174020188850624 0.7067505074579498
  outer loop
    vertex 100.24424766338316 9.022145587758775 0.9999999999999798
    vertex 99.64943268893474 -2.255973186038318e-14 -1.973976537783528e-14
    vertex 100.64943268893478 -2.255973186038318e-14 0.9999999999999798
  endloop
endfacet
facet normal 0.9989930665413147 0.044864830350513946 0.0
  outer loop
    vertex 101.24022195737828 9.111784896662217 11.999999999999975
    vertex 101.64943268893465 0.0 12.999999999999977
    vertex 101.64943268893465 0.0 11.999999999999975
  endloop
endfacet
facet normal 0.9989930665413147 0.044864830350513946 0.0
  outer loop
    vertex 101.64943268893465 0.0 12.999999999999977
    vertex 101.24022195737828 9.111784896662217 11.999999999999975
    vertex 101.24022195737828 9.111784896662217 12.999999999999977
  endloop
endfacet
facet normal 0.9989930665413148 0.04486483035051394 0.0
  outer loop
    vertex 101.24022195737828 9.111784896662217 -2.255973186038318e-14
    vertex 101.64943268893465 0.0 0.9999999999999742
    vertex 101.64943268893465 0.0 -2.255973186038318e-14
  endloop
endfacet
facet normal 0.9989930665413148 0.04486483035051394 0.0
  outer loop
    vertex 101.64943268893465 0.0 0.9999999999999742
    vertex 101.24022195737828 9.111784896662217 -2.255973186038318e-14
    vertex 101.24022195737828 9.111784896662217 0.9999999999999742
  endloop
endfacet
facet normal -0.7067505074579064 -0.031740201888506264 -0.7067505074579492
  outer loop
    vertex 100.24424766338312 9.022145587758775 11.999999999999975
    vertex 99.6494326889347 -2.255973186038318e-14 12.999999999999977
    vertex 99.24827336938782 8.932506278855334 12.999999999999977
  endloop
endfacet
facet normal -0.7067505074579064 -0.031740201888506264 -0.7067505074579492
  outer loop
    vertex 99.6494326889347 -2.255973186038318e-14 12.999999999999977
    vertex 100.24424766338312 9.022145587758775 11.999999999999975
    vertex 100.64943268893474 -2.255973186038318e-14 11.999999999999975
  endloop
endfacet
facet normal -0.9909497617679351 -0.13423326581765346 2.2176924199926253e-18
  outer loop
    vertex 99.10367151977088 10.000000000000004 14.99999999999997
    vertex 99.24827336938782 8.932506278855334 12.999999999999977
    vertex 99.24827336938782 8.932506278855334 14.99999999999997
  endloop
endfacet
facet normal -0.9909497617679351 -0.13423326581765346 2.2176924199926253e-18
  outer loop
    vertex 99.24827336938782 8.932506278855334 12.999999999999977
    vertex 99.10367151977088 10.000000000000004 14.99999999999997
    vertex 99.10367151977088 10.000000000000004 13.00867199999997
  endloop
endfacet
facet normal 0.9909497617679351 0.1342332658176528 2.284216223492814e-16
  outer loop
    vertex 108.89081942790035 10.000000000000004 -1.9958425295792248
    vertex 108.91752190568245 9.802754398344584 14.99999999999997
    vertex 108.91752190568245 9.802754398344584 -2.000000000000019
  endloop
endfacet
facet normal 0.9909497617679351 0.1342332658176528 2.284216223492814e-16
  outer loop
    vertex 108.91752190568245 9.802754398344584 14.99999999999997
    vertex 108.89081942790035 10.000000000000004 -1.9958425295792248
    vertex 108.89080317351267 10.000000000000004 14.99999999999997
  endloop
endfacet
facet normal 0.9989930665413146 0.04486483035051589 0.0
  outer loop
    vertex 108.91752190568245 9.802754398344584 -2.000000000000019
    vertex 109.35776411334076 0.0 14.99999999999997
    vertex 109.35776411334076 0.0 -2.000000000000019
  endloop
endfacet
facet normal 0.9989930665413146 0.04486483035051589 0.0
  outer loop
    vertex 109.35776411334076 0.0 14.99999999999997
    vertex 108.91752190568245 9.802754398344584 -2.000000000000019
    vertex 108.91752190568245 9.802754398344584 14.99999999999997
  endloop
endfacet
facet normal -0.9989930665413148 -0.04486483035051571 0.0
  outer loop
    vertex 99.24827336938782 8.932506278855334 14.99999999999997
    vertex 99.6494326889347 -2.255973186038318e-14 12.999999999999977
    vertex 99.6494326889347 -2.255973186038318e-14 14.99999999999997
  endloop
endfacet
facet normal -0.9989930665413148 -0.04486483035051571 0.0
  outer loop
    vertex 99.6494326889347 -2.255973186038318e-14 12.999999999999977
    vertex 99.24827336938782 8.932506278855334 14.99999999999997
    vertex 99.24827336938782 8.932506278855334 12.999999999999977
  endloop
endfacet
facet normal -0.9909505114980622 -0.13422773097112523 -2.6846382549533826e-07
  outer loop
    vertex 104.14425533685092 10.000000000000004 13.004335999999974
    vertex 104.22814483936416 9.380702823372522 -2.255973186038318e-14
    vertex 104.22814483936416 9.380702823372522 12.999999999999977
  endloop
endfacet
facet normal -0.9909505114980622 -0.13422773097112523 -2.6846382549533826e-07
  outer loop
    vertex 104.22814483936416 9.380702823372522 -2.255973186038318e-14
    vertex 104.14425533685092 10.000000000000004 13.004335999999974
    vertex 104.14426250756735 9.999999063045182 7.471501195510655e-12
  endloop
endfacet
facet normal 0.990949761767934 -0.13423326581766204 1.0764836976512214e-18
  outer loop
    vertex 101.24022195737828 -9.111784896662217 11.999999999999975
    vertex 101.11990504660281 -10.000000000000004 13.004335999999974
    vertex 101.11990504660281 -10.000000000000004 11.999999999999975
  endloop
endfacet
facet normal 0.990949761767934 -0.13423326581766204 1.0764836976512214e-18
  outer loop
    vertex 101.11990504660281 -10.000000000000004 13.004335999999974
    vertex 101.24022195737828 -9.111784896662217 11.999999999999975
    vertex 101.24022195737828 -9.111784896662217 12.999999999999977
  endloop
endfacet
facet normal 0.9909551928619659 -0.13419316577113688 4.737461590855402e-07
  outer loop
    vertex 108.91752190568253 -9.802754398344607 -2.000000000000019
    vertex 108.89080317351275 -10.000000000000004 14.99999999999997
    vertex 108.89081942790045 -10.000000000000004 -1.9958425295792248
  endloop
endfacet
facet normal 0.9909551928619659 -0.13419316577113688 4.737461590855402e-07
  outer loop
    vertex 108.89080317351275 -10.000000000000004 14.99999999999997
    vertex 108.91752190568253 -9.802754398344607 -2.000000000000019
    vertex 108.91752190568253 -9.802754398344607 14.99999999999997
  endloop
endfacet
facet normal -0.9909497617679349 0.13423326581765505 1.729048327451918e-18
  outer loop
    vertex 99.24827336938786 -8.932506278855344 14.99999999999997
    vertex 99.10367151977093 -10.000000000000004 13.00867199999997
    vertex 99.10367151977093 -10.000000000000004 14.99999999999997
  endloop
endfacet
facet normal -0.9909497617679349 0.13423326581765505 1.729048327451918e-18
  outer loop
    vertex 99.10367151977093 -10.000000000000004 13.00867199999997
    vertex 99.24827336938786 -8.932506278855344 14.99999999999997
    vertex 99.24827336938786 -8.932506278855344 12.999999999999977
  endloop
endfacet
facet normal -0.9989930665413147 0.0448648303505156 0.0
  outer loop
    vertex 99.64943268893474 -2.255973186038318e-14 -1.973976537783528e-14
    vertex 99.24827336938786 -8.932506278855344 -2.000000000000019
    vertex 99.24827336938786 -8.932506278855344 -1.973976537783528e-14
  endloop
endfacet
facet normal -0.9989930665413147 0.0448648303505156 0.0
  outer loop
    vertex 99.24827336938786 -8.932506278855344 -2.000000000000019
    vertex 99.64943268893474 -2.255973186038318e-14 -1.973976537783528e-14
    vertex 99.64943268893474 -2.255973186038318e-14 -2.000000000000019
  endloop
endfacet
facet normal 0.9909497617679356 -0.13423326581765038 2.821176624581534e-15
  outer loop
    vertex 101.24022195737828 -9.111784896662217 -2.255973186038318e-14
    vertex 101.11990517352201 -9.99999906304489 0.9999999999999742
    vertex 101.11990517352197 -9.999999063045182 7.47009121226938e-12
  endloop
endfacet
facet normal 0.9909497617679356 -0.13423326581765038 2.821176624581534e-15
  outer loop
    vertex 101.11990517352201 -9.99999906304489 0.9999999999999742
    vertex 101.24022195737828 -9.111784896662217 -2.255973186038318e-14
    vertex 101.24022195737828 -9.111784896662217 0.9999999999999742
  endloop
endfacet
facet normal -0.7067505074578779 0.03174020188850491 0.7067505074579777
  outer loop
    vertex 100.24424766338325 -9.022145587758798 0.9999999999999798
    vertex 99.64943268893474 -2.255973186038318e-14 -1.973976537783528e-14
    vertex 99.24827336938786 -8.932506278855344 -1.973976537783528e-14
  endloop
endfacet
facet normal -0.7067505074578779 0.03174020188850491 0.7067505074579777
  outer loop
    vertex 99.64943268893474 -2.255973186038318e-14 -1.973976537783528e-14
    vertex 100.24424766338325 -9.022145587758798 0.9999999999999798
    vertex 100.64943268893478 -2.255973186038318e-14 0.9999999999999798
  endloop
endfacet
facet normal 0.9989930665413147 -0.04486483035051509 0.0
  outer loop
    vertex 101.64943268893465 0.0 11.999999999999975
    vertex 101.24022195737828 -9.111784896662217 12.999999999999977
    vertex 101.24022195737828 -9.111784896662217 11.999999999999975
  endloop
endfacet
facet normal 0.9989930665413147 -0.04486483035051509 0.0
  outer loop
    vertex 101.24022195737828 -9.111784896662217 12.999999999999977
    vertex 101.64943268893465 0.0 11.999999999999975
    vertex 101.64943268893465 0.0 12.999999999999977
  endloop
endfacet
facet normal -0.9989930665413148 0.044864830350513064 1.7380639691077046e-15
  outer loop
    vertex 104.64943268893487 0.0 12.999999999999977
    vertex 104.22814483936416 -9.380702823372532 -2.255973186038318e-14
    vertex 104.2281448393642 -9.380702823372532 12.999999999999977
  endloop
endfacet
facet normal -0.9989930665413148 0.044864830350513064 1.7380639691077046e-15
  outer loop
    vertex 104.22814483936416 -9.380702823372532 -2.255973186038318e-14
    vertex 104.64943268893487 0.0 12.999999999999977
    vertex 104.64943268893482 0.0 -2.255973186038318e-14
  endloop
endfacet
facet normal 0.9989930665413147 -0.04486483035051509 0.0
  outer loop
    vertex 101.64943268893465 0.0 -2.255973186038318e-14
    vertex 101.24022195737828 -9.111784896662217 0.9999999999999742
    vertex 101.24022195737828 -9.111784896662217 -2.255973186038318e-14
  endloop
endfacet
facet normal 0.9989930665413147 -0.04486483035051509 0.0
  outer loop
    vertex 101.24022195737828 -9.111784896662217 0.9999999999999742
    vertex 101.64943268893465 0.0 -2.255973186038318e-14
    vertex 101.64943268893465 0.0 0.9999999999999742
  endloop
endfacet
facet normal -0.9989930665413147 0.0448648303505156 0.0
  outer loop
    vertex 99.6494326889347 -2.255973186038318e-14 14.99999999999997
    vertex 99.24827336938786 -8.932506278855344 12.999999999999977
    vertex 99.24827336938786 -8.932506278855344 14.99999999999997
  endloop
endfacet
facet normal -0.9989930665413147 0.0448648303505156 0.0
  outer loop
    vertex 99.24827336938786 -8.932506278855344 12.999999999999977
    vertex 99.6494326889347 -2.255973186038318e-14 14.99999999999997
    vertex 99.6494326889347 -2.255973186038318e-14 12.999999999999977
  endloop
endfacet
facet normal -0.00010909339428394694 -9.864545372234868e-20 -0.9999999940493156
  outer loop
    vertex 104.14425533685092 10.000000000000004 13.004335999999974
    vertex 101.24022195737828 9.111784896662217 12.999999999999977
    vertex 101.11990504660281 10.000000000000004 13.004335999999974
  endloop
endfacet
facet normal -0.00010909339428394694 -9.864545372234868e-20 -0.9999999940493156
  outer loop
    vertex 101.24022195737828 9.111784896662217 12.999999999999977
    vertex 104.14425533685092 10.000000000000004 13.004335999999974
    vertex 101.64943268893465 0.0 12.999999999999977
  endloop
endfacet
facet normal -0.00010909339428394694 -9.864545372234868e-20 -0.9999999940493156
  outer loop
    vertex 101.24022195737828 -9.111784896662217 12.999999999999977
    vertex 104.14425533685092 -10.000000000000004 13.004335999999974
    vertex 101.11990504660281 -10.000000000000004 13.004335999999974
  endloop
endfacet
facet normal -0.00010909339428394694 -9.864545372234868e-20 -0.9999999940493156
  outer loop
    vertex 104.14425533685092 -10.000000000000004 13.004335999999974
    vertex 101.24022195737828 -9.111784896662217 12.999999999999977
    vertex 101.64943268893465 0.0 12.999999999999977
  endloop
endfacet
facet normal -0.00010909339428394694 -9.864545372234868e-20 -0.9999999940493156
  outer loop
    vertex 104.14425533685092 -10.000000000000004 13.004335999999974
    vertex 101.64943268893465 0.0 12.999999999999977
    vertex 104.14425533685092 10.000000000000004 13.004335999999974
  endloop
endfacet
facet normal -0.00010909339428394694 -9.864545372234868e-20 -0.9999999940493156
  outer loop
    vertex 104.14425533685092 -10.000000000000004 13.004335999999974
    vertex 104.14425533685092 10.000000000000004 13.004335999999974
    vertex 104.22814483936416 9.380702823372522 12.999999999999977
  endloop
endfacet
facet normal -0.00010909339428394694 -9.864545372234868e-20 -0.9999999940493156
  outer loop
    vertex 104.14425533685092 -10.000000000000004 13.004335999999974
    vertex 104.22814483936416 9.380702823372522 12.999999999999977
    vertex 104.2281448393642 -9.380702823372532 12.999999999999977
  endloop
endfacet
facet normal -0.00010909339428394694 -9.864545372234868e-20 -0.9999999940493156
  outer loop
    vertex 104.2281448393642 -9.380702823372532 12.999999999999977
    vertex 104.22814483936416 9.380702823372522 12.999999999999977
    vertex 104.64943268893487 0.0 12.999999999999977
  endloop
endfacet
facet normal -0.7067505074578985 0.031740201888505834 -0.7067505074579572
  outer loop
    vertex 99.6494326889347 -2.255973186038318e-14 12.999999999999977
    vertex 100.24424766338316 -9.022145587758798 11.999999999999975
    vertex 99.24827336938786 -8.932506278855344 12.999999999999977
  endloop
endfacet
facet normal -0.7067505074578985 0.031740201888505834 -0.7067505074579572
  outer loop
    vertex 100.24424766338316 -9.022145587758798 11.999999999999975
    vertex 99.6494326889347 -2.255973186038318e-14 12.999999999999977
    vertex 100.64943268893474 -2.255973186038318e-14 11.999999999999975
  endloop
endfacet
facet normal 0.9989930665413146 -0.04486483035051576 0.0
  outer loop
    vertex 109.35776411334076 0.0 -2.000000000000019
    vertex 108.91752190568253 -9.802754398344607 14.99999999999997
    vertex 108.91752190568253 -9.802754398344607 -2.000000000000019
  endloop
endfacet
facet normal 0.9989930665413146 -0.04486483035051576 0.0
  outer loop
    vertex 108.91752190568253 -9.802754398344607 14.99999999999997
    vertex 109.35776411334076 0.0 -2.000000000000019
    vertex 109.35776411334076 0.0 14.99999999999997
  endloop
endfacet
facet normal -0.7010601679328715 -0.09496505222533615 0.706750507459155
  outer loop
    vertex 99.24827336938786 8.932506278855355 -1.973976537783528e-14
    vertex 100.11178841010614 9.999999063045182 0.999999999999977
    vertex 99.10367151977093 10.000000000000004 7.47009121226938e-12
  endloop
endfacet
facet normal -0.7010601679328715 -0.09496505222533615 0.706750507459155
  outer loop
    vertex 100.11178841010614 9.999999063045182 0.999999999999977
    vertex 99.24827336938786 8.932506278855355 -1.973976537783528e-14
    vertex 100.24424766338316 9.022145587758775 0.9999999999999798
  endloop
endfacet
facet normal -0.9909497617679349 0.13423326581765435 -8.607068796188158e-19
  outer loop
    vertex 99.24827336938786 -8.932506278855344 -1.973976537783528e-14
    vertex 99.10367151977093 -10.000000000000004 -2.0001785295792223
    vertex 99.10367151977093 -10.000000000000004 -1.973976537783528e-14
  endloop
endfacet
facet normal -0.9909497617679349 0.13423326581765435 -8.607068796188158e-19
  outer loop
    vertex 99.10367151977093 -10.000000000000004 -2.0001785295792223
    vertex 99.24827336938786 -8.932506278855344 -1.973976537783528e-14
    vertex 99.24827336938786 -8.932506278855344 -2.000000000000019
  endloop
endfacet
facet normal -0.7010601679343932 0.09496505222284435 0.7067505074579804
  outer loop
    vertex 100.11178841010623 -9.99999906304489 0.999999999999977
    vertex 99.24827336938786 -8.932506278855344 -1.973976537783528e-14
    vertex 99.10367151977093 -10.000000000000004 -1.973976537783528e-14
  endloop
endfacet
facet normal -0.7010601679343932 0.09496505222284435 0.7067505074579804
  outer loop
    vertex 99.24827336938786 -8.932506278855344 -1.973976537783528e-14
    vertex 100.11178841010623 -9.99999906304489 0.999999999999977
    vertex 100.24424766338325 -9.022145587758798 0.9999999999999798
  endloop
endfacet
facet normal -0.7028474587224431 0.09209146860504487 -0.7053542451687447
  outer loop
    vertex 99.24827336938786 -8.932506278855344 12.999999999999977
    vertex 100.11178828318698 -10.000000000000004 11.999999999999975
    vertex 99.10367151977093 -10.000000000000004 13.00867199999997
  endloop
endfacet
facet normal -0.7028474587224431 0.09209146860504487 -0.7053542451687447
  outer loop
    vertex 100.11178828318698 -10.000000000000004 11.999999999999975
    vertex 99.24827336938786 -8.932506278855344 12.999999999999977
    vertex 100.24424766338316 -9.022145587758798 11.999999999999975
  endloop
endfacet
facet normal 0.990949761767936 0.13423326581764725 -2.020568420366275e-18
  outer loop
    vertex 101.11990517352197 9.999999063045182 7.471501195510655e-12
    vertex 101.24022195737828 9.111784896662217 0.9999999999999742
    vertex 101.24022195737828 9.111784896662217 -2.255973186038318e-14
  endloop
endfacet
facet normal 0.990949761767936 0.13423326581764725 -2.020568420366275e-18
  outer loop
    vertex 101.24022195737828 9.111784896662217 0.9999999999999742
    vertex 101.11990517352197 9.999999063045182 7.471501195510655e-12
    vertex 101.11990517352197 9.999999063045182 0.9999999999999742
  endloop
endfacet
facet normal 0.0 0.0 1.0
  outer loop
    vertex 108.89080317351275 -10.000000000000004 14.99999999999997
    vertex 99.24827336938786 -8.932506278855344 14.99999999999997
    vertex 99.10367151977093 -10.000000000000004 14.99999999999997
  endloop
endfacet
facet normal 0.0 0.0 1.0
  outer loop
    vertex 99.24827336938786 -8.932506278855344 14.99999999999997
    vertex 108.89080317351275 -10.000000000000004 14.99999999999997
    vertex 99.6494326889347 -2.255973186038318e-14 14.99999999999997
  endloop
endfacet
facet normal 0.0 0.0 1.0
  outer loop
    vertex 99.6494326889347 -2.255973186038318e-14 14.99999999999997
    vertex 108.89080317351275 -10.000000000000004 14.99999999999997
    vertex 108.89080317351267 10.000000000000004 14.99999999999997
  endloop
endfacet
facet normal 0.0 0.0 1.0
  outer loop
    vertex 108.89080317351267 10.000000000000004 14.99999999999997
    vertex 108.89080317351275 -10.000000000000004 14.99999999999997
    vertex 108.91752190568245 9.802754398344584 14.99999999999997
  endloop
endfacet
facet normal 0.0 0.0 1.0
  outer loop
    vertex 108.91752190568245 9.802754398344584 14.99999999999997
    vertex 108.89080317351275 -10.000000000000004 14.99999999999997
    vertex 108.91752190568253 -9.802754398344607 14.99999999999997
  endloop
endfacet
facet normal 0.0 0.0 1.0
  outer loop
    vertex 108.91752190568245 9.802754398344584 14.99999999999997
    vertex 108.91752190568253 -9.802754398344607 14.99999999999997
    vertex 109.35776411334076 0.0 14.99999999999997
  endloop
endfacet
facet normal 0.0 0.0 1.0
  outer loop
    vertex 99.24827336938782 8.932506278855334 14.99999999999997
    vertex 108.89080317351267 10.000000000000004 14.99999999999997
    vertex 99.10367151977088 10.000000000000004 14.99999999999997
  endloop
endfacet
facet normal 0.0 0.0 1.0
  outer loop
    vertex 108.89080317351267 10.000000000000004 14.99999999999997
    vertex 99.24827336938782 8.932506278855334 14.99999999999997
    vertex 99.6494326889347 -2.255973186038318e-14 14.99999999999997
  endloop
endfacet
facet normal -1.3343357996676121e-08 0.9999999999999998 -2.015838589740093e-08
  outer loop
    vertex 99.10367151977088 10.000000000000004 13.00867199999997
    vertex 104.14425533685092 10.000000000000004 13.004335999999974
    vertex 101.11990504660281 10.000000000000004 13.004335999999974
  endloop
endfacet
facet normal -1.3343357996676121e-08 0.9999999999999998 -2.015838589740093e-08
  outer loop
    vertex 104.14426250756735 9.999999063045182 7.471501195510655e-12
    vertex 108.89081942790035 10.000000000000004 -1.9958425295792248
    vertex 104.1442715912386 10.000000000000004 -2.0001785295792223
  endloop
endfacet
facet normal -1.3343357996676121e-08 0.9999999999999998 -2.015838589740093e-08
  outer loop
    vertex 108.89081942790035 10.000000000000004 -1.9958425295792248
    vertex 104.14426250756735 9.999999063045182 7.471501195510655e-12
    vertex 108.89080317351267 10.000000000000004 14.99999999999997
  endloop
endfacet
facet normal -1.3343357996676121e-08 0.9999999999999998 -2.015838589740093e-08
  outer loop
    vertex 108.89080317351267 10.000000000000004 14.99999999999997
    vertex 104.14426250756735 9.999999063045182 7.471501195510655e-12
    vertex 104.14425533685092 10.000000000000004 13.004335999999974
  endloop
endfacet
facet normal -1.3343357996676121e-08 0.9999999999999998 -2.015838589740093e-08
  outer loop
    vertex 108.89080317351267 10.000000000000004 14.99999999999997
    vertex 104.14425533685092 10.000000000000004 13.004335999999974
    vertex 99.10367151977088 10.000000000000004 13.00867199999997
  endloop
endfacet
facet normal -1.3343357996676121e-08 0.9999999999999998 -2.015838589740093e-08
  outer loop
    vertex 108.89080317351267 10.000000000000004 14.99999999999997
    vertex 99.10367151977088 10.000000000000004 13.00867199999997
    vertex 99.10367151977088 10.000000000000004 14.99999999999997
  endloop
endfacet
facet normal -1.3343358333563579e-08 -0.9999999999999998 -2.015838593770086e-08
  outer loop
    vertex 108.89081942790045 -10.000000000000004 -1.9958425295792248
    vertex 104.14426250756745 -9.999999063045182 7.47009121226938e-12
    vertex 104.1442715912386 -10.000000000000004 -2.0001785295792223
  endloop
endfacet
facet normal -1.3343358333563579e-08 -0.9999999999999998 -2.015838593770086e-08
  outer loop
    vertex 104.14426250756745 -9.999999063045182 7.47009121226938e-12
    vertex 108.89081942790045 -10.000000000000004 -1.9958425295792248
    vertex 108.89080317351275 -10.000000000000004 14.99999999999997
  endloop
endfacet
facet normal -1.3343358333563579e-08 -0.9999999999999998 -2.015838593770086e-08
  outer loop
    vertex 104.14426250756745 -9.999999063045182 7.47009121226938e-12
    vertex 108.89080317351275 -10.000000000000004 14.99999999999997
    vertex 104.14425533685092 -10.000000000000004 13.004335999999974
  endloop
endfacet
facet normal -1.3343358333563579e-08 -0.9999999999999998 -2.015838593770086e-08
  outer loop
    vertex 104.14425533685092 -10.000000000000004 13.004335999999974
    vertex 108.89080317351275 -10.000000000000004 14.99999999999997
    vertex 101.11990504660281 -10.000000000000004 13.004335999999974
  endloop
endfacet
facet normal -1.3343358333563579e-08 -0.9999999999999998 -2.015838593770086e-08
  outer loop
    vertex 101.11990504660281 -10.000000000000004 13.004335999999974
    vertex 108.89080317351275 -10.000000000000004 14.99999999999997
    vertex 99.10367151977093 -10.000000000000004 13.00867199999997
  endloop
endfacet
facet normal -1.3343358333563579e-08 -0.9999999999999998 -2.015838593770086e-08
  outer loop
    vertex 99.10367151977093 -10.000000000000004 13.00867199999997
    vertex 108.89080317351275 -10.000000000000004 14.99999999999997
    vertex 99.10367151977093 -10.000000000000004 14.99999999999997
  endloop
endfacet
facet normal -0.9909505114980667 0.13422773097109236 -2.684638237546837e-07
  outer loop
    vertex 104.2281448393642 -9.380702823372532 12.999999999999977
    vertex 104.14426250756745 -9.999999063045182 7.47009121226938e-12
    vertex 104.14425533685092 -10.000000000000004 13.004335999999974
  endloop
endfacet
facet normal -0.9909505114980667 0.13422773097109236 -2.684638237546837e-07
  outer loop
    vertex 104.14426250756745 -9.999999063045182 7.47009121226938e-12
    vertex 104.2281448393642 -9.380702823372532 12.999999999999977
    vertex 104.22814483936416 -9.380702823372532 -2.255973186038318e-14
  endloop
endfacet
facet normal -0.7026921704594677 -0.0918677018069446 -0.7055381201180222
  outer loop
    vertex 100.11302293270565 9.999999240443273 12.0006093991914
    vertex 99.24827336938782 8.932506278855334 12.999999999999977
    vertex 99.10367151977088 10.000000000000004 13.00867199999997
  endloop
endfacet
facet normal -0.7026921704594677 -0.0918677018069446 -0.7055381201180222
  outer loop
    vertex 99.24827336938782 8.932506278855334 12.999999999999977
    vertex 100.11302293270565 9.999999240443273 12.0006093991914
    vertex 100.24424766338312 9.022145587758775 11.999999999999975
  endloop
endfacet
facet normal 0.9909497617679356 0.1342332658176503 2.422088319715275e-18
  outer loop
    vertex 101.11990504660281 10.000000000000004 11.999999999999975
    vertex 101.24022195737828 9.111784896662217 12.999999999999977
    vertex 101.24022195737828 9.111784896662217 11.999999999999975
  endloop
endfacet
facet normal 0.9909497617679356 0.1342332658176503 2.422088319715275e-18
  outer loop
    vertex 101.24022195737828 9.111784896662217 12.999999999999977
    vertex 101.11990504660281 10.000000000000004 11.999999999999975
    vertex 101.11990504660281 10.000000000000004 13.004335999999974
  endloop
endfacet
facet normal -1.5150694647397399e-07 0.9999999999998856 -4.538964482764945e-07
  outer loop
    vertex 100.11302293270565 9.999999240443273 12.0006093991914
    vertex 101.11990504660281 10.000000000000004 13.004335999999974
    vertex 101.11990504660281 10.000000000000004 11.999999999999975
  endloop
endfacet
facet normal -1.5150694647397399e-07 0.9999999999998856 -4.538964482764945e-07
  outer loop
    vertex 101.11990504660281 10.000000000000004 13.004335999999974
    vertex 100.11302293270565 9.999999240443273 12.0006093991914
    vertex 99.10367151977088 10.000000000000004 13.00867199999997
  endloop
endfacet
facet normal -0.7025805561171358 -0.09144834068393005 -0.7057037361048135
  outer loop
    vertex 100.11302293270565 9.999999240443273 12.0006093991914
    vertex 99.24827336938782 8.932506278855334 12.999999999999977
    vertex 99.10367151977088 10.000000000000004 13.00867199999997
  endloop
endfacet
facet normal -0.7025805561171358 -0.09144834068393005 -0.7057037361048135
  outer loop
    vertex 99.24827336938782 8.932506278855334 12.999999999999977
    vertex 100.11302293270565 9.999999240443273 12.0006093991914
    vertex 100.24424766338312 9.022145587758775 11.999999999999975
  endloop
endfacet
facet normal -0.7025805561171358 -0.09144834068393001 -0.7057037361048135
  outer loop
    vertex 100.11302293270565 9.999999240443273 12.0006093991914
    vertex 99.24827336938782 8.932506278855334 12.999999999999977
    vertex 99.10367151977088 10.000000000000004 13.00867199999997
  endloop
endfacet
facet normal -0.7025805561171358 -0.09144834068393001 -0.7057037361048135
  outer loop
    vertex 99.24827336938782 8.932506278855334 12.999999999999977
    vertex 100.11302293270565 9.999999240443273 12.0006093991914
    vertex 100.24424766338312 9.022145587758775 11.999999999999975
  endloop
endfacet
facet normal -0.7025805561171358 -0.09144834068393001 -0.7057037361048135
  outer loop
    vertex 100.11302293270565 9.999999240443273 12.0006093991914
    vertex 99.24827336938782 8.932506278855334 12.999999999999977
    vertex 99.10367151977088 10.000000000000004 13.00867199999997
  endloop
endfacet
facet normal -0.7025805561171358 -0.09144834068393001 -0.7057037361048135
  outer loop
    vertex 99.24827336938782 8.932506278855334 12.999999999999977
    vertex 100.11302293270565 9.999999240443273 12.0006093991914
    vertex 100.24424766338312 9.022145587758775 11.999999999999975
  endloop
endfacet
facet normal -0.00013912714010778208 8.363491153620476e-06 -0.9999999902868454
  outer loop
    vertex 101.11990504660281 10.000000000000004 11.999999999999975
    vertex 100.24424766338312 9.022145587758775 11.999999999999975
    vertex 100.11302293270565 9.999999240443273 12.0006093991914
  endloop
endfacet
facet normal -0.00013912714010778208 8.363491153620476e-06 -0.9999999902868454
  outer loop
    vertex 100.24424766338312 9.022145587758775 11.999999999999975
    vertex 101.11990504660281 10.000000000000004 11.999999999999975
    vertex 100.64943268893474 -2.255973186038318e-14 11.999999999999975
  endloop
endfacet
facet normal -0.00013912714010778208 8.363491153620476e-06 -0.9999999902868454
  outer loop
    vertex 100.24424766338316 -9.022145587758798 11.999999999999975
    vertex 101.11990504660281 -10.000000000000004 11.999999999999975
    vertex 100.11178828318698 -10.000000000000004 11.999999999999975
  endloop
endfacet
facet normal -0.00013912714010778208 8.363491153620476e-06 -0.9999999902868454
  outer loop
    vertex 101.11990504660281 -10.000000000000004 11.999999999999975
    vertex 100.24424766338316 -9.022145587758798 11.999999999999975
    vertex 100.64943268893474 -2.255973186038318e-14 11.999999999999975
  endloop
endfacet
facet normal -0.00013912714010778208 8.363491153620476e-06 -0.9999999902868454
  outer loop
    vertex 101.11990504660281 -10.000000000000004 11.999999999999975
    vertex 100.64943268893474 -2.255973186038318e-14 11.999999999999975
    vertex 101.11990504660281 10.000000000000004 11.999999999999975
  endloop
endfacet
facet normal -0.00013912714010778208 8.363491153620476e-06 -0.9999999902868454
  outer loop
    vertex 101.11990504660281 -10.000000000000004 11.999999999999975
    vertex 101.11990504660281 10.000000000000004 11.999999999999975
    vertex 101.24022195737828 9.111784896662217 11.999999999999975
  endloop
endfacet
facet normal -0.00013912714010778208 8.363491153620476e-06 -0.9999999902868454
  outer loop
    vertex 101.11990504660281 -10.000000000000004 11.999999999999975
    vertex 101.24022195737828 9.111784896662217 11.999999999999975
    vertex 101.24022195737828 -9.111784896662217 11.999999999999975
  endloop
endfacet
facet normal -0.00013912714010778208 8.363491153620476e-06 -0.9999999902868454
  outer loop
    vertex 101.24022195737828 -9.111784896662217 11.999999999999975
    vertex 101.24022195737828 9.111784896662217 11.999999999999975
    vertex 101.64943268893465 0.0 11.999999999999975
  endloop
endfacet
facet normal 0.0 -1.0 0.0
  outer loop
    vertex 101.11990504660281 -10.000000000000004 13.004335999999974
    vertex 100.11178828318698 -10.000000000000004 11.999999999999975
    vertex 101.11990504660281 -10.000000000000004 11.999999999999975
  endloop
endfacet
facet normal 0.0 -1.0 0.0
  outer loop
    vertex 100.11178828318698 -10.000000000000004 11.999999999999975
    vertex 101.11990504660281 -10.000000000000004 13.004335999999974
    vertex 99.10367151977093 -10.000000000000004 13.00867199999997
  endloop
endfacet
facet normal -0.7028474587224431 0.09209146860504487 -0.7053542451687447
  outer loop
    vertex 99.24827336938786 -8.932506278855344 12.999999999999977
    vertex 100.11178828318698 -10.000000000000004 11.999999999999975
    vertex 99.10367151977093 -10.000000000000004 13.00867199999997
  endloop
endfacet
facet normal -0.7028474587224431 0.09209146860504487 -0.7053542451687447
  outer loop
    vertex 100.11178828318698 -10.000000000000004 11.999999999999975
    vertex 99.24827336938786 -8.932506278855344 12.999999999999977
    vertex 100.24424766338316 -9.022145587758798 11.999999999999975
  endloop
endfacet
facet normal -0.7028474587224431 0.09209146860504487 -0.7053542451687447
  outer loop
    vertex 99.24827336938786 -8.932506278855344 12.999999999999977
    vertex 100.11178828318698 -10.000000000000004 11.999999999999975
    vertex 99.10367151977093 -10.000000000000004 13.00867199999997
  endloop
endfacet
facet normal -0.7028474587224431 0.09209146860504487 -0.7053542451687447
  outer loop
    vertex 100.11178828318698 -10.000000000000004 11.999999999999975
    vertex 99.24827336938786 -8.932506278855344 12.999999999999977
    vertex 100.24424766338316 -9.022145587758798 11.999999999999975
  endloop
endfacet
facet normal 1.8852902881851791e-13 -3.800266441260125e-17 1.0
  outer loop
    vertex 104.14426250756745 -9.999999063045182 7.47009121226938e-12
    vertex 101.24022195737828 -9.111784896662217 -2.255973186038318e-14
    vertex 101.11990517352197 -9.999999063045182 7.47009121226938e-12
  endloop
endfacet
facet normal 1.8852902881851791e-13 -3.800266441260125e-17 1.0
  outer loop
    vertex 101.24022195737828 -9.111784896662217 -2.255973186038318e-14
    vertex 104.14426250756745 -9.999999063045182 7.47009121226938e-12
    vertex 101.64943268893465 0.0 -2.255973186038318e-14
  endloop
endfacet
facet normal 1.8852902881851791e-13 -3.800266441260125e-17 1.0
  outer loop
    vertex 101.64943268893465 0.0 -2.255973186038318e-14
    vertex 104.14426250756745 -9.999999063045182 7.47009121226938e-12
    vertex 104.14426250756735 9.999999063045182 7.471501195510655e-12
  endloop
endfacet
facet normal 1.8852902881851791e-13 -3.800266441260125e-17 1.0
  outer loop
    vertex 104.14426250756735 9.999999063045182 7.471501195510655e-12
    vertex 104.14426250756745 -9.999999063045182 7.47009121226938e-12
    vertex 104.22814483936416 9.380702823372522 -2.255973186038318e-14
  endloop
endfacet
facet normal 1.8852902881851791e-13 -3.800266441260125e-17 1.0
  outer loop
    vertex 104.22814483936416 9.380702823372522 -2.255973186038318e-14
    vertex 104.14426250756745 -9.999999063045182 7.47009121226938e-12
    vertex 104.22814483936416 -9.380702823372532 -2.255973186038318e-14
  endloop
endfacet
facet normal 1.8852902881851791e-13 -3.800266441260125e-17 1.0
  outer loop
    vertex 104.22814483936416 9.380702823372522 -2.255973186038318e-14
    vertex 104.22814483936416 -9.380702823372532 -2.255973186038318e-14
    vertex 104.64943268893482 0.0 -2.255973186038318e-14
  endloop
endfacet
facet normal 1.8852902881851791e-13 -3.800266441260125e-17 1.0
  outer loop
    vertex 101.24022195737828 9.111784896662217 -2.255973186038318e-14
    vertex 104.14426250756735 9.999999063045182 7.471501195510655e-12
    vertex 101.11990517352197 9.999999063045182 7.471501195510655e-12
  endloop
endfacet
facet normal 1.8852902881851791e-13 -3.800266441260125e-17 1.0
  outer loop
    vertex 104.14426250756735 9.999999063045182 7.471501195510655e-12
    vertex 101.24022195737828 9.111784896662217 -2.255973186038318e-14
    vertex 101.64943268893465 0.0 -2.255973186038318e-14
  endloop
endfacet
facet normal 4.708992226890753e-24 -0.9999999999998903 4.684355961019852e-07
  outer loop
    vertex 104.14426250756745 -9.999999063045182 7.47009121226938e-12
    vertex 101.11990517352197 -10.000000000000004 -2.0001785295792223
    vertex 104.1442715912386 -10.000000000000004 -2.0001785295792223
  endloop
endfacet
facet normal 4.708992226890753e-24 -0.9999999999998903 4.684355961019852e-07
  outer loop
    vertex 101.11990517352197 -10.000000000000004 -2.0001785295792223
    vertex 104.14426250756745 -9.999999063045182 7.47009121226938e-12
    vertex 101.11990517352197 -9.999999063045182 7.47009121226938e-12
  endloop
endfacet
facet normal 2.3235273850143998e-07 -0.9999999999999456 2.3421779805188256e-07
  outer loop
    vertex 101.11990517352197 -9.999999063045182 7.47009121226938e-12
    vertex 99.10367151977093 -10.000000000000004 -2.0001785295792223
    vertex 101.11990517352197 -10.000000000000004 -2.0001785295792223
  endloop
endfacet
facet normal 2.3235273850143998e-07 -0.9999999999999456 2.3421779805188256e-07
  outer loop
    vertex 99.10367151977093 -10.000000000000004 -2.0001785295792223
    vertex 101.11990517352197 -9.999999063045182 7.47009121226938e-12
    vertex 99.10367151977093 -10.000000000000004 -1.973976537783528e-14
  endloop
endfacet
facet normal 0.00017756509656287176 2.445539613776597e-06 -0.9999999842323279
  outer loop
    vertex 101.11990517352197 10.000000000000004 -2.0001785295792223
    vertex 99.24827336938786 8.932506278855355 -2.000000000000019
    vertex 99.10367151977093 10.000000000000004 -2.0001785295792223
  endloop
endfacet
facet normal 0.00017756509656287176 2.445539613776597e-06 -0.9999999842323279
  outer loop
    vertex 99.24827336938786 8.932506278855355 -2.000000000000019
    vertex 101.11990517352197 10.000000000000004 -2.0001785295792223
    vertex 99.64943268893474 -2.255973186038318e-14 -2.000000000000019
  endloop
endfacet
facet normal 0.00017756509656287176 2.445539613776597e-06 -0.9999999842323279
  outer loop
    vertex 99.24827336938786 -8.932506278855344 -2.000000000000019
    vertex 101.11990517352197 -10.000000000000004 -2.0001785295792223
    vertex 99.10367151977093 -10.000000000000004 -2.0001785295792223
  endloop
endfacet
facet normal 0.00017756509656287176 2.445539613776597e-06 -0.9999999842323279
  outer loop
    vertex 101.11990517352197 -10.000000000000004 -2.0001785295792223
    vertex 99.24827336938786 -8.932506278855344 -2.000000000000019
    vertex 99.64943268893474 -2.255973186038318e-14 -2.000000000000019
  endloop
endfacet
facet normal 0.00017756509656287176 2.445539613776597e-06 -0.9999999842323279
  outer loop
    vertex 101.11990517352197 -10.000000000000004 -2.0001785295792223
    vertex 99.64943268893474 -2.255973186038318e-14 -2.000000000000019
    vertex 101.11990517352197 10.000000000000004 -2.0001785295792223
  endloop
endfacet
facet normal 0.00017756509656287176 2.445539613776597e-06 -0.9999999842323279
  outer loop
    vertex 101.11990517352197 -10.000000000000004 -2.0001785295792223
    vertex 101.11990517352197 10.000000000000004 -2.0001785295792223
    vertex 104.1442715912386 10.000000000000004 -2.0001785295792223
  endloop
endfacet
facet normal 0.00017756509656287176 2.445539613776597e-06 -0.9999999842323279
  outer loop
    vertex 101.11990517352197 -10.000000000000004 -2.0001785295792223
    vertex 104.1442715912386 10.000000000000004 -2.0001785295792223
    vertex 104.1442715912386 -10.000000000000004 -2.0001785295792223
  endloop
endfacet
facet normal 0.00017756509656287176 2.445539613776597e-06 -0.9999999842323279
  outer loop
    vertex 104.1442715912386 -10.000000000000004 -2.0001785295792223
    vertex 104.1442715912386 10.000000000000004 -2.0001785295792223
    vertex 108.89081942790035 10.000000000000004 -1.9958425295792248
  endloop
endfacet
facet normal 0.00017756509656287176 2.445539613776597e-06 -0.9999999842323279
  outer loop
    vertex 104.1442715912386 -10.000000000000004 -2.0001785295792223
    vertex 108.89081942790035 10.000000000000004 -1.9958425295792248
    vertex 108.89081942790045 -10.000000000000004 -1.9958425295792248
  endloop
endfacet
facet normal 0.00017756509656287176 2.445539613776597e-06 -0.9999999842323279
  outer loop
    vertex 108.89081942790045 -10.000000000000004 -1.9958425295792248
    vertex 108.89081942790035 10.000000000000004 -1.9958425295792248
    vertex 108.91752190568245 9.802754398344584 -2.000000000000019
  endloop
endfacet
facet normal 0.00017756509656287176 2.445539613776597e-06 -0.9999999842323279
  outer loop
    vertex 108.89081942790045 -10.000000000000004 -1.9958425295792248
    vertex 108.91752190568245 9.802754398344584 -2.000000000000019
    vertex 108.91752190568253 -9.802754398344607 -2.000000000000019
  endloop
endfacet
facet normal 0.00017756509656287176 2.445539613776597e-06 -0.9999999842323279
  outer loop
    vertex 108.91752190568253 -9.802754398344607 -2.000000000000019
    vertex 108.91752190568245 9.802754398344584 -2.000000000000019
    vertex 109.35776411334076 0.0 -2.000000000000019
  endloop
endfacet
facet normal 3.7176439096285616e-07 -0.9999999999998914 2.8108672189951167e-07
  outer loop
    vertex 101.11990517352197 -9.999999063045182 7.47009121226938e-12
    vertex 100.11178841010623 -9.99999906304489 0.999999999999977
    vertex 99.10367151977093 -10.000000000000004 -1.973976537783528e-14
  endloop
endfacet
facet normal 3.7176439096285616e-07 -0.9999999999998914 2.8108672189951167e-07
  outer loop
    vertex 100.11178841010623 -9.99999906304489 0.999999999999977
    vertex 101.11990517352197 -9.999999063045182 7.47009121226938e-12
    vertex 101.11990517352201 -9.99999906304489 0.9999999999999742
  endloop
endfacet
facet normal -0.9909497617679334 -0.13423326581766604 -1.075298880171947e-18
  outer loop
    vertex 99.10367151977093 10.000000000000004 7.47009121226938e-12
    vertex 99.24827336938786 8.932506278855355 -2.000000000000019
    vertex 99.24827336938786 8.932506278855355 -1.973976537783528e-14
  endloop
endfacet
facet normal -0.9909497617679334 -0.13423326581766604 -1.075298880171947e-18
  outer loop
    vertex 99.24827336938786 8.932506278855355 -2.000000000000019
    vertex 99.10367151977093 10.000000000000004 7.47009121226938e-12
    vertex 99.10367151977093 10.000000000000004 -2.0001785295792223
  endloop
endfacet
facet normal 9.215043888142038e-24 0.9999999999998903 4.684355961019849e-07
  outer loop
    vertex 101.11990517352197 9.999999063045182 7.471501195510655e-12
    vertex 104.1442715912386 10.000000000000004 -2.0001785295792223
    vertex 101.11990517352197 10.000000000000004 -2.0001785295792223
  endloop
endfacet
facet normal 9.215043888142038e-24 0.9999999999998903 4.684355961019849e-07
  outer loop
    vertex 104.1442715912386 10.000000000000004 -2.0001785295792223
    vertex 101.11990517352197 9.999999063045182 7.471501195510655e-12
    vertex 104.14426250756735 9.999999063045182 7.471501195510655e-12
  endloop
endfacet
facet normal -3.7758506269111324e-13 -1.0323795815218075e-13 1.0
  outer loop
    vertex 101.11990517352197 -9.999999063045182 7.47009121226938e-12
    vertex 99.24827336938786 -8.932506278855344 -1.973976537783528e-14
    vertex 99.10367151977093 -10.000000000000004 -1.973976537783528e-14
  endloop
endfacet
facet normal -3.7758506269111324e-13 -1.0323795815218075e-13 1.0
  outer loop
    vertex 99.24827336938786 -8.932506278855344 -1.973976537783528e-14
    vertex 101.11990517352197 -9.999999063045182 7.47009121226938e-12
    vertex 99.64943268893474 -2.255973186038318e-14 -1.973976537783528e-14
  endloop
endfacet
facet normal -3.7758506269111324e-13 -1.0323795815218075e-13 1.0
  outer loop
    vertex 99.24827336938786 8.932506278855355 -1.973976537783528e-14
    vertex 101.11990517352197 9.999999063045182 7.471501195510655e-12
    vertex 99.10367151977093 10.000000000000004 7.47009121226938e-12
  endloop
endfacet
facet normal -3.7758506269111324e-13 -1.0323795815218075e-13 1.0
  outer loop
    vertex 101.11990517352197 9.999999063045182 7.471501195510655e-12
    vertex 99.24827336938786 8.932506278855355 -1.973976537783528e-14
    vertex 99.64943268893474 -2.255973186038318e-14 -1.973976537783528e-14
  endloop
endfacet
facet normal -3.7758506269111324e-13 -1.0323795815218075e-13 1.0
  outer loop
    vertex 101.11990517352197 9.999999063045182 7.471501195510655e-12
    vertex 99.64943268893474 -2.255973186038318e-14 -1.973976537783528e-14
    vertex 101.11990517352197 -9.999999063045182 7.47009121226938e-12
  endloop
endfacet
facet normal -3.7758506269111324e-13 -1.0323795815218075e-13 1.0
  outer loop
    vertex 101.11990517352197 9.999999063045182 7.471501195510655e-12
    vertex 101.11990517352197 -9.999999063045182 7.47009121226938e-12
    vertex 101.24022195737828 -9.111784896662217 -2.255973186038318e-14
  endloop
endfacet
facet normal -3.7758506269111324e-13 -1.0323795815218075e-13 1.0
  outer loop
    vertex 101.11990517352197 9.999999063045182 7.471501195510655e-12
    vertex 101.24022195737828 -9.111784896662217 -2.255973186038318e-14
    vertex 101.24022195737828 9.111784896662217 -2.255973186038318e-14
  endloop
endfacet
facet normal -3.7758506269111324e-13 -1.0323795815218075e-13 1.0
  outer loop
    vertex 101.24022195737828 9.111784896662217 -2.255973186038318e-14
    vertex 101.24022195737828 -9.111784896662217 -2.255973186038318e-14
    vertex 101.64943268893465 0.0 -2.255973186038318e-14
  endloop
endfacet
facet normal 2.323527385018737e-07 0.9999999999999456 2.3421779805100554e-07
  outer loop
    vertex 99.10367151977093 10.000000000000004 7.47009121226938e-12
    vertex 101.11990517352197 10.000000000000004 -2.0001785295792223
    vertex 99.10367151977093 10.000000000000004 -2.0001785295792223
  endloop
endfacet
facet normal 2.323527385018737e-07 0.9999999999999456 2.3421779805100554e-07
  outer loop
    vertex 101.11990517352197 10.000000000000004 -2.0001785295792223
    vertex 99.10367151977093 10.000000000000004 7.47009121226938e-12
    vertex 101.11990517352197 9.999999063045182 7.471501195510655e-12
  endloop
endfacet
facet normal 3.590938677383233e-15 1.1948773984804945e-29 1.0
  outer loop
    vertex 101.11990517352201 -9.99999906304489 0.9999999999999742
    vertex 100.24424766338325 -9.022145587758798 0.9999999999999798
    vertex 100.11178841010623 -9.99999906304489 0.999999999999977
  endloop
endfacet
facet normal 3.590938677383233e-15 1.1948773984804945e-29 1.0
  outer loop
    vertex 100.24424766338325 -9.022145587758798 0.9999999999999798
    vertex 101.11990517352201 -9.99999906304489 0.9999999999999742
    vertex 100.64943268893478 -2.255973186038318e-14 0.9999999999999798
  endloop
endfacet
facet normal 3.590938677383233e-15 1.1948773984804945e-29 1.0
  outer loop
    vertex 100.64943268893478 -2.255973186038318e-14 0.9999999999999798
    vertex 101.11990517352201 -9.99999906304489 0.9999999999999742
    vertex 101.11990517352197 9.999999063045182 0.9999999999999742
  endloop
endfacet
facet normal 3.590938677383233e-15 1.1948773984804945e-29 1.0
  outer loop
    vertex 101.11990517352197 9.999999063045182 0.9999999999999742
    vertex 101.11990517352201 -9.99999906304489 0.9999999999999742
    vertex 101.24022195737828 9.111784896662217 0.9999999999999742
  endloop
endfacet
facet normal 3.590938677383233e-15 1.1948773984804945e-29 1.0
  outer loop
    vertex 101.24022195737828 9.111784896662217 0.9999999999999742
    vertex 101.11990517352201 -9.99999906304489 0.9999999999999742
    vertex 101.24022195737828 -9.111784896662217 0.9999999999999742
  endloop
endfacet
facet normal 3.590938677383233e-15 1.1948773984804945e-29 1.0
  outer loop
    vertex 101.24022195737828 9.111784896662217 0.9999999999999742
    vertex 101.24022195737828 -9.111784896662217 0.9999999999999742
    vertex 101.64943268893465 0.0 0.9999999999999742
  endloop
endfacet
facet normal 3.590938677383233e-15 1.1948773984804945e-29 1.0
  outer loop
    vertex 100.24424766338316 9.022145587758775 0.9999999999999798
    vertex 101.11990517352197 9.999999063045182 0.9999999999999742
    vertex 100.11178841010614 9.999999063045182 0.999999999999977
  endloop
endfacet
facet normal 3.590938677383233e-15 1.1948773984804945e-29 1.0
  outer loop
    vertex 101.11990517352197 9.999999063045182 0.9999999999999742
    vertex 100.24424766338316 9.022145587758775 0.9999999999999798
    vertex 100.64943268893478 -2.255973186038318e-14 0.9999999999999798
  endloop
endfacet
facet normal 3.7176439096381585e-07 0.9999999999998914 2.810864300328753e-07
  outer loop
    vertex 100.11178841010614 9.999999063045182 0.999999999999977
    vertex 101.11990517352197 9.999999063045182 7.471501195510655e-12
    vertex 99.10367151977093 10.000000000000004 7.47009121226938e-12
  endloop
endfacet
facet normal 3.7176439096381585e-07 0.9999999999998914 2.810864300328753e-07
  outer loop
    vertex 101.11990517352197 9.999999063045182 7.471501195510655e-12
    vertex 100.11178841010614 9.999999063045182 0.999999999999977
    vertex 101.11990517352197 9.999999063045182 0.9999999999999742
  endloop
endfacet
endsolid support_camera_v2
