solid support_camera
facet normal -1.0 2.7998149267174014e-15 1.2982280662718366e-14
  outer loop
    vertex -123.40419876132246 -62.75564068794555 -2.197076237758333
    vertex -123.40419876132253 -61.9977003655893 -7.802923762241402
    vertex -123.40419876132253 -65.17959428900888 -5.378970161178556
  endloop
endfacet
facet normal -1.0 2.7998149267174014e-15 1.2982280662718366e-14
  outer loop
    vertex -123.40419876132253 -61.9977003655893 -7.802923762241402
    vertex -123.40419876132246 -62.75564068794555 -2.197076237758333
    vertex -123.4041987613225 -59.57374676452596 -4.621029838821181
  endloop
endfacet
facet normal 2.819966482547881e-16 0.7954734808548954 -0.6059884002657114
  outer loop
    vertex -123.40419876132253 -61.9977003655893 -7.802923762241402
    vertex -118.40419876132245 -59.57374676452598 -4.6210298388212045
    vertex -118.40419876132249 -61.99770036558931 -7.802923762241426
  endloop
endfacet
facet normal 2.819966482547881e-16 0.7954734808548954 -0.6059884002657114
  outer loop
    vertex -118.40419876132245 -59.57374676452598 -4.6210298388212045
    vertex -123.40419876132253 -61.9977003655893 -7.802923762241402
    vertex -123.4041987613225 -59.57374676452596 -4.621029838821181
  endloop
endfacet
facet normal -6.348532810562803e-15 -0.6059884002657117 -0.7954734808548956
  outer loop
    vertex -123.40419876132253 -61.9977003655893 -7.802923762241402
    vertex -118.40419876132249 -65.1795942890089 -5.378970161178581
    vertex -123.40419876132253 -65.17959428900888 -5.378970161178556
  endloop
endfacet
facet normal -6.348532810562803e-15 -0.6059884002657117 -0.7954734808548956
  outer loop
    vertex -118.40419876132249 -65.1795942890089 -5.378970161178581
    vertex -123.40419876132253 -61.9977003655893 -7.802923762241402
    vertex -118.40419876132249 -61.99770036558931 -7.802923762241426
  endloop
endfacet
facet normal 6.524780715722045e-15 0.6059884002657117 0.7954734808548956
  outer loop
    vertex -118.40419876132245 -59.57374676452598 -4.6210298388212045
    vertex -123.40419876132246 -62.75564068794555 -2.197076237758333
    vertex -118.40419876132245 -62.75564068794556 -2.1970762377583584
  endloop
endfacet
facet normal 6.524780715722045e-15 0.6059884002657117 0.7954734808548956
  outer loop
    vertex -123.40419876132246 -62.75564068794555 -2.197076237758333
    vertex -118.40419876132245 -59.57374676452598 -4.6210298388212045
    vertex -123.4041987613225 -59.57374676452596 -4.621029838821181
  endloop
endfacet
facet normal 1.7624790515924147e-16 -0.7954734808548958 0.6059884002657114
  outer loop
    vertex -123.40419876132246 -62.75564068794555 -2.197076237758333
    vertex -118.40419876132249 -65.1795942890089 -5.378970161178581
    vertex -118.40419876132245 -62.75564068794556 -2.1970762377583584
  endloop
endfacet
facet normal 1.7624790515924147e-16 -0.7954734808548958 0.6059884002657114
  outer loop
    vertex -118.40419876132249 -65.1795942890089 -5.378970161178581
    vertex -123.40419876132246 -62.75564068794555 -2.197076237758333
    vertex -123.40419876132253 -65.17959428900888 -5.378970161178556
  endloop
endfacet
facet normal 1.0 -2.8376703530228568e-15 -1.2702295891392398e-14
  outer loop
    vertex -118.40419876132253 -61.60527214730364 -7.899128237963992
    vertex -118.40419876132249 -61.99770036558931 -7.802923762241426
    vertex -118.40419876132256 -61.974711970512864 -7.9729495991444805
  endloop
endfacet
facet normal 1.0 -2.8376703530228568e-15 -1.2702295891392398e-14
  outer loop
    vertex -118.40419876132249 -61.99770036558931 -7.802923762241426
    vertex -118.40419876132253 -61.60527214730364 -7.899128237963992
    vertex -118.40419876132245 -59.57374676452598 -4.6210298388212045
  endloop
endfacet
facet normal 1.0 -2.8376703530228568e-15 -1.2702295891392398e-14
  outer loop
    vertex -118.40419876132245 -59.57374676452598 -4.6210298388212045
    vertex -118.40419876132253 -61.60527214730364 -7.899128237963992
    vertex -118.40419876132253 -61.24799773734963 -7.7795858926155566
  endloop
endfacet
facet normal 1.0 -2.8376703530228568e-15 -1.2702295891392398e-14
  outer loop
    vertex -118.40419876132245 -59.57374676452598 -4.6210298388212045
    vertex -118.40419876132253 -61.24799773734963 -7.7795858926155566
    vertex -118.40419876132253 -60.90852317152117 -7.616207817296444
  endloop
endfacet
facet normal 1.0 -2.8376703530228568e-15 -1.2702295891392398e-14
  outer loop
    vertex -118.40419876132245 -59.57374676452598 -4.6210298388212045
    vertex -118.40419876132253 -60.90852317152117 -7.616207817296444
    vertex -118.40419876132253 -60.59220216651366 -7.411570581851765
  endloop
endfacet
facet normal 1.0 -2.8376703530228568e-15 -1.2702295891392398e-14
  outer loop
    vertex -118.40419876132245 -59.57374676452598 -4.6210298388212045
    vertex -118.40419876132253 -60.59220216651366 -7.411570581851765
    vertex -118.40419876132253 -60.304023293537085 -7.1689014377288425
  endloop
endfacet
facet normal 1.0 -2.8376703530228568e-15 -1.2702295891392398e-14
  outer loop
    vertex -118.40419876132245 -59.57374676452598 -4.6210298388212045
    vertex -118.40419876132253 -60.304023293537085 -7.1689014377288425
    vertex -118.40419876132253 -60.04853130556799 -6.892027422294025
  endloop
endfacet
facet normal 1.0 -2.8376703530228568e-15 -1.2702295891392398e-14
  outer loop
    vertex -118.40419876132245 -59.57374676452598 -4.6210298388212045
    vertex -118.40419876132253 -60.04853130556799 -6.892027422294025
    vertex -118.40419876132253 -59.829755463880176 -6.585315004167229
  endloop
endfacet
facet normal 1.0 -2.8376703530228568e-15 -1.2702295891392398e-14
  outer loop
    vertex -118.40419876132245 -59.57374676452598 -4.6210298388212045
    vertex -118.40419876132253 -59.829755463880176 -6.585315004167229
    vertex -118.40419876132253 -59.6511459941874 -6.2536012214034375
  endloop
endfacet
facet normal 1.0 -2.8376703530228568e-15 -1.2702295891392398e-14
  outer loop
    vertex -118.40419876132245 -59.57374676452598 -4.6210298388212045
    vertex -118.40419876132253 -59.6511459941874 -6.2536012214034375
    vertex -118.40419876132253 -59.51551967452284 -5.902117398513035
  endloop
endfacet
facet normal 1.0 -2.8376703530228568e-15 -1.2702295891392398e-14
  outer loop
    vertex -118.40419876132245 -59.57374676452598 -4.6210298388212045
    vertex -118.40419876132253 -59.51551967452284 -5.902117398513035
    vertex -118.40419876132253 -59.42501541296687 -5.536406645349275
  endloop
endfacet
facet normal 1.0 -2.8376703530228568e-15 -1.2702295891392398e-14
  outer loop
    vertex -118.40419876132245 -59.57374676452598 -4.6210298388212045
    vertex -118.40419876132253 -59.42501541296687 -5.536406645349275
    vertex -118.40419876132249 -59.38106051578882 -5.162236438954558
  endloop
endfacet
facet normal 1.0 -2.8376703530228568e-15 -1.2702295891392398e-14
  outer loop
    vertex -118.40419876132245 -59.57374676452598 -4.6210298388212045
    vertex -118.40419876132249 -59.38106051578882 -5.162236438954558
    vertex -118.40419876132249 -59.38434817797458 -4.785507667002169
  endloop
endfacet
facet normal 1.0 -2.8376703530228568e-15 -1.2702295891392398e-14
  outer loop
    vertex -118.40419876132245 -59.57374676452598 -4.6210298388212045
    vertex -118.40419876132249 -59.38434817797458 -4.785507667002169
    vertex -118.40419876132249 -59.43482655112754 -4.412161567272676
  endloop
endfacet
facet normal 1.0 -2.8376703530228568e-15 -1.2702295891392398e-14
  outer loop
    vertex -118.40419876132245 -59.57374676452598 -4.6210298388212045
    vertex -118.40419876132249 -59.43482655112754 -4.412161567272676
    vertex -118.40419876132245 -62.75564068794556 -2.1970762377583584
  endloop
endfacet
facet normal 1.0 -2.8376703530228568e-15 -1.2702295891392398e-14
  outer loop
    vertex -118.40419876132245 -62.75564068794556 -2.1970762377583584
    vertex -118.40419876132249 -59.43482655112754 -4.412161567272676
    vertex -118.40419876132246 -62.77862908302202 -2.0270504008553796
  endloop
endfacet
facet normal 1.0 -2.8376703530228568e-15 -1.2702295891392398e-14
  outer loop
    vertex -118.40419876132246 -62.77862908302202 -2.0270504008553796
    vertex -118.40419876132249 -59.43482655112754 -4.412161567272676
    vertex -118.40419876132246 -62.402850133262255 -2.0001142308074082
  endloop
endfacet
facet normal 1.0 -2.8376703530228568e-15 -1.2702295891392398e-14
  outer loop
    vertex -118.40419876132246 -62.402850133262255 -2.0001142308074082
    vertex -118.40419876132249 -59.43482655112754 -4.412161567272676
    vertex -118.40419876132249 -59.53169956114874 -4.048086030784935
  endloop
endfacet
facet normal 1.0 -2.8376703530228568e-15 -1.2702295891392398e-14
  outer loop
    vertex -118.40419876132246 -62.402850133262255 -2.0001142308074082
    vertex -118.40419876132249 -59.53169956114874 -4.048086030784935
    vertex -118.40419876132246 -62.026658315469135 -2.020488051384508
  endloop
endfacet
facet normal 1.0 -2.8376703530228568e-15 -1.2702295891392398e-14
  outer loop
    vertex -118.40419876132246 -62.026658315469135 -2.020488051384508
    vertex -118.40419876132249 -59.53169956114874 -4.048086030784935
    vertex -118.40419876132249 -59.67343946280103 -3.699022746237573
  endloop
endfacet
facet normal 1.0 -2.8376703530228568e-15 -1.2702295891392398e-14
  outer loop
    vertex -118.40419876132246 -62.026658315469135 -2.020488051384508
    vertex -118.40419876132249 -59.67343946280103 -3.699022746237573
    vertex -118.40419876132246 -61.65598639933535 -2.087850555265429
  endloop
endfacet
facet normal 1.0 -2.8376703530228568e-15 -1.2702295891392398e-14
  outer loop
    vertex -118.40419876132246 -61.65598639933535 -2.087850555265429
    vertex -118.40419876132249 -59.67343946280103 -3.699022746237573
    vertex -118.40419876132249 -59.85781093316403 -3.3704766501481753
  endloop
endfacet
facet normal 1.0 -2.8376703530228568e-15 -1.2702295891392398e-14
  outer loop
    vertex -118.40419876132246 -61.65598639933535 -2.087850555265429
    vertex -118.40419876132249 -59.85781093316403 -3.3704766501481753
    vertex -118.40419876132246 -61.296680102407 -2.201139395523574
  endloop
endfacet
facet normal 1.0 -2.8376703530228568e-15 -1.2702295891392398e-14
  outer loop
    vertex -118.40419876132246 -61.296680102407 -2.201139395523574
    vertex -118.40419876132249 -59.85781093316403 -3.3704766501481753
    vertex -118.40419876132249 -60.08190632401195 -3.0676291107160014
  endloop
endfacet
facet normal 1.0 -2.8376703530228568e-15 -1.2702295891392398e-14
  outer loop
    vertex -118.40419876132246 -61.296680102407 -2.201139395523574
    vertex -118.40419876132249 -60.08190632401195 -3.0676291107160014
    vertex -118.40419876132246 -60.95440589962582 -2.3585679394725845
  endloop
endfacet
facet normal 1.0 -2.8376703530228568e-15 -1.2702295891392398e-14
  outer loop
    vertex -118.40419876132246 -60.95440589962582 -2.3585679394725845
    vertex -118.40419876132249 -60.08190632401195 -3.0676291107160014
    vertex -118.40419876132249 -60.342191517162995 -2.7952562145502564
  endloop
endfacet
facet normal 1.0 -2.8376703530228568e-15 -1.2702295891392398e-14
  outer loop
    vertex -118.40419876132246 -60.95440589962582 -2.3585679394725845
    vertex -118.40419876132249 -60.342191517162995 -2.7952562145502564
    vertex -118.40419876132249 -60.63456165963437 -2.5576534449311503
  endloop
endfacet
facet normal 1.0 -2.8376703530228568e-15 -1.2702295891392398e-14
  outer loop
    vertex -118.40419876132256 -63.79893515390905 -7.641432060527272
    vertex -118.40419876132256 -64.41114953637187 -7.204743785449599
    vertex -118.40419876132256 -64.1187793939005 -7.442346555068713
  endloop
endfacet
facet normal 1.0 -2.8376703530228568e-15 -1.2702295891392398e-14
  outer loop
    vertex -118.40419876132256 -64.41114953637187 -7.204743785449599
    vertex -118.40419876132256 -63.79893515390905 -7.641432060527272
    vertex -118.40419876132256 -64.67143472952293 -6.9323708892838525
  endloop
endfacet
facet normal 1.0 -2.8376703530228568e-15 -1.2702295891392398e-14
  outer loop
    vertex -118.40419876132256 -64.67143472952293 -6.9323708892838525
    vertex -118.40419876132256 -63.79893515390905 -7.641432060527272
    vertex -118.40419876132256 -63.45666095112787 -7.79886060447629
  endloop
endfacet
facet normal 1.0 -2.8376703530228568e-15 -1.2702295891392398e-14
  outer loop
    vertex -118.40419876132256 -64.67143472952293 -6.9323708892838525
    vertex -118.40419876132256 -63.45666095112787 -7.79886060447629
    vertex -118.40419876132253 -64.89553012037084 -6.629523349851688
  endloop
endfacet
facet normal 1.0 -2.8376703530228568e-15 -1.2702295891392398e-14
  outer loop
    vertex -118.40419876132253 -64.89553012037084 -6.629523349851688
    vertex -118.40419876132256 -63.45666095112787 -7.79886060447629
    vertex -118.40419876132253 -63.09735465419951 -7.912149444734425
  endloop
endfacet
facet normal 1.0 -2.8376703530228568e-15 -1.2702295891392398e-14
  outer loop
    vertex -118.40419876132253 -64.89553012037084 -6.629523349851688
    vertex -118.40419876132253 -63.09735465419951 -7.912149444734425
    vertex -118.40419876132253 -65.07990159073384 -6.300977253762291
  endloop
endfacet
facet normal 1.0 -2.8376703530228568e-15 -1.2702295891392398e-14
  outer loop
    vertex -118.40419876132253 -65.07990159073384 -6.300977253762291
    vertex -118.40419876132253 -63.09735465419951 -7.912149444734425
    vertex -118.40419876132256 -62.72668273806574 -7.9795119486153565
  endloop
endfacet
facet normal 1.0 -2.8376703530228568e-15 -1.2702295891392398e-14
  outer loop
    vertex -118.40419876132253 -65.07990159073384 -6.300977253762291
    vertex -118.40419876132256 -62.72668273806574 -7.9795119486153565
    vertex -118.40419876132253 -65.22164149238613 -5.9519139692149166
  endloop
endfacet
facet normal 1.0 -2.8376703530228568e-15 -1.2702295891392398e-14
  outer loop
    vertex -118.40419876132253 -65.22164149238613 -5.9519139692149166
    vertex -118.40419876132256 -62.72668273806574 -7.9795119486153565
    vertex -118.40419876132256 -62.35049092027262 -7.999885769192444
  endloop
endfacet
facet normal 1.0 -2.8376703530228568e-15 -1.2702295891392398e-14
  outer loop
    vertex -118.40419876132253 -65.22164149238613 -5.9519139692149166
    vertex -118.40419876132256 -62.35049092027262 -7.999885769192444
    vertex -118.40419876132253 -65.31851450240733 -5.587838432727184
  endloop
endfacet
facet normal 1.0 -2.8376703530228568e-15 -1.2702295891392398e-14
  outer loop
    vertex -118.40419876132253 -65.31851450240733 -5.587838432727184
    vertex -118.40419876132256 -62.35049092027262 -7.999885769192444
    vertex -118.40419876132256 -61.974711970512864 -7.9729495991444805
  endloop
endfacet
facet normal 1.0 -2.8376703530228568e-15 -1.2702295891392398e-14
  outer loop
    vertex -118.40419876132253 -65.31851450240733 -5.587838432727184
    vertex -118.40419876132256 -61.974711970512864 -7.9729495991444805
    vertex -118.40419876132249 -65.1795942890089 -5.378970161178581
  endloop
endfacet
facet normal 1.0 -2.8376703530228568e-15 -1.2702295891392398e-14
  outer loop
    vertex -118.40419876132253 -65.31851450240733 -5.587838432727184
    vertex -118.40419876132249 -65.1795942890089 -5.378970161178581
    vertex -118.40419876132253 -65.3689928755603 -5.214492332997683
  endloop
endfacet
facet normal 1.0 -2.8376703530228568e-15 -1.2702295891392398e-14
  outer loop
    vertex -118.40419876132249 -65.1795942890089 -5.378970161178581
    vertex -118.40419876132256 -61.974711970512864 -7.9729495991444805
    vertex -118.40419876132249 -61.99770036558931 -7.802923762241426
  endloop
endfacet
facet normal 1.0 -2.8376703530228568e-15 -1.2702295891392398e-14
  outer loop
    vertex -118.40419876132253 -65.3689928755603 -5.214492332997683
    vertex -118.40419876132249 -65.1795942890089 -5.378970161178581
    vertex -118.40419876132245 -62.75564068794556 -2.1970762377583584
  endloop
endfacet
facet normal 1.0 -2.8376703530228568e-15 -1.2702295891392398e-14
  outer loop
    vertex -118.40419876132253 -65.3689928755603 -5.214492332997683
    vertex -118.40419876132245 -62.75564068794556 -2.1970762377583584
    vertex -118.40419876132252 -65.37228053774605 -4.837763561045302
  endloop
endfacet
facet normal 1.0 -2.8376703530228568e-15 -1.2702295891392398e-14
  outer loop
    vertex -118.40419876132252 -65.37228053774605 -4.837763561045302
    vertex -118.40419876132245 -62.75564068794556 -2.1970762377583584
    vertex -118.40419876132252 -65.32832564056801 -4.463593354650585
  endloop
endfacet
facet normal 1.0 -2.8376703530228568e-15 -1.2702295891392398e-14
  outer loop
    vertex -118.40419876132252 -65.32832564056801 -4.463593354650585
    vertex -118.40419876132245 -62.75564068794556 -2.1970762377583584
    vertex -118.40419876132252 -65.23782137901203 -4.097882601486826
  endloop
endfacet
facet normal 1.0 -2.8376703530228568e-15 -1.2702295891392398e-14
  outer loop
    vertex -118.40419876132252 -65.23782137901203 -4.097882601486826
    vertex -118.40419876132245 -62.75564068794556 -2.1970762377583584
    vertex -118.40419876132252 -65.10219505934747 -3.7463987785964235
  endloop
endfacet
facet normal 1.0 -2.8376703530228568e-15 -1.2702295891392398e-14
  outer loop
    vertex -118.40419876132252 -65.10219505934747 -3.7463987785964235
    vertex -118.40419876132245 -62.75564068794556 -2.1970762377583584
    vertex -118.40419876132252 -64.9235855896547 -3.4146849958326317
  endloop
endfacet
facet normal 1.0 -2.8376703530228568e-15 -1.2702295891392398e-14
  outer loop
    vertex -118.40419876132252 -64.9235855896547 -3.4146849958326317
    vertex -118.40419876132245 -62.75564068794556 -2.1970762377583584
    vertex -118.40419876132252 -64.70480974796688 -3.107972577705836
  endloop
endfacet
facet normal 1.0 -2.8376703530228568e-15 -1.2702295891392398e-14
  outer loop
    vertex -118.40419876132252 -64.70480974796688 -3.107972577705836
    vertex -118.40419876132245 -62.75564068794556 -2.1970762377583584
    vertex -118.40419876132249 -64.4493177599978 -2.8310985622710185
  endloop
endfacet
facet normal 1.0 -2.8376703530228568e-15 -1.2702295891392398e-14
  outer loop
    vertex -118.40419876132249 -64.4493177599978 -2.8310985622710185
    vertex -118.40419876132245 -62.75564068794556 -2.1970762377583584
    vertex -118.40419876132246 -64.16113888702121 -2.5884294181480945
  endloop
endfacet
facet normal 1.0 -2.8376703530228568e-15 -1.2702295891392398e-14
  outer loop
    vertex -118.40419876132246 -64.16113888702121 -2.5884294181480945
    vertex -118.40419876132245 -62.75564068794556 -2.1970762377583584
    vertex -118.40419876132249 -63.844817882013714 -2.3837921827034174
  endloop
endfacet
facet normal 1.0 -2.8376703530228568e-15 -1.2702295891392398e-14
  outer loop
    vertex -118.40419876132249 -63.844817882013714 -2.3837921827034174
    vertex -118.40419876132245 -62.75564068794556 -2.1970762377583584
    vertex -118.40419876132249 -63.505343316185254 -2.2204141073843036
  endloop
endfacet
facet normal 1.0 -2.8376703530228568e-15 -1.2702295891392398e-14
  outer loop
    vertex -118.40419876132249 -63.505343316185254 -2.2204141073843036
    vertex -118.40419876132245 -62.75564068794556 -2.1970762377583584
    vertex -118.40419876132246 -63.14806890623124 -2.1008717620358595
  endloop
endfacet
facet normal 1.0 -2.8376703530228568e-15 -1.2702295891392398e-14
  outer loop
    vertex -118.40419876132246 -63.14806890623124 -2.1008717620358595
    vertex -118.40419876132245 -62.75564068794556 -2.1970762377583584
    vertex -118.40419876132246 -62.77862908302202 -2.0270504008553796
  endloop
endfacet
facet normal -1.1145481652879758e-14 0.3173046564049964 -0.9483236552062313
  outer loop
    vertex -124.40419876132252 -61.60527214730363 -7.899128237963925
    vertex -118.40419876132253 -61.24799773734963 -7.7795858926155566
    vertex -118.40419876132253 -61.60527214730364 -7.899128237963992
  endloop
endfacet
facet normal -1.1145481652879758e-14 0.3173046564049964 -0.9483236552062313
  outer loop
    vertex -118.40419876132253 -61.24799773734963 -7.7795858926155566
    vertex -124.40419876132252 -61.60527214730363 -7.899128237963925
    vertex -124.40419876132252 -61.24799773734961 -7.779585892615482
  endloop
endfacet
facet normal -1.0215165418115409e-14 0.4336590845874525 -0.9010770213221357
  outer loop
    vertex -124.40419876132252 -61.24799773734961 -7.779585892615482
    vertex -118.40419876132253 -60.90852317152117 -7.616207817296444
    vertex -118.40419876132253 -61.24799773734963 -7.7795858926155566
  endloop
endfacet
facet normal -1.0215165418115409e-14 0.4336590845874525 -0.9010770213221357
  outer loop
    vertex -118.40419876132253 -60.90852317152117 -7.616207817296444
    vertex -124.40419876132252 -61.24799773734961 -7.779585892615482
    vertex -124.40419876132252 -60.908523171521146 -7.616207817296368
  endloop
endfacet
facet normal -9.123749922463327e-15 0.5431744499505861 -0.8396198645344679
  outer loop
    vertex -124.40419876132252 -60.908523171521146 -7.616207817296368
    vertex -118.40419876132253 -60.59220216651366 -7.411570581851765
    vertex -118.40419876132253 -60.90852317152117 -7.616207817296444
  endloop
endfacet
facet normal -9.123749922463327e-15 0.5431744499505861 -0.8396198645344679
  outer loop
    vertex -118.40419876132253 -60.59220216651366 -7.411570581851765
    vertex -124.40419876132252 -60.908523171521146 -7.616207817296368
    vertex -124.40419876132252 -60.59220216651364 -7.411570581851691
  endloop
endfacet
facet normal -7.888447440269996e-15 0.644123629761309 -0.764921400918497
  outer loop
    vertex -124.40419876132252 -60.59220216651364 -7.411570581851691
    vertex -118.40419876132253 -60.304023293537085 -7.1689014377288425
    vertex -118.40419876132253 -60.59220216651366 -7.411570581851765
  endloop
endfacet
facet normal -7.888447440269996e-15 0.644123629761309 -0.764921400918497
  outer loop
    vertex -118.40419876132253 -60.304023293537085 -7.1689014377288425
    vertex -124.40419876132252 -60.59220216651364 -7.411570581851691
    vertex -124.40419876132252 -60.304023293537064 -7.168901437728767
  endloop
endfacet
facet normal -6.5287394296135116e-15 0.7349145951498914 -0.678159669868145
  outer loop
    vertex -124.40419876132252 -60.304023293537064 -7.168901437728767
    vertex -118.40419876132253 -60.04853130556799 -6.892027422294025
    vertex -118.40419876132253 -60.304023293537085 -7.1689014377288425
  endloop
endfacet
facet normal -6.5287394296135116e-15 0.7349145951498914 -0.678159669868145
  outer loop
    vertex -118.40419876132253 -60.04853130556799 -6.892027422294025
    vertex -124.40419876132252 -60.304023293537064 -7.168901437728767
    vertex -124.4041987613225 -60.04853130556797 -6.892027422293949
  endloop
endfacet
facet normal -5.066069298072117e-15 0.8141155183562613 -0.5807029557110212
  outer loop
    vertex -124.4041987613225 -60.04853130556797 -6.892027422293949
    vertex -118.40419876132253 -59.829755463880176 -6.585315004167229
    vertex -118.40419876132253 -60.04853130556799 -6.892027422294025
  endloop
endfacet
facet normal -5.066069298072117e-15 0.8141155183562613 -0.5807029557110212
  outer loop
    vertex -118.40419876132253 -59.829755463880176 -6.585315004167229
    vertex -124.4041987613225 -60.04853130556797 -6.892027422293949
    vertex -124.4041987613225 -59.82975546388015 -6.585315004167152
  endloop
endfacet
facet normal -3.523504227377049e-15 0.8804773535091142 -0.4740882090472052
  outer loop
    vertex -124.4041987613225 -59.82975546388015 -6.585315004167152
    vertex -118.40419876132253 -59.6511459941874 -6.2536012214034375
    vertex -118.40419876132253 -59.829755463880176 -6.585315004167229
  endloop
endfacet
facet normal -3.523504227377049e-15 0.8804773535091142 -0.4740882090472052
  outer loop
    vertex -118.40419876132253 -59.6511459941874 -6.2536012214034375
    vertex -124.4041987613225 -59.82975546388015 -6.585315004167152
    vertex -124.4041987613225 -59.65114599418738 -6.253601221403361
  endloop
endfacet
facet normal -1.9253713901768402e-15 0.9329535348254525 -0.35999680812014623
  outer loop
    vertex -124.4041987613225 -59.65114599418738 -6.253601221403361
    vertex -118.40419876132253 -59.51551967452284 -5.902117398513035
    vertex -118.40419876132253 -59.6511459941874 -6.2536012214034375
  endloop
endfacet
facet normal -1.9253713901768402e-15 0.9329535348254525 -0.35999680812014623
  outer loop
    vertex -118.40419876132253 -59.51551967452284 -5.902117398513035
    vertex -124.4041987613225 -59.65114599418738 -6.253601221403361
    vertex -124.4041987613225 -59.51551967452283 -5.902117398512968
  endloop
endfacet
facet normal -2.9687429599239924e-16 0.9707164815781666 -0.24022804247736135
  outer loop
    vertex -124.4041987613225 -59.51551967452283 -5.902117398512968
    vertex -118.40419876132253 -59.42501541296687 -5.536406645349275
    vertex -118.40419876132253 -59.51551967452284 -5.902117398513035
  endloop
endfacet
facet normal -2.9687429599239924e-16 0.9707164815781666 -0.24022804247736135
  outer loop
    vertex -118.40419876132253 -59.42501541296687 -5.536406645349275
    vertex -124.4041987613225 -59.51551967452283 -5.902117398512968
    vertex -124.4041987613225 -59.42501541296685 -5.5364066453492
  endloop
endfacet
facet normal 1.336304683183921e-15 0.9931706495384742 -0.11667073709943421
  outer loop
    vertex -118.40419876132253 -59.42501541296687 -5.536406645349275
    vertex -124.40419876132248 -59.3810605157888 -5.1622364389544835
    vertex -118.40419876132249 -59.38106051578882 -5.162236438954558
  endloop
endfacet
facet normal 1.336304683183921e-15 0.9931706495384742 -0.11667073709943421
  outer loop
    vertex -124.40419876132248 -59.3810605157888 -5.1622364389544835
    vertex -118.40419876132253 -59.42501541296687 -5.536406645349275
    vertex -124.4041987613225 -59.42501541296685 -5.5364066453492
  endloop
endfacet
facet normal 2.948409339236742e-15 0.9999619230641723 0.008726535498273957
  outer loop
    vertex -124.40419876132248 -59.3810605157888 -5.1622364389544835
    vertex -118.40419876132249 -59.38434817797458 -4.785507667002169
    vertex -118.40419876132249 -59.38106051578882 -5.162236438954558
  endloop
endfacet
facet normal 2.948409339236742e-15 0.9999619230641723 0.008726535498273957
  outer loop
    vertex -118.40419876132249 -59.38434817797458 -4.785507667002169
    vertex -124.40419876132248 -59.3810605157888 -5.1622364389544835
    vertex -124.40419876132248 -59.38434817797457 -4.785507667002103
  endloop
endfacet
facet normal 4.514015818715403e-15 0.9909831997148497 0.13398618541819227
  outer loop
    vertex -124.40419876132248 -59.38434817797457 -4.785507667002103
    vertex -118.40419876132249 -59.43482655112754 -4.412161567272676
    vertex -118.40419876132249 -59.38434817797458 -4.785507667002169
  endloop
endfacet
facet normal 4.514015818715403e-15 0.9909831997148497 0.13398618541819227
  outer loop
    vertex -118.40419876132249 -59.43482655112754 -4.412161567272676
    vertex -124.40419876132248 -59.38434817797457 -4.785507667002103
    vertex -124.40419876132248 -59.43482655112752 -4.412161567272602
  endloop
endfacet
facet normal 6.0084335721905806e-15 0.9663760793213554 0.25713279315459847
  outer loop
    vertex -118.40419876132249 -59.53169956114874 -4.048086030784935
    vertex -124.40419876132248 -59.43482655112752 -4.412161567272602
    vertex -124.40419876132248 -59.53169956114872 -4.0480860307848685
  endloop
endfacet
facet normal 6.0084335721905806e-15 0.9663760793213554 0.25713279315459847
  outer loop
    vertex -124.40419876132248 -59.43482655112752 -4.412161567272602
    vertex -118.40419876132249 -59.53169956114874 -4.048086030784935
    vertex -118.40419876132249 -59.43482655112754 -4.412161567272676
  endloop
endfacet
facet normal 7.408094738968086e-15 0.9265286308718752 0.3762242631392723
  outer loop
    vertex -118.40419876132249 -59.67343946280103 -3.699022746237573
    vertex -124.40419876132248 -59.53169956114872 -4.0480860307848685
    vertex -124.40419876132248 -59.67343946280101 -3.699022746237495
  endloop
endfacet
facet normal 7.408094738968086e-15 0.9265286308718752 0.3762242631392723
  outer loop
    vertex -124.40419876132248 -59.53169956114872 -4.0480860307848685
    vertex -118.40419876132249 -59.67343946280103 -3.699022746237573
    vertex -118.40419876132249 -59.53169956114874 -4.048086030784935
  endloop
endfacet
facet normal 8.690925826330755e-15 0.8720692724321706 0.48938245174875716
  outer loop
    vertex -118.40419876132249 -59.85781093316403 -3.3704766501481753
    vertex -124.40419876132248 -59.67343946280101 -3.699022746237495
    vertex -124.40419876132248 -59.85781093316402 -3.3704766501480976
  endloop
endfacet
facet normal 8.690925826330755e-15 0.8720692724321706 0.48938245174875716
  outer loop
    vertex -124.40419876132248 -59.67343946280101 -3.699022746237495
    vertex -118.40419876132249 -59.85781093316403 -3.3704766501481753
    vertex -118.40419876132249 -59.67343946280103 -3.699022746237573
  endloop
endfacet
facet normal 9.836695821704778e-15 0.8038568606172772 0.5948227867512603
  outer loop
    vertex -118.40419876132249 -60.08190632401195 -3.0676291107160014
    vertex -124.40419876132248 -59.85781093316402 -3.3704766501480976
    vertex -124.40419876132248 -60.081906324011925 -3.0676291107159246
  endloop
endfacet
facet normal 9.836695821704778e-15 0.8038568606172772 0.5948227867512603
  outer loop
    vertex -124.40419876132248 -59.85781093316402 -3.3704766501480976
    vertex -118.40419876132249 -60.08190632401195 -3.0676291107160014
    vertex -118.40419876132249 -59.85781093316403 -3.3704766501481753
  endloop
endfacet
facet normal 1.0827335247813257e-14 0.7229671459096372 0.6908824110767864
  outer loop
    vertex -118.40419876132249 -60.342191517162995 -2.7952562145502564
    vertex -124.40419876132248 -60.081906324011925 -3.0676291107159246
    vertex -124.40419876132248 -60.34219151716299 -2.7952562145501787
  endloop
endfacet
facet normal 1.0827335247813257e-14 0.7229671459096372 0.6908824110767864
  outer loop
    vertex -124.40419876132248 -60.081906324011925 -3.0676291107159246
    vertex -118.40419876132249 -60.342191517162995 -2.7952562145502564
    vertex -118.40419876132249 -60.08190632401195 -3.0676291107160014
  endloop
endfacet
facet normal 1.1647221129127141e-14 0.6306758074313646 0.7760464070664824
  outer loop
    vertex -118.40419876132249 -60.63456165963437 -2.5576534449311503
    vertex -124.40419876132248 -60.34219151716299 -2.7952562145501787
    vertex -124.40419876132248 -60.63456165963435 -2.5576534449310735
  endloop
endfacet
facet normal 1.1647221129127141e-14 0.6306758074313646 0.7760464070664824
  outer loop
    vertex -124.40419876132248 -60.34219151716299 -2.7952562145501787
    vertex -118.40419876132249 -60.63456165963437 -2.5576534449311503
    vertex -118.40419876132249 -60.342191517162995 -2.7952562145502564
  endloop
endfacet
facet normal 1.2283423375522042e-14 0.5284383347224337 0.8489716876290877
  outer loop
    vertex -118.40419876132246 -60.95440589962582 -2.3585679394725845
    vertex -124.40419876132248 -60.63456165963435 -2.5576534449310735
    vertex -124.40419876132246 -60.95440589962581 -2.358567939472516
  endloop
endfacet
facet normal 1.2283423375522042e-14 0.5284383347224337 0.8489716876290877
  outer loop
    vertex -124.40419876132248 -60.63456165963435 -2.5576534449310735
    vertex -118.40419876132246 -60.95440589962582 -2.3585679394725845
    vertex -118.40419876132249 -60.63456165963437 -2.5576534449311503
  endloop
endfacet
facet normal 1.272590869752352e-14 0.41786707380116767 0.9085081775266801
  outer loop
    vertex -118.40419876132246 -61.296680102407 -2.201139395523574
    vertex -124.40419876132246 -60.95440589962581 -2.358567939472516
    vertex -124.40419876132246 -61.29668010240699 -2.201139395523497
  endloop
endfacet
facet normal 1.272590869752352e-14 0.41786707380116767 0.9085081775266801
  outer loop
    vertex -124.40419876132246 -60.95440589962581 -2.358567939472516
    vertex -118.40419876132246 -61.296680102407 -2.201139395523574
    vertex -118.40419876132246 -60.95440589962582 -2.3585679394725845
  endloop
endfacet
facet normal 1.2967698837275677e-14 0.30070579950436904 0.9537169507481966
  outer loop
    vertex -118.40419876132246 -61.65598639933535 -2.087850555265429
    vertex -124.40419876132246 -61.29668010240699 -2.201139395523497
    vertex -124.40419876132246 -61.65598639933533 -2.0878505552653523
  endloop
endfacet
facet normal 1.2967698837275677e-14 0.30070579950436904 0.9537169507481966
  outer loop
    vertex -124.40419876132246 -61.29668010240699 -2.201139395523497
    vertex -118.40419876132246 -61.65598639933535 -2.087850555265429
    vertex -118.40419876132246 -61.296680102407 -2.201139395523574
  endloop
endfacet
facet normal 1.3004980619836202e-14 0.17880221511644964 0.9838850379335234
  outer loop
    vertex -118.40419876132246 -62.026658315469135 -2.020488051384508
    vertex -124.40419876132246 -61.65598639933533 -2.0878505552653523
    vertex -124.40419876132246 -62.02665831546912 -2.020488051384431
  endloop
endfacet
facet normal 1.3004980619836202e-14 0.17880221511644964 0.9838850379335234
  outer loop
    vertex -124.40419876132246 -61.65598639933533 -2.0878505552653523
    vertex -118.40419876132246 -62.026658315469135 -2.020488051384508
    vertex -118.40419876132246 -61.65598639933535 -2.087850555265429
  endloop
endfacet
facet normal 1.2837166089223053e-14 0.05407881298487653 0.9985366703262063
  outer loop
    vertex -118.40419876132246 -62.402850133262255 -2.0001142308074082
    vertex -124.40419876132246 -62.02665831546912 -2.020488051384431
    vertex -124.40419876132246 -62.40285013326224 -2.000114230807342
  endloop
endfacet
facet normal 1.2837166089223053e-14 0.05407881298487653 0.9985366703262063
  outer loop
    vertex -124.40419876132246 -62.02665831546912 -2.020488051384431
    vertex -118.40419876132246 -62.402850133262255 -2.0001142308074082
    vertex -118.40419876132246 -62.026658315469135 -2.020488051384508
  endloop
endfacet
facet normal 1.2466901780831545e-14 -0.07149744433258542 0.9974407829309513
  outer loop
    vertex -118.40419876132246 -62.77862908302202 -2.0270504008553796
    vertex -124.40419876132246 -62.40285013326224 -2.000114230807342
    vertex -124.40419876132246 -62.778629083022 -2.0270504008553045
  endloop
endfacet
facet normal 1.2466901780831545e-14 -0.07149744433258542 0.9974407829309513
  outer loop
    vertex -124.40419876132246 -62.40285013326224 -2.000114230807342
    vertex -118.40419876132246 -62.77862908302202 -2.0270504008553796
    vertex -118.40419876132246 -62.402850133262255 -2.0001142308074082
  endloop
endfacet
facet normal 1.1900026983990186e-14 -0.19594614424241913 0.9806146585466328
  outer loop
    vertex -124.40419876132246 -62.778629083022 -2.0270504008553045
    vertex -118.40419876132246 -63.14806890623124 -2.1008717620358595
    vertex -118.40419876132246 -62.77862908302202 -2.0270504008553796
  endloop
endfacet
facet normal 1.1900026983990186e-14 -0.19594614424241913 0.9806146585466328
  outer loop
    vertex -118.40419876132246 -63.14806890623124 -2.1008717620358595
    vertex -124.40419876132246 -62.778629083022 -2.0270504008553045
    vertex -124.40419876132246 -63.148068906231224 -2.1008717620357933
  endloop
endfacet
facet normal 1.1145481652879757e-14 -0.31730465640499667 0.9483236552062314
  outer loop
    vertex -124.40419876132246 -63.148068906231224 -2.1008717620357933
    vertex -118.40419876132249 -63.505343316185254 -2.2204141073843036
    vertex -118.40419876132246 -63.14806890623124 -2.1008717620358595
  endloop
endfacet
facet normal 1.1145481652879757e-14 -0.31730465640499667 0.9483236552062314
  outer loop
    vertex -118.40419876132249 -63.505343316185254 -2.2204141073843036
    vertex -124.40419876132246 -63.148068906231224 -2.1008717620357933
    vertex -124.40419876132246 -63.50534331618523 -2.220414107384228
  endloop
endfacet
facet normal 1.0215165418115406e-14 -0.4336590845874526 0.9010770213221357
  outer loop
    vertex -124.40419876132246 -63.50534331618523 -2.220414107384228
    vertex -118.40419876132249 -63.844817882013714 -2.3837921827034174
    vertex -118.40419876132249 -63.505343316185254 -2.2204141073843036
  endloop
endfacet
facet normal 1.0215165418115406e-14 -0.4336590845874526 0.9010770213221357
  outer loop
    vertex -118.40419876132249 -63.844817882013714 -2.3837921827034174
    vertex -124.40419876132246 -63.50534331618523 -2.220414107384228
    vertex -124.40419876132248 -63.84481788201369 -2.383792182703342
  endloop
endfacet
facet normal 9.123749922463332e-15 -0.5431744499505853 0.8396198645344685
  outer loop
    vertex -118.40419876132249 -63.844817882013714 -2.3837921827034174
    vertex -124.40419876132246 -64.1611388870212 -2.5884294181480194
    vertex -118.40419876132246 -64.16113888702121 -2.5884294181480945
  endloop
endfacet
facet normal 9.123749922463332e-15 -0.5431744499505853 0.8396198645344685
  outer loop
    vertex -124.40419876132246 -64.1611388870212 -2.5884294181480194
    vertex -118.40419876132249 -63.844817882013714 -2.3837921827034174
    vertex -124.40419876132248 -63.84481788201369 -2.383792182703342
  endloop
endfacet
facet normal 7.888447440269969e-15 -0.6441236297613109 0.7649214009184956
  outer loop
    vertex -124.40419876132246 -64.1611388870212 -2.5884294181480194
    vertex -118.40419876132249 -64.4493177599978 -2.8310985622710185
    vertex -118.40419876132246 -64.16113888702121 -2.5884294181480945
  endloop
endfacet
facet normal 7.888447440269969e-15 -0.6441236297613109 0.7649214009184956
  outer loop
    vertex -118.40419876132249 -64.4493177599978 -2.8310985622710185
    vertex -124.40419876132246 -64.1611388870212 -2.5884294181480194
    vertex -124.40419876132248 -64.44931775999778 -2.8310985622709435
  endloop
endfacet
facet normal 6.5287394296135234e-15 -0.7349145951498905 0.6781596698681458
  outer loop
    vertex -124.40419876132248 -64.44931775999778 -2.8310985622709435
    vertex -118.40419876132252 -64.70480974796688 -3.107972577705836
    vertex -118.40419876132249 -64.4493177599978 -2.8310985622710185
  endloop
endfacet
facet normal 6.5287394296135234e-15 -0.7349145951498905 0.6781596698681458
  outer loop
    vertex -118.40419876132252 -64.70480974796688 -3.107972577705836
    vertex -124.40419876132248 -64.44931775999778 -2.8310985622709435
    vertex -124.40419876132248 -64.70480974796688 -3.1079725777057603
  endloop
endfacet
facet normal 5.066069298072129e-15 -0.8141155183562607 0.5807029557110219
  outer loop
    vertex -124.40419876132248 -64.70480974796688 -3.1079725777057603
    vertex -118.40419876132252 -64.9235855896547 -3.4146849958326317
    vertex -118.40419876132252 -64.70480974796688 -3.107972577705836
  endloop
endfacet
facet normal 5.066069298072129e-15 -0.8141155183562607 0.5807029557110219
  outer loop
    vertex -118.40419876132252 -64.9235855896547 -3.4146849958326317
    vertex -124.40419876132248 -64.70480974796688 -3.1079725777057603
    vertex -124.4041987613225 -64.92358558965469 -3.4146849958325567
  endloop
endfacet
facet normal 3.5235042273770507e-15 -0.8804773535091142 0.4740882090472053
  outer loop
    vertex -124.4041987613225 -64.92358558965469 -3.4146849958325567
    vertex -118.40419876132252 -65.10219505934747 -3.7463987785964235
    vertex -118.40419876132252 -64.9235855896547 -3.4146849958326317
  endloop
endfacet
facet normal 3.5235042273770507e-15 -0.8804773535091142 0.4740882090472053
  outer loop
    vertex -118.40419876132252 -65.10219505934747 -3.7463987785964235
    vertex -124.4041987613225 -64.92358558965469 -3.4146849958325567
    vertex -124.4041987613225 -65.10219505934747 -3.746398778596348
  endloop
endfacet
facet normal 1.9253713901768103e-15 -0.9329535348254533 0.35999680812014406
  outer loop
    vertex -118.40419876132252 -65.10219505934747 -3.7463987785964235
    vertex -124.40419876132248 -65.237821379012 -4.09788260148675
    vertex -118.40419876132252 -65.23782137901203 -4.097882601486826
  endloop
endfacet
facet normal 1.9253713901768103e-15 -0.9329535348254533 0.35999680812014406
  outer loop
    vertex -124.40419876132248 -65.237821379012 -4.09788260148675
    vertex -118.40419876132252 -65.10219505934747 -3.7463987785964235
    vertex -124.4041987613225 -65.10219505934747 -3.746398778596348
  endloop
endfacet
facet normal 2.9687429599240003e-16 -0.9707164815781666 0.24022804247736146
  outer loop
    vertex -124.40419876132248 -65.237821379012 -4.09788260148675
    vertex -118.40419876132252 -65.32832564056801 -4.463593354650585
    vertex -118.40419876132252 -65.23782137901203 -4.097882601486826
  endloop
endfacet
facet normal 2.9687429599240003e-16 -0.9707164815781666 0.24022804247736146
  outer loop
    vertex -118.40419876132252 -65.32832564056801 -4.463593354650585
    vertex -124.40419876132248 -65.237821379012 -4.09788260148675
    vertex -124.4041987613225 -65.328325640568 -4.463593354650509
  endloop
endfacet
facet normal -1.3363046831839239e-15 -0.9931706495384742 0.11667073709943385
  outer loop
    vertex -124.4041987613225 -65.328325640568 -4.463593354650509
    vertex -118.40419876132252 -65.37228053774605 -4.837763561045302
    vertex -118.40419876132252 -65.32832564056801 -4.463593354650585
  endloop
endfacet
facet normal -1.3363046831839239e-15 -0.9931706495384742 0.11667073709943385
  outer loop
    vertex -118.40419876132252 -65.37228053774605 -4.837763561045302
    vertex -124.4041987613225 -65.328325640568 -4.463593354650509
    vertex -124.4041987613225 -65.37228053774604 -4.837763561045226
  endloop
endfacet
facet normal -2.948409339236737e-15 -0.9999619230641723 -0.008726535498273569
  outer loop
    vertex -124.4041987613225 -65.37228053774604 -4.837763561045226
    vertex -118.40419876132253 -65.3689928755603 -5.214492332997683
    vertex -118.40419876132252 -65.37228053774605 -4.837763561045302
  endloop
endfacet
facet normal -2.948409339236737e-15 -0.9999619230641723 -0.008726535498273569
  outer loop
    vertex -118.40419876132253 -65.3689928755603 -5.214492332997683
    vertex -124.4041987613225 -65.37228053774604 -4.837763561045226
    vertex -124.4041987613225 -65.36899287556028 -5.214492332997616
  endloop
endfacet
facet normal -4.514015818715403e-15 -0.9909831997148497 -0.13398618541819227
  outer loop
    vertex -124.4041987613225 -65.36899287556028 -5.214492332997616
    vertex -118.40419876132253 -65.31851450240733 -5.587838432727184
    vertex -118.40419876132253 -65.3689928755603 -5.214492332997683
  endloop
endfacet
facet normal -4.514015818715403e-15 -0.9909831997148497 -0.13398618541819227
  outer loop
    vertex -118.40419876132253 -65.31851450240733 -5.587838432727184
    vertex -124.4041987613225 -65.36899287556028 -5.214492332997616
    vertex -124.40419876132252 -65.31851450240733 -5.587838432727109
  endloop
endfacet
facet normal -6.008433572190575e-15 -0.9663760793213556 -0.2571327931545979
  outer loop
    vertex -124.40419876132252 -65.22164149238611 -5.951913969214851
    vertex -118.40419876132253 -65.31851450240733 -5.587838432727184
    vertex -124.40419876132252 -65.31851450240733 -5.587838432727109
  endloop
endfacet
facet normal -6.008433572190575e-15 -0.9663760793213556 -0.2571327931545979
  outer loop
    vertex -118.40419876132253 -65.31851450240733 -5.587838432727184
    vertex -124.40419876132252 -65.22164149238611 -5.951913969214851
    vertex -118.40419876132253 -65.22164149238613 -5.9519139692149166
  endloop
endfacet
facet normal -7.408094738968086e-15 -0.9265286308718752 -0.37622426313927226
  outer loop
    vertex -124.40419876132252 -65.07990159073383 -6.3009772537622135
    vertex -118.40419876132253 -65.22164149238613 -5.9519139692149166
    vertex -124.40419876132252 -65.22164149238611 -5.951913969214851
  endloop
endfacet
facet normal -7.408094738968086e-15 -0.9265286308718752 -0.37622426313927226
  outer loop
    vertex -118.40419876132253 -65.22164149238613 -5.9519139692149166
    vertex -124.40419876132252 -65.07990159073383 -6.3009772537622135
    vertex -118.40419876132253 -65.07990159073384 -6.300977253762291
  endloop
endfacet
facet normal -8.69092582633077e-15 -0.8720692724321699 -0.4893824517487586
  outer loop
    vertex -124.40419876132252 -64.89553012037082 -6.6295233498516115
    vertex -118.40419876132253 -65.07990159073384 -6.300977253762291
    vertex -124.40419876132252 -65.07990159073383 -6.3009772537622135
  endloop
endfacet
facet normal -8.69092582633077e-15 -0.8720692724321699 -0.4893824517487586
  outer loop
    vertex -118.40419876132253 -65.07990159073384 -6.300977253762291
    vertex -124.40419876132252 -64.89553012037082 -6.6295233498516115
    vertex -118.40419876132253 -64.89553012037084 -6.629523349851688
  endloop
endfacet
facet normal -9.836695821704773e-15 -0.8038568606172779 -0.5948227867512597
  outer loop
    vertex -124.40419876132252 -64.67143472952291 -6.932370889283785
    vertex -118.40419876132253 -64.89553012037084 -6.629523349851688
    vertex -124.40419876132252 -64.89553012037082 -6.6295233498516115
  endloop
endfacet
facet normal -9.836695821704773e-15 -0.8038568606172779 -0.5948227867512597
  outer loop
    vertex -118.40419876132253 -64.89553012037084 -6.629523349851688
    vertex -124.40419876132252 -64.67143472952291 -6.932370889283785
    vertex -118.40419876132256 -64.67143472952293 -6.9323708892838525
  endloop
endfacet
facet normal -1.0827335247813252e-14 -0.7229671459096373 -0.690882411076786
  outer loop
    vertex -124.40419876132252 -64.41114953637185 -7.204743785449532
    vertex -118.40419876132256 -64.67143472952293 -6.9323708892838525
    vertex -124.40419876132252 -64.67143472952291 -6.932370889283785
  endloop
endfacet
facet normal -1.0827335247813252e-14 -0.7229671459096373 -0.690882411076786
  outer loop
    vertex -118.40419876132256 -64.67143472952293 -6.9323708892838525
    vertex -124.40419876132252 -64.41114953637185 -7.204743785449532
    vertex -118.40419876132256 -64.41114953637187 -7.204743785449599
  endloop
endfacet
facet normal -1.1647221129127144e-14 -0.6306758074313639 -0.7760464070664829
  outer loop
    vertex -124.40419876132252 -64.11877939390048 -7.442346555068636
    vertex -118.40419876132256 -64.41114953637187 -7.204743785449599
    vertex -124.40419876132252 -64.41114953637185 -7.204743785449532
  endloop
endfacet
facet normal -1.1647221129127144e-14 -0.6306758074313639 -0.7760464070664829
  outer loop
    vertex -118.40419876132256 -64.41114953637187 -7.204743785449599
    vertex -124.40419876132252 -64.11877939390048 -7.442346555068636
    vertex -118.40419876132256 -64.1187793939005 -7.442346555068713
  endloop
endfacet
facet normal -1.2283423375522045e-14 -0.5284383347224325 -0.8489716876290884
  outer loop
    vertex -124.40419876132255 -63.79893515390903 -7.641432060527196
    vertex -118.40419876132256 -64.1187793939005 -7.442346555068713
    vertex -124.40419876132252 -64.11877939390048 -7.442346555068636
  endloop
endfacet
facet normal -1.2283423375522045e-14 -0.5284383347224325 -0.8489716876290884
  outer loop
    vertex -118.40419876132256 -64.1187793939005 -7.442346555068713
    vertex -124.40419876132255 -63.79893515390903 -7.641432060527196
    vertex -118.40419876132256 -63.79893515390905 -7.641432060527272
  endloop
endfacet
facet normal -1.2725908697523518e-14 -0.4178670738011696 -0.9085081775266792
  outer loop
    vertex -124.40419876132255 -63.45666095112785 -7.7988606044762125
    vertex -118.40419876132256 -63.79893515390905 -7.641432060527272
    vertex -124.40419876132255 -63.79893515390903 -7.641432060527196
  endloop
endfacet
facet normal -1.2725908697523518e-14 -0.4178670738011696 -0.9085081775266792
  outer loop
    vertex -118.40419876132256 -63.79893515390905 -7.641432060527272
    vertex -124.40419876132255 -63.45666095112785 -7.7988606044762125
    vertex -118.40419876132256 -63.45666095112787 -7.79886060447629
  endloop
endfacet
facet normal -1.296769883727568e-14 -0.3007057995043684 -0.9537169507481971
  outer loop
    vertex -124.40419876132252 -63.097354654199506 -7.912149444734357
    vertex -118.40419876132256 -63.45666095112787 -7.79886060447629
    vertex -124.40419876132255 -63.45666095112785 -7.7988606044762125
  endloop
endfacet
facet normal -1.296769883727568e-14 -0.3007057995043684 -0.9537169507481971
  outer loop
    vertex -118.40419876132256 -63.45666095112787 -7.79886060447629
    vertex -124.40419876132252 -63.097354654199506 -7.912149444734357
    vertex -118.40419876132253 -63.09735465419951 -7.912149444734425
  endloop
endfacet
facet normal -1.3004980619836202e-14 -0.1788022151164486 -0.9838850379335238
  outer loop
    vertex -124.40419876132255 -62.72668273806572 -7.979511948615279
    vertex -118.40419876132253 -63.09735465419951 -7.912149444734425
    vertex -124.40419876132252 -63.097354654199506 -7.912149444734357
  endloop
endfacet
facet normal -1.3004980619836202e-14 -0.1788022151164486 -0.9838850379335238
  outer loop
    vertex -118.40419876132253 -63.09735465419951 -7.912149444734425
    vertex -124.40419876132255 -62.72668273806572 -7.979511948615279
    vertex -118.40419876132256 -62.72668273806574 -7.9795119486153565
  endloop
endfacet
facet normal -1.2837166089223053e-14 -0.054078812984876046 -0.9985366703262064
  outer loop
    vertex -124.40419876132255 -62.3504909202726 -7.9998857691923675
    vertex -118.40419876132256 -62.72668273806574 -7.9795119486153565
    vertex -124.40419876132255 -62.72668273806572 -7.979511948615279
  endloop
endfacet
facet normal -1.2837166089223053e-14 -0.054078812984876046 -0.9985366703262064
  outer loop
    vertex -118.40419876132256 -62.72668273806574 -7.9795119486153565
    vertex -124.40419876132255 -62.3504909202726 -7.9998857691923675
    vertex -118.40419876132256 -62.35049092027262 -7.999885769192444
  endloop
endfacet
facet normal -1.246690178083155e-14 0.07149744433258504 -0.9974407829309513
  outer loop
    vertex -124.40419876132255 -61.97471197051284 -7.972949599144404
    vertex -118.40419876132256 -62.35049092027262 -7.999885769192444
    vertex -124.40419876132255 -62.3504909202726 -7.9998857691923675
  endloop
endfacet
facet normal -1.246690178083155e-14 0.07149744433258504 -0.9974407829309513
  outer loop
    vertex -118.40419876132256 -62.35049092027262 -7.999885769192444
    vertex -124.40419876132255 -61.97471197051284 -7.972949599144404
    vertex -118.40419876132256 -61.974711970512864 -7.9729495991444805
  endloop
endfacet
facet normal -1.1900026983990188e-14 0.19594614424241885 -0.9806146585466328
  outer loop
    vertex -124.40419876132255 -61.97471197051284 -7.972949599144404
    vertex -118.40419876132253 -61.60527214730364 -7.899128237963992
    vertex -118.40419876132256 -61.974711970512864 -7.9729495991444805
  endloop
endfacet
facet normal -1.1900026983990188e-14 0.19594614424241885 -0.9806146585466328
  outer loop
    vertex -118.40419876132253 -61.60527214730364 -7.899128237963992
    vertex -124.40419876132255 -61.97471197051284 -7.972949599144404
    vertex -124.40419876132252 -61.60527214730363 -7.899128237963925
  endloop
endfacet
facet normal -1.0 2.8376703530228615e-15 1.2702295891392394e-14
  outer loop
    vertex -124.40419876132252 -64.41114953637185 -7.204743785449532
    vertex -124.40419876132255 -63.79893515390903 -7.641432060527196
    vertex -124.40419876132252 -64.11877939390048 -7.442346555068636
  endloop
endfacet
facet normal -1.0 2.8376703530228615e-15 1.2702295891392394e-14
  outer loop
    vertex -124.40419876132255 -63.79893515390903 -7.641432060527196
    vertex -124.40419876132252 -64.41114953637185 -7.204743785449532
    vertex -124.40419876132252 -64.67143472952291 -6.932370889283785
  endloop
endfacet
facet normal -1.0 2.8376703530228615e-15 1.2702295891392394e-14
  outer loop
    vertex -124.40419876132255 -63.79893515390903 -7.641432060527196
    vertex -124.40419876132252 -64.67143472952291 -6.932370889283785
    vertex -124.40419876132255 -63.45666095112785 -7.7988606044762125
  endloop
endfacet
facet normal -1.0 2.8376703530228615e-15 1.2702295891392394e-14
  outer loop
    vertex -124.40419876132255 -63.45666095112785 -7.7988606044762125
    vertex -124.40419876132252 -64.67143472952291 -6.932370889283785
    vertex -124.40419876132252 -64.89553012037082 -6.6295233498516115
  endloop
endfacet
facet normal -1.0 2.8376703530228615e-15 1.2702295891392394e-14
  outer loop
    vertex -124.40419876132255 -63.45666095112785 -7.7988606044762125
    vertex -124.40419876132252 -64.89553012037082 -6.6295233498516115
    vertex -124.40419876132252 -63.097354654199506 -7.912149444734357
  endloop
endfacet
facet normal -1.0 2.8376703530228615e-15 1.2702295891392394e-14
  outer loop
    vertex -124.40419876132252 -63.097354654199506 -7.912149444734357
    vertex -124.40419876132252 -64.89553012037082 -6.6295233498516115
    vertex -124.40419876132252 -65.07990159073383 -6.3009772537622135
  endloop
endfacet
facet normal -1.0 2.8376703530228615e-15 1.2702295891392394e-14
  outer loop
    vertex -124.40419876132252 -63.097354654199506 -7.912149444734357
    vertex -124.40419876132252 -65.07990159073383 -6.3009772537622135
    vertex -124.40419876132255 -62.72668273806572 -7.979511948615279
  endloop
endfacet
facet normal -1.0 2.8376703530228615e-15 1.2702295891392394e-14
  outer loop
    vertex -124.40419876132255 -62.72668273806572 -7.979511948615279
    vertex -124.40419876132252 -65.07990159073383 -6.3009772537622135
    vertex -124.40419876132252 -65.22164149238611 -5.951913969214851
  endloop
endfacet
facet normal -1.0 2.8376703530228615e-15 1.2702295891392394e-14
  outer loop
    vertex -124.40419876132255 -62.72668273806572 -7.979511948615279
    vertex -124.40419876132252 -65.22164149238611 -5.951913969214851
    vertex -124.40419876132255 -62.3504909202726 -7.9998857691923675
  endloop
endfacet
facet normal -1.0 2.8376703530228615e-15 1.2702295891392394e-14
  outer loop
    vertex -124.40419876132255 -62.3504909202726 -7.9998857691923675
    vertex -124.40419876132252 -65.22164149238611 -5.951913969214851
    vertex -124.40419876132252 -65.31851450240733 -5.587838432727109
  endloop
endfacet
facet normal -1.0 2.8376703530228615e-15 1.2702295891392394e-14
  outer loop
    vertex -124.40419876132255 -62.3504909202726 -7.9998857691923675
    vertex -124.40419876132252 -65.31851450240733 -5.587838432727109
    vertex -124.40419876132255 -61.97471197051284 -7.972949599144404
  endloop
endfacet
facet normal -1.0 2.8376703530228615e-15 1.2702295891392394e-14
  outer loop
    vertex -124.40419876132255 -61.97471197051284 -7.972949599144404
    vertex -124.40419876132252 -65.31851450240733 -5.587838432727109
    vertex -124.4041987613225 -65.36899287556028 -5.214492332997616
  endloop
endfacet
facet normal -1.0 2.8376703530228615e-15 1.2702295891392394e-14
  outer loop
    vertex -124.40419876132255 -61.97471197051284 -7.972949599144404
    vertex -124.4041987613225 -65.36899287556028 -5.214492332997616
    vertex -124.40419876132252 -61.60527214730363 -7.899128237963925
  endloop
endfacet
facet normal -1.0 2.8376703530228615e-15 1.2702295891392394e-14
  outer loop
    vertex -124.40419876132252 -61.60527214730363 -7.899128237963925
    vertex -124.4041987613225 -65.36899287556028 -5.214492332997616
    vertex -124.4041987613225 -65.37228053774604 -4.837763561045226
  endloop
endfacet
facet normal -1.0 2.8376703530228615e-15 1.2702295891392394e-14
  outer loop
    vertex -124.40419876132252 -61.60527214730363 -7.899128237963925
    vertex -124.4041987613225 -65.37228053774604 -4.837763561045226
    vertex -124.40419876132252 -61.24799773734961 -7.779585892615482
  endloop
endfacet
facet normal -1.0 2.8376703530228615e-15 1.2702295891392394e-14
  outer loop
    vertex -124.40419876132252 -61.24799773734961 -7.779585892615482
    vertex -124.4041987613225 -65.37228053774604 -4.837763561045226
    vertex -124.4041987613225 -65.328325640568 -4.463593354650509
  endloop
endfacet
facet normal -1.0 2.8376703530228615e-15 1.2702295891392394e-14
  outer loop
    vertex -124.40419876132252 -61.24799773734961 -7.779585892615482
    vertex -124.4041987613225 -65.328325640568 -4.463593354650509
    vertex -124.40419876132252 -60.908523171521146 -7.616207817296368
  endloop
endfacet
facet normal -1.0 2.8376703530228615e-15 1.2702295891392394e-14
  outer loop
    vertex -124.40419876132252 -60.908523171521146 -7.616207817296368
    vertex -124.4041987613225 -65.328325640568 -4.463593354650509
    vertex -124.40419876132248 -65.237821379012 -4.09788260148675
  endloop
endfacet
facet normal -1.0 2.8376703530228615e-15 1.2702295891392394e-14
  outer loop
    vertex -124.40419876132252 -60.908523171521146 -7.616207817296368
    vertex -124.40419876132248 -65.237821379012 -4.09788260148675
    vertex -124.40419876132252 -60.59220216651364 -7.411570581851691
  endloop
endfacet
facet normal -1.0 2.8376703530228615e-15 1.2702295891392394e-14
  outer loop
    vertex -124.40419876132252 -60.59220216651364 -7.411570581851691
    vertex -124.40419876132248 -65.237821379012 -4.09788260148675
    vertex -124.4041987613225 -65.10219505934747 -3.746398778596348
  endloop
endfacet
facet normal -1.0 2.8376703530228615e-15 1.2702295891392394e-14
  outer loop
    vertex -124.40419876132252 -60.59220216651364 -7.411570581851691
    vertex -124.4041987613225 -65.10219505934747 -3.746398778596348
    vertex -124.40419876132252 -60.304023293537064 -7.168901437728767
  endloop
endfacet
facet normal -1.0 2.8376703530228615e-15 1.2702295891392394e-14
  outer loop
    vertex -124.40419876132252 -60.304023293537064 -7.168901437728767
    vertex -124.4041987613225 -65.10219505934747 -3.746398778596348
    vertex -124.4041987613225 -64.92358558965469 -3.4146849958325567
  endloop
endfacet
facet normal -1.0 2.8376703530228615e-15 1.2702295891392394e-14
  outer loop
    vertex -124.40419876132252 -60.304023293537064 -7.168901437728767
    vertex -124.4041987613225 -64.92358558965469 -3.4146849958325567
    vertex -124.4041987613225 -60.04853130556797 -6.892027422293949
  endloop
endfacet
facet normal -1.0 2.8376703530228615e-15 1.2702295891392394e-14
  outer loop
    vertex -124.4041987613225 -60.04853130556797 -6.892027422293949
    vertex -124.4041987613225 -64.92358558965469 -3.4146849958325567
    vertex -124.40419876132248 -64.70480974796688 -3.1079725777057603
  endloop
endfacet
facet normal -1.0 2.8376703530228615e-15 1.2702295891392394e-14
  outer loop
    vertex -124.4041987613225 -60.04853130556797 -6.892027422293949
    vertex -124.40419876132248 -64.70480974796688 -3.1079725777057603
    vertex -124.4041987613225 -59.82975546388015 -6.585315004167152
  endloop
endfacet
facet normal -1.0 2.8376703530228615e-15 1.2702295891392394e-14
  outer loop
    vertex -124.4041987613225 -59.82975546388015 -6.585315004167152
    vertex -124.40419876132248 -64.70480974796688 -3.1079725777057603
    vertex -124.40419876132248 -64.44931775999778 -2.8310985622709435
  endloop
endfacet
facet normal -1.0 2.8376703530228615e-15 1.2702295891392394e-14
  outer loop
    vertex -124.4041987613225 -59.82975546388015 -6.585315004167152
    vertex -124.40419876132248 -64.44931775999778 -2.8310985622709435
    vertex -124.4041987613225 -59.65114599418738 -6.253601221403361
  endloop
endfacet
facet normal -1.0 2.8376703530228615e-15 1.2702295891392394e-14
  outer loop
    vertex -124.4041987613225 -59.65114599418738 -6.253601221403361
    vertex -124.40419876132248 -64.44931775999778 -2.8310985622709435
    vertex -124.40419876132246 -64.1611388870212 -2.5884294181480194
  endloop
endfacet
facet normal -1.0 2.8376703530228615e-15 1.2702295891392394e-14
  outer loop
    vertex -124.4041987613225 -59.65114599418738 -6.253601221403361
    vertex -124.40419876132246 -64.1611388870212 -2.5884294181480194
    vertex -124.4041987613225 -59.51551967452283 -5.902117398512968
  endloop
endfacet
facet normal -1.0 2.8376703530228615e-15 1.2702295891392394e-14
  outer loop
    vertex -124.4041987613225 -59.51551967452283 -5.902117398512968
    vertex -124.40419876132246 -64.1611388870212 -2.5884294181480194
    vertex -124.40419876132248 -63.84481788201369 -2.383792182703342
  endloop
endfacet
facet normal -1.0 2.8376703530228615e-15 1.2702295891392394e-14
  outer loop
    vertex -124.4041987613225 -59.51551967452283 -5.902117398512968
    vertex -124.40419876132248 -63.84481788201369 -2.383792182703342
    vertex -124.4041987613225 -59.42501541296685 -5.5364066453492
  endloop
endfacet
facet normal -1.0 2.8376703530228615e-15 1.2702295891392394e-14
  outer loop
    vertex -124.4041987613225 -59.42501541296685 -5.5364066453492
    vertex -124.40419876132248 -63.84481788201369 -2.383792182703342
    vertex -124.40419876132246 -63.50534331618523 -2.220414107384228
  endloop
endfacet
facet normal -1.0 2.8376703530228615e-15 1.2702295891392394e-14
  outer loop
    vertex -124.4041987613225 -59.42501541296685 -5.5364066453492
    vertex -124.40419876132246 -63.50534331618523 -2.220414107384228
    vertex -124.40419876132248 -59.3810605157888 -5.1622364389544835
  endloop
endfacet
facet normal -1.0 2.8376703530228615e-15 1.2702295891392394e-14
  outer loop
    vertex -124.40419876132248 -59.3810605157888 -5.1622364389544835
    vertex -124.40419876132246 -63.50534331618523 -2.220414107384228
    vertex -124.40419876132246 -63.148068906231224 -2.1008717620357933
  endloop
endfacet
facet normal -1.0 2.8376703530228615e-15 1.2702295891392394e-14
  outer loop
    vertex -124.40419876132248 -59.3810605157888 -5.1622364389544835
    vertex -124.40419876132246 -63.148068906231224 -2.1008717620357933
    vertex -124.40419876132248 -59.38434817797457 -4.785507667002103
  endloop
endfacet
facet normal -1.0 2.8376703530228615e-15 1.2702295891392394e-14
  outer loop
    vertex -124.40419876132248 -59.38434817797457 -4.785507667002103
    vertex -124.40419876132246 -63.148068906231224 -2.1008717620357933
    vertex -124.40419876132246 -62.778629083022 -2.0270504008553045
  endloop
endfacet
facet normal -1.0 2.8376703530228615e-15 1.2702295891392394e-14
  outer loop
    vertex -124.40419876132248 -59.38434817797457 -4.785507667002103
    vertex -124.40419876132246 -62.778629083022 -2.0270504008553045
    vertex -124.40419876132248 -59.43482655112752 -4.412161567272602
  endloop
endfacet
facet normal -1.0 2.8376703530228615e-15 1.2702295891392394e-14
  outer loop
    vertex -124.40419876132248 -59.43482655112752 -4.412161567272602
    vertex -124.40419876132246 -62.778629083022 -2.0270504008553045
    vertex -124.40419876132246 -62.40285013326224 -2.000114230807342
  endloop
endfacet
facet normal -1.0 2.8376703530228615e-15 1.2702295891392394e-14
  outer loop
    vertex -124.40419876132248 -59.43482655112752 -4.412161567272602
    vertex -124.40419876132246 -62.40285013326224 -2.000114230807342
    vertex -124.40419876132248 -59.53169956114872 -4.0480860307848685
  endloop
endfacet
facet normal -1.0 2.8376703530228615e-15 1.2702295891392394e-14
  outer loop
    vertex -124.40419876132248 -59.53169956114872 -4.0480860307848685
    vertex -124.40419876132246 -62.40285013326224 -2.000114230807342
    vertex -124.40419876132246 -62.02665831546912 -2.020488051384431
  endloop
endfacet
facet normal -1.0 2.8376703530228615e-15 1.2702295891392394e-14
  outer loop
    vertex -124.40419876132248 -59.53169956114872 -4.0480860307848685
    vertex -124.40419876132246 -62.02665831546912 -2.020488051384431
    vertex -124.40419876132248 -59.67343946280101 -3.699022746237495
  endloop
endfacet
facet normal -1.0 2.8376703530228615e-15 1.2702295891392394e-14
  outer loop
    vertex -124.40419876132248 -59.67343946280101 -3.699022746237495
    vertex -124.40419876132246 -62.02665831546912 -2.020488051384431
    vertex -124.40419876132246 -61.65598639933533 -2.0878505552653523
  endloop
endfacet
facet normal -1.0 2.8376703530228615e-15 1.2702295891392394e-14
  outer loop
    vertex -124.40419876132248 -59.67343946280101 -3.699022746237495
    vertex -124.40419876132246 -61.65598639933533 -2.0878505552653523
    vertex -124.40419876132248 -59.85781093316402 -3.3704766501480976
  endloop
endfacet
facet normal -1.0 2.8376703530228615e-15 1.2702295891392394e-14
  outer loop
    vertex -124.40419876132248 -59.85781093316402 -3.3704766501480976
    vertex -124.40419876132246 -61.65598639933533 -2.0878505552653523
    vertex -124.40419876132246 -61.29668010240699 -2.201139395523497
  endloop
endfacet
facet normal -1.0 2.8376703530228615e-15 1.2702295891392394e-14
  outer loop
    vertex -124.40419876132248 -59.85781093316402 -3.3704766501480976
    vertex -124.40419876132246 -61.29668010240699 -2.201139395523497
    vertex -124.40419876132248 -60.081906324011925 -3.0676291107159246
  endloop
endfacet
facet normal -1.0 2.8376703530228615e-15 1.2702295891392394e-14
  outer loop
    vertex -124.40419876132248 -60.081906324011925 -3.0676291107159246
    vertex -124.40419876132246 -61.29668010240699 -2.201139395523497
    vertex -124.40419876132246 -60.95440589962581 -2.358567939472516
  endloop
endfacet
facet normal -1.0 2.8376703530228615e-15 1.2702295891392394e-14
  outer loop
    vertex -124.40419876132248 -60.081906324011925 -3.0676291107159246
    vertex -124.40419876132246 -60.95440589962581 -2.358567939472516
    vertex -124.40419876132248 -60.34219151716299 -2.7952562145501787
  endloop
endfacet
facet normal -1.0 2.8376703530228615e-15 1.2702295891392394e-14
  outer loop
    vertex -124.40419876132248 -60.34219151716299 -2.7952562145501787
    vertex -124.40419876132246 -60.95440589962581 -2.358567939472516
    vertex -124.40419876132248 -60.63456165963435 -2.5576534449310735
  endloop
endfacet
endsolid support_camera
