solid support_camera
facet normal -1.347183153308631e-14 -0.6252426563356673 -0.78043040733836
  outer loop
    vertex -112.96186259076045 -62.37667052676746 -4.999999999999654
    vertex -117.40419876132249 -60.6207021102561 -6.40679597675483
    vertex -112.96186259076042 -60.6207021102561 -6.40679597675483
  endloop
endfacet
facet normal -1.347183153308631e-14 -0.6252426563356673 -0.78043040733836
  outer loop
    vertex -117.40419876132249 -60.6207021102561 -6.40679597675483
    vertex -112.96186259076045 -62.37667052676746 -4.999999999999654
    vertex -117.40419876132252 -60.81580971209067 -6.250485312670905
  endloop
endfacet
facet normal -1.347183153308631e-14 -0.6252426563356673 -0.78043040733836
  outer loop
    vertex -117.40419876132252 -60.81580971209067 -6.250485312670905
    vertex -112.96186259076045 -62.37667052676746 -4.999999999999654
    vertex -123.4041987613225 -60.81580971209067 -6.250485312670905
  endloop
endfacet
facet normal -1.347183153308631e-14 -0.6252426563356673 -0.78043040733836
  outer loop
    vertex -123.4041987613225 -60.81580971209067 -6.250485312670905
    vertex -112.96186259076045 -62.37667052676746 -4.999999999999654
    vertex -123.4041987613225 -62.37667052676734 -4.9999999999994955
  endloop
endfacet
facet normal 8.418768465553684e-34 -0.7804304073383302 0.6252426563357049
  outer loop
    vertex -1.5958012386773561 -60.81580971209068 -6.250485312670905
    vertex -7.546896296508832 -59.56532439941927 -4.689624497994247
    vertex -7.595801238677323 -60.81580971209068 -6.250485312670905
  endloop
endfacet
facet normal 8.418768465553684e-34 -0.7804304073383302 0.6252426563357049
  outer loop
    vertex -7.546896296508832 -59.56532439941927 -4.689624497994247
    vertex -1.5958012386773561 -60.81580971209068 -6.250485312670905
    vertex -1.5958012386773561 -59.56532439941927 -4.689624497994247
  endloop
endfacet
facet normal -0.9987810040697136 0.030862587486434584 0.03852280627286993
  outer loop
    vertex -12.004568269961196 -63.70794570661318 -3.0631002110265753
    vertex -12.038137409239415 -62.37667052676746 -4.999999999999654
    vertex -12.038137409239438 -64.13263894327908 -3.5932040232447924
  endloop
endfacet
facet normal -0.9987810040697136 0.030862587486434584 0.03852280627286993
  outer loop
    vertex -12.038137409239415 -62.37667052676746 -4.999999999999654
    vertex -12.004568269961196 -63.70794570661318 -3.0631002110265753
    vertex -12.038137409239415 -60.6207021102561 -6.40679597675483
  endloop
endfacet
facet normal -0.9987810040697136 0.030862587486434584 0.03852280627286993
  outer loop
    vertex -12.038137409239415 -60.6207021102561 -6.40679597675483
    vertex -12.004568269961196 -63.70794570661318 -3.0631002110265753
    vertex -12.004568269961196 -60.196008873590706 -5.876692164537246
  endloop
endfacet
facet normal -6.121935550254362e-14 0.6252426563355706 0.7804304073384377
  outer loop
    vertex -12.038137409239438 -64.13263894327908 -3.5932040232447924
    vertex -1.5958012386773561 -62.37667052676734 -4.9999999999994955
    vertex -12.038137409239415 -62.37667052676746 -4.999999999999654
  endloop
endfacet
facet normal -6.121935550254362e-14 0.6252426563355706 0.7804304073384377
  outer loop
    vertex -1.5958012386773561 -62.37667052676734 -4.9999999999994955
    vertex -12.038137409239438 -64.13263894327908 -3.5932040232447924
    vertex -7.595801238677345 -63.937531341444 -3.7495146873280856
  endloop
endfacet
facet normal -6.121935550254362e-14 0.6252426563355706 0.7804304073384377
  outer loop
    vertex -7.595801238677345 -63.937531341444 -3.7495146873280856
    vertex -12.038137409239438 -64.13263894327908 -3.5932040232447924
    vertex -7.595801238677345 -64.13263894327908 -3.5932040232447924
  endloop
endfacet
facet normal -6.121935550254362e-14 0.6252426563355706 0.7804304073384377
  outer loop
    vertex -1.5958012386773561 -63.937531341444 -3.7495146873280856
    vertex -1.5958012386773561 -62.37667052676734 -4.9999999999994955
    vertex -7.595801238677345 -63.937531341444 -3.7495146873280856
  endloop
endfacet
facet normal -6.121935550254365e-14 -0.6252426563355706 -0.7804304073384377
  outer loop
    vertex -112.96186259076048 -64.13263894327908 -3.5932040232447924
    vertex -123.4041987613225 -62.37667052676734 -4.9999999999994955
    vertex -112.96186259076045 -62.37667052676746 -4.999999999999654
  endloop
endfacet
facet normal -6.121935550254365e-14 -0.6252426563355706 -0.7804304073384377
  outer loop
    vertex -123.4041987613225 -62.37667052676734 -4.9999999999994955
    vertex -112.96186259076048 -64.13263894327908 -3.5932040232447924
    vertex -117.40419876132252 -63.937531341444 -3.7495146873280856
  endloop
endfacet
facet normal -6.121935550254365e-14 -0.6252426563355706 -0.7804304073384377
  outer loop
    vertex -117.40419876132252 -63.937531341444 -3.7495146873280856
    vertex -112.96186259076048 -64.13263894327908 -3.5932040232447924
    vertex -117.40419876132253 -64.13263894327908 -3.5932040232447924
  endloop
endfacet
facet normal -6.121935550254365e-14 -0.6252426563355706 -0.7804304073384377
  outer loop
    vertex -123.4041987613225 -63.937531341444 -3.7495146873280856
    vertex -123.4041987613225 -62.37667052676734 -4.9999999999994955
    vertex -117.40419876132252 -63.937531341444 -3.7495146873280856
  endloop
endfacet
facet normal -1.3465537624505377e-14 0.6252426563356673 0.78043040733836
  outer loop
    vertex -12.038137409239415 -62.37667052676746 -4.999999999999654
    vertex -7.595801238677323 -60.6207021102561 -6.40679597675483
    vertex -12.038137409239415 -60.6207021102561 -6.40679597675483
  endloop
endfacet
facet normal -1.3465537624505377e-14 0.6252426563356673 0.78043040733836
  outer loop
    vertex -7.595801238677323 -60.6207021102561 -6.40679597675483
    vertex -12.038137409239415 -62.37667052676746 -4.999999999999654
    vertex -7.595801238677323 -60.81580971209068 -6.250485312670905
  endloop
endfacet
facet normal -1.3465537624505377e-14 0.6252426563356673 0.78043040733836
  outer loop
    vertex -7.595801238677323 -60.81580971209068 -6.250485312670905
    vertex -12.038137409239415 -62.37667052676746 -4.999999999999654
    vertex -1.5958012386773561 -60.81580971209068 -6.250485312670905
  endloop
endfacet
facet normal -1.3465537624505377e-14 0.6252426563356673 0.78043040733836
  outer loop
    vertex -1.5958012386773561 -60.81580971209068 -6.250485312670905
    vertex -12.038137409239415 -62.37667052676746 -4.999999999999654
    vertex -1.5958012386773561 -62.37667052676734 -4.9999999999994955
  endloop
endfacet
facet normal -1.0 0.0 0.0
  outer loop
    vertex -123.4041987613225 -63.937531341444 -3.7495146873280856
    vertex -123.4041987613225 -60.81580971209067 -6.250485312670905
    vertex -123.4041987613225 -62.37667052676734 -4.9999999999994955
  endloop
endfacet
facet normal -1.0 0.0 0.0
  outer loop
    vertex -123.4041987613225 -60.81580971209067 -6.250485312670905
    vertex -123.4041987613225 -63.937531341444 -3.7495146873280856
    vertex -123.4041987613225 -59.56532439941927 -4.689624497994247
  endloop
endfacet
facet normal -1.0 0.0 0.0
  outer loop
    vertex -123.4041987613225 -59.56532439941927 -4.689624497994247
    vertex -123.4041987613225 -63.937531341444 -3.7495146873280856
    vertex -123.4041987613225 -62.68704602877259 -2.188653872651429
  endloop
endfacet
facet normal 0.0 0.6252426563357049 0.7804304073383302
  outer loop
    vertex -123.4041987613225 -62.68704602877259 -2.188653872651429
    vertex -117.36112530466903 -59.56532439941927 -4.689624497994247
    vertex -123.4041987613225 -59.56532439941927 -4.689624497994247
  endloop
endfacet
facet normal 0.0 0.6252426563357049 0.7804304073383302
  outer loop
    vertex -117.36112530466903 -59.56532439941927 -4.689624497994247
    vertex -123.4041987613225 -62.68704602877259 -2.188653872651429
    vertex -117.36112530466903 -62.68704602877259 -2.188653872651429
  endloop
endfacet
facet normal 0.0 0.7804304073383302 -0.6252426563357049
  outer loop
    vertex -7.552727782023862 -62.68704602877259 -2.188653872651429
    vertex -1.5958012386773561 -63.937531341444 -3.7495146873280856
    vertex -7.595801238677345 -63.937531341444 -3.7495146873280856
  endloop
endfacet
facet normal 0.0 0.7804304073383302 -0.6252426563357049
  outer loop
    vertex -1.5958012386773561 -63.937531341444 -3.7495146873280856
    vertex -7.552727782023862 -62.68704602877259 -2.188653872651429
    vertex -1.5958012386773561 -62.68704602877259 -2.188653872651429
  endloop
endfacet
facet normal 3.211889246088955e-33 -0.6252426563357046 -0.7804304073383301
  outer loop
    vertex -1.5958012386773561 -62.68704602877259 -2.188653872651429
    vertex -7.546896296508832 -59.56532439941927 -4.689624497994247
    vertex -1.5958012386773561 -59.56532439941927 -4.689624497994247
  endloop
endfacet
facet normal 3.211889246088955e-33 -0.6252426563357046 -0.7804304073383301
  outer loop
    vertex -7.546896296508832 -59.56532439941927 -4.689624497994247
    vertex -1.5958012386773561 -62.68704602877259 -2.188653872651429
    vertex -7.552727782023862 -62.68704602877259 -2.188653872651429
  endloop
endfacet
facet normal 0.0 -0.7804304073383302 0.6252426563357049
  outer loop
    vertex -7.595801238677345 -64.13263894327908 -3.5932040232447924
    vertex -12.004568269961196 -63.70794570661318 -3.0631002110265753
    vertex -12.038137409239438 -64.13263894327908 -3.5932040232447924
  endloop
endfacet
facet normal 0.0 -0.7804304073383302 0.6252426563357049
  outer loop
    vertex -12.004568269961196 -63.70794570661318 -3.0631002110265753
    vertex -7.595801238677345 -64.13263894327908 -3.5932040232447924
    vertex -9.838066469678047 -54.21272021824977 8.788878569631008
  endloop
endfacet
facet normal 0.0 -0.7804304073383302 0.6252426563357049
  outer loop
    vertex -9.838066469678047 -54.21272021824977 8.788878569631008
    vertex -7.595801238677345 -64.13263894327908 -3.5932040232447924
    vertex -8.264820795805536 -58.41772485205927 3.540174812826715
  endloop
endfacet
facet normal 0.0 -0.7804304073383302 0.6252426563357049
  outer loop
    vertex -8.264820795805536 -58.41772485205927 3.540174812826715
    vertex -7.595801238677345 -64.13263894327908 -3.5932040232447924
    vertex -7.546896296508832 -62.712857095011465 -1.8210265894963515
  endloop
endfacet
facet normal 0.0 -0.7804304073383302 0.6252426563357049
  outer loop
    vertex -112.96186259076048 -64.13263894327908 -3.5932040232447924
    vertex -117.3043849299907 -61.234897740709734 0.023768242108819657
    vertex -117.40419876132253 -64.13263894327908 -3.5932040232447924
  endloop
endfacet
facet normal 0.0 -0.7804304073383302 0.6252426563357049
  outer loop
    vertex -117.3043849299907 -61.234897740709734 0.023768242108819657
    vertex -112.96186259076048 -64.13263894327908 -3.5932040232447924
    vertex -116.2913682675918 -56.96307379966498 5.355876127910465
  endloop
endfacet
facet normal 0.0 -0.7804304073383302 0.6252426563357049
  outer loop
    vertex -116.2913682675918 -56.96307379966498 5.355876127910465
    vertex -112.96186259076048 -64.13263894327908 -3.5932040232447924
    vertex -114.43002959420713 -52.804318183825636 10.54685167380706
  endloop
endfacet
facet normal 0.0 -0.7804304073383302 0.6252426563357049
  outer loop
    vertex -114.43002959420713 -52.804318183825636 10.54685167380706
    vertex -112.96186259076048 -64.13263894327908 -3.5932040232447924
    vertex -112.68239219866922 -60.59697529740139 0.8200256107264945
  endloop
endfacet
facet normal 0.0 -0.7804304073383302 0.6252426563357049
  outer loop
    vertex -114.43002959420713 -52.804318183825636 10.54685167380706
    vertex -112.68239219866922 -60.59697529740139 0.8200256107264945
    vertex -111.74972333262579 -48.82421695357368 15.514830094501296
  endloop
endfacet
facet normal 0.0 -0.7804304073383302 0.6252426563357049
  outer loop
    vertex -111.74972333262579 -48.82421695357368 15.514830094501296
    vertex -112.68239219866922 -60.59697529740139 0.8200256107264945
    vertex -111.57794636481871 -56.69237794265736 5.6937597892514376
  endloop
endfacet
facet normal 0.0 -0.7804304073383302 0.6252426563357049
  outer loop
    vertex -111.74972333262579 -48.82421695357368 15.514830094501296
    vertex -111.57794636481871 -56.69237794265736 5.6937597892514376
    vertex -108.2927195137303 -45.08553868290738 20.181463402572415
  endloop
endfacet
facet normal 0.0 -0.7804304073383302 0.6252426563357049
  outer loop
    vertex -108.2927195137303 -45.08553868290738 20.181463402572415
    vertex -111.57794636481871 -56.69237794265736 5.6937597892514376
    vertex -109.69951199905097 -52.90511794848962 10.421033000690045
  endloop
endfacet
facet normal 0.0 -0.7804304073383302 0.6252426563357049
  outer loop
    vertex -108.2927195137303 -45.08553868290738 20.181463402572415
    vertex -109.69951199905097 -52.90511794848962 10.421033000690045
    vertex -107.07671313343643 -49.29492266740566 14.927293322561773
  endloop
endfacet
facet normal 0.0 -0.7804304073383302 0.6252426563357049
  outer loop
    vertex -108.2927195137303 -45.08553868290738 20.181463402572415
    vertex -107.07671313343643 -49.29492266740566 14.927293322561773
    vertex -104.11353715285858 -41.647244561533306 24.4731560030405
  endloop
endfacet
facet normal 0.0 -0.7804304073383302 0.6252426563357049
  outer loop
    vertex -104.11353715285858 -41.647244561533306 24.4731560030405
    vertex -107.07671313343643 -49.29492266740566 14.927293322561773
    vertex -103.75091287286989 -45.91872703561425 19.14147433768135
  endloop
endfacet
facet normal 0.0 -0.7804304073383302 0.6252426563357049
  outer loop
    vertex -104.11353715285858 -41.647244561533306 24.4731560030405
    vertex -103.75091287286989 -45.91872703561425 19.14147433768135
    vertex -99.27808445236414 -38.56355854168289 28.322225339863266
  endloop
endfacet
facet normal 0.0 -0.7804304073383302 0.6252426563357049
  outer loop
    vertex -99.27808445236414 -38.56355854168289 28.322225339863266
    vertex -103.75091287286989 -45.91872703561425 19.14147433768135
    vertex -99.77456107419728 -42.8297756750703 22.997115894010555
  endloop
endfacet
facet normal 0.0 -0.7804304073383302 0.6252426563357049
  outer loop
    vertex -99.27808445236414 -38.56355854168289 28.322225339863266
    vertex -99.77456107419728 -42.8297756750703 22.997115894010555
    vertex -95.21036718064111 -40.07678319397968 26.43341222095748
  endloop
endfacet
facet normal 0.0 -0.7804304073383302 0.6252426563357049
  outer loop
    vertex -99.27808445236414 -38.56355854168289 28.322225339863266
    vertex -95.21036718064111 -40.07678319397968 26.43341222095748
    vertex -93.86261938989323 -35.8831121939939 31.66796929027645
  endloop
endfacet
facet normal 0.0 -0.7804304073383302 0.6252426563357049
  outer loop
    vertex -93.86261938989323 -35.8831121939939 31.66796929027645
    vertex -95.21036718064111 -40.07678319397968 26.43341222095748
    vertex -90.13031125642001 -37.70316592832716 29.39617087270224
  endloop
endfacet
facet normal 0.0 -0.7804304073383302 0.6252426563357049
  outer loop
    vertex -93.86261938989323 -35.8831121939939 31.66796929027645
    vertex -90.13031125642001 -37.70316592832716 29.39617087270224
    vertex -87.95254708452298 -33.64817775859042 34.4576234735315
  endloop
endfacet
facet normal 0.0 -0.7804304073383302 0.6252426563357049
  outer loop
    vertex -87.95254708452298 -33.64817775859042 34.4576234735315
    vertex -90.13031125642001 -37.70316592832716 29.39617087270224
    vertex -84.6145088181373 -35.746357240322325 31.83866737544059
  endloop
endfacet
facet normal 0.0 -0.7804304073383302 0.6252426563357049
  outer loop
    vertex -87.95254708452298 -33.64817775859042 34.4576234735315
    vertex -84.6145088181373 -35.746357240322325 31.83866737544059
    vertex -81.64107290701516 -31.89400148660389 36.64719337669984
  endloop
endfacet
facet normal 0.0 -0.7804304073383302 0.6252426563357049
  outer loop
    vertex -81.64107290701516 -31.89400148660389 36.64719337669984
    vertex -84.6145088181373 -35.746357240322325 31.83866737544059
    vertex -78.74994736522535 -34.23721717191586 33.72238210024766
  endloop
endfacet
facet normal 0.0 -0.7804304073383302 0.6252426563357049
  outer loop
    vertex -81.64107290701516 -31.89400148660389 36.64719337669984
    vertex -78.74994736522535 -34.23721717191586 33.72238210024766
    vertex -75.02773257544096 -30.64824778573764 38.20214817442284
  endloop
endfacet
facet normal 0.0 -0.7804304073383302 0.6252426563357049
  outer loop
    vertex -75.02773257544096 -30.64824778573764 38.20214817442284
    vertex -78.74994736522535 -34.23721717191586 33.72238210024766
    vertex -72.62911453511575 -33.19954576350312 35.0176077406366
  endloop
endfacet
facet normal 0.0 -0.7804304073383302 0.6252426563357049
  outer loop
    vertex -75.02773257544096 -30.64824778573764 38.20214817442284
    vertex -72.62911453511575 -33.19954576350312 35.0176077406366
    vertex -68.21682241744742 -29.93056293603153 39.09796530065544
  endloop
endfacet
facet normal 0.0 -0.7804304073383302 0.6252426563357049
  outer loop
    vertex -68.21682241744742 -29.93056293603153 39.09796530065544
    vertex -72.62911453511575 -33.19954576350312 35.0176077406366
    vertex -66.34853951794763 -32.64970771306959 35.70391781452822
  endloop
endfacet
facet normal 0.0 -0.7804304073383302 0.6252426563357049
  outer loop
    vertex -68.21682241744742 -29.93056293603153 39.09796530065544
    vertex -66.34853951794763 -32.64970771306959 35.70391781452822
    vertex -61.31575455486652 -29.75226525628958 39.320517184181725
  endloop
endfacet
facet normal 0.0 -0.7804304073383302 0.6252426563357049
  outer loop
    vertex -61.31575455486652 -29.75226525628958 39.320517184181725
    vertex -66.34853951794763 -32.64970771306959 35.70391781452822
    vertex -60.00727073357541 -32.59637429512799 35.770488802075434
  endloop
endfacet
facet normal 0.0 -0.7804304073383302 0.6252426563357049
  outer loop
    vertex -61.31575455486652 -29.75226525628958 39.320517184181725
    vertex -60.00727073357541 -32.59637429512799 35.770488802075434
    vertex -54.433362950389366 -30.116166607431158 38.866294048852474
  endloop
endfacet
facet normal 0.0 -0.7804304073383302 0.6252426563357049
  outer loop
    vertex -54.433362950389366 -30.116166607431158 38.866294048852474
    vertex -60.00727073357541 -32.59637429512799 35.770488802075434
    vertex -53.70531377881898 -33.04038660953906 35.21627083903707
  endloop
endfacet
facet normal 0.0 -0.7804304073383302 0.6252426563357049
  outer loop
    vertex -54.433362950389366 -30.116166607431158 38.866294048852474
    vertex -53.70531377881898 -33.04038660953906 35.21627083903707
    vertex -47.67818703095993 -31.01652804776466 37.742459264851554
  endloop
endfacet
facet normal 0.0 -0.7804304073383302 0.6252426563357049
  outer loop
    vertex -47.67818703095993 -31.01652804776466 37.742459264851554
    vertex -53.70531377881898 -33.04038660953906 35.21627083903707
    vertex -47.54205427946152 -33.974742316864436 34.050004273764024
  endloop
endfacet
facet normal 0.0 -0.7804304073383302 0.6252426563357049
  outer loop
    vertex -47.67818703095993 -31.01652804776466 37.742459264851554
    vertex -47.54205427946152 -33.974742316864436 34.050004273764024
    vertex -41.15675995617414 -32.439150339526186 35.966736378068994
  endloop
endfacet
facet normal 0.0 -0.7804304073383302 0.6252426563357049
  outer loop
    vertex -41.15675995617414 -32.439150339526186 35.966736378068994
    vertex -47.54205427946152 -33.974742316864436 34.050004273764024
    vertex -41.61469051956056 -35.38470606944258 32.29008182668449
  endloop
endfacet
facet normal 0.0 -0.7804304073383302 0.6252426563357049
  outer loop
    vertex -41.15675995617414 -32.439150339526186 35.966736378068994
    vertex -41.61469051956056 -35.38470606944258 32.29008182668449
    vertex -36.01670056644526 -37.24804189662381 29.96425852611563
  endloop
endfacet
facet normal 0.0 -0.7804304073383302 0.6252426563357049
  outer loop
    vertex -41.15675995617414 -32.439150339526186 35.966736378068994
    vertex -36.01670056644526 -37.24804189662381 29.96425852611563
    vertex -34.971928526713086 -34.361597879341254 33.56712959919483
  endloop
endfacet
facet normal 0.0 -0.7804304073383302 0.6252426563357049
  outer loop
    vertex -34.971928526713086 -34.361597879341254 33.56712959919483
    vertex -36.01670056644526 -37.24804189662381 29.96425852611563
    vertex -30.836368065753366 -39.535363879310594 27.109213994886925
  endloop
endfacet
facet normal 0.0 -0.7804304073383302 0.6252426563357049
  outer loop
    vertex -34.971928526713086 -34.361597879341254 33.56712959919483
    vertex -30.836368065753366 -39.535363879310594 27.109213994886925
    vertex -29.22123122885856 -36.75355252109252 30.58148216058748
  endloop
endfacet
facet normal 0.0 -0.7804304073383302 0.6252426563357049
  outer loop
    vertex -29.22123122885856 -36.75355252109252 30.58148216058748
    vertex -30.836368065753366 -39.535363879310594 27.109213994886925
    vertex -26.155389955601425 -42.210599583456045 23.769973990776776
  endloop
endfacet
facet normal 0.0 -0.7804304073383302 0.6252426563357049
  outer loop
    vertex -29.22123122885856 -36.75355252109252 30.58148216058748
    vertex -26.155389955601425 -42.210599583456045 23.769973990776776
    vertex -23.995359994297832 -39.57729171119508 27.056879505893175
  endloop
endfacet
facet normal 0.0 -0.7804304073383302 0.6252426563357049
  outer loop
    vertex -23.995359994297832 -39.57729171119508 27.056879505893175
    vertex -26.155389955601425 -42.210599583456045 23.769973990776776
    vertex -22.047588057067294 -45.23155894389745 19.99920032341529
  endloop
endfacet
facet normal 0.0 -0.7804304073383302 0.6252426563357049
  outer loop
    vertex -23.995359994297832 -39.57729171119508 27.056879505893175
    vertex -22.047588057067294 -45.23155894389745 19.99920032341529
    vertex -19.37672993418399 -42.788283395801045 23.04890672447193
  endloop
endfacet
facet normal 0.0 -0.7804304073383302 0.6252426563357049
  outer loop
    vertex -19.37672993418399 -42.788283395801045 23.04890672447193
    vertex -22.047588057067294 -45.23155894389745 19.99920032341529
    vertex -18.577744859972814 -48.550599626886964 15.856360346087783
  endloop
endfacet
facet normal 0.0 -0.7804304073383302 0.6252426563357049
  outer loop
    vertex -19.37672993418399 -42.788283395801045 23.04890672447193
    vertex -18.577744859972814 -48.550599626886964 15.856360346087783
    vertex -15.438179603600965 -46.335888317890685 18.62077194133369
  endloop
endfacet
facet normal 0.0 -0.7804304073383302 0.6252426563357049
  outer loop
    vertex -15.438179603600965 -46.335888317890685 18.62077194133369
    vertex -18.577744859972814 -48.550599626886964 15.856360346087783
    vertex -15.80058186431995 -52.11537837815511 11.4067891200493
  endloop
endfacet
facet normal 0.0 -0.7804304073383302 0.6252426563357049
  outer loop
    vertex -15.438179603600965 -46.335888317890685 18.62077194133369
    vertex -15.80058186431995 -52.11537837815511 11.4067891200493
    vertex -13.759896589546944 -55.869676507298735 6.720659041579526
  endloop
endfacet
facet normal 0.0 -0.7804304073383302 0.6252426563357049
  outer loop
    vertex -15.438179603600965 -46.335888317890685 18.62077194133369
    vertex -13.759896589546944 -55.869676507298735 6.720659041579526
    vertex -12.241822294037938 -50.16415862860621 13.842309487248025
  endloop
endfacet
facet normal 0.0 -0.7804304073383302 0.6252426563357049
  outer loop
    vertex -12.241822294037938 -50.16415862860621 13.842309487248025
    vertex -13.759896589546944 -55.869676507298735 6.720659041579526
    vertex -12.487871861483255 -59.75428649011225 1.8718731813743343
  endloop
endfacet
facet normal 0.0 -0.7804304073383302 0.6252426563357049
  outer loop
    vertex -12.241822294037938 -50.16415862860621 13.842309487248025
    vertex -12.487871861483255 -59.75428649011225 1.8718731813743343
    vertex -12.004568269961196 -63.70794570661318 -3.0631002110265753
  endloop
endfacet
facet normal 0.0 -0.7804304073383302 0.6252426563357049
  outer loop
    vertex -12.241822294037938 -50.16415862860621 13.842309487248025
    vertex -12.004568269961196 -63.70794570661318 -3.0631002110265753
    vertex -9.838066469678047 -54.21272021824977 8.788878569631008
  endloop
endfacet
facet normal 0.0 0.7804304073383302 -0.6252426563357049
  outer loop
    vertex -117.36112530466903 -59.56532439941927 -4.689624497994247
    vertex -123.4041987613225 -60.81580971209067 -6.250485312670905
    vertex -123.4041987613225 -59.56532439941927 -4.689624497994247
  endloop
endfacet
facet normal 0.0 0.7804304073383302 -0.6252426563357049
  outer loop
    vertex -123.4041987613225 -60.81580971209067 -6.250485312670905
    vertex -117.36112530466903 -59.56532439941927 -4.689624497994247
    vertex -117.40419876132252 -60.81580971209067 -6.250485312670905
  endloop
endfacet
facet normal -1.0 0.0 0.0
  outer loop
    vertex -1.5958012386773561 -63.937531341444 -3.7495146873280856
    vertex -1.5958012386773561 -60.81580971209068 -6.250485312670905
    vertex -1.5958012386773561 -62.37667052676734 -4.9999999999994955
  endloop
endfacet
facet normal -1.0 0.0 0.0
  outer loop
    vertex -1.5958012386773561 -60.81580971209068 -6.250485312670905
    vertex -1.5958012386773561 -63.937531341444 -3.7495146873280856
    vertex -1.5958012386773561 -59.56532439941927 -4.689624497994247
  endloop
endfacet
facet normal -1.0 0.0 0.0
  outer loop
    vertex -1.5958012386773561 -59.56532439941927 -4.689624497994247
    vertex -1.5958012386773561 -63.937531341444 -3.7495146873280856
    vertex -1.5958012386773561 -62.68704602877259 -2.188653872651429
  endloop
endfacet
facet normal 0.0 -0.7804304073383302 0.6252426563357049
  outer loop
    vertex -117.40419876132252 -63.937531341444 -3.7495146873280856
    vertex -123.4041987613225 -62.68704602877259 -2.188653872651429
    vertex -123.4041987613225 -63.937531341444 -3.7495146873280856
  endloop
endfacet
facet normal 0.0 -0.7804304073383302 0.6252426563357049
  outer loop
    vertex -123.4041987613225 -62.68704602877259 -2.188653872651429
    vertex -117.40419876132252 -63.937531341444 -3.7495146873280856
    vertex -117.36112530466903 -62.68704602877259 -2.188653872651429
  endloop
endfacet
facet normal -0.11197755110445923 -0.6213103405856661 -0.7755220749469172
  outer loop
    vertex -53.70531377881898 -33.04038660953906 35.21627083903707
    vertex -60.00727073357541 -29.0844374621055 32.95689684856476
    vertex -53.70531377881898 -29.528449776516577 32.4026788855264
  endloop
endfacet
facet normal -0.11197755110445923 -0.6213103405856661 -0.7755220749469172
  outer loop
    vertex -60.00727073357541 -29.0844374621055 32.95689684856476
    vertex -53.70531377881898 -33.04038660953906 35.21627083903707
    vertex -60.00727073357541 -32.59637429512799 35.770488802075434
  endloop
endfacet
facet normal 0.5986136871441733 -0.500843039571988 -0.625154303573086
  outer loop
    vertex -90.13031125642001 -37.70316592832716 29.39617087270224
    vertex -95.21036718064111 -36.56484636095718 23.61982026744681
    vertex -90.13031125642001 -34.19122909530467 26.58257891919157
  endloop
endfacet
facet normal 0.5986136871441733 -0.500843039571988 -0.625154303573086
  outer loop
    vertex -95.21036718064111 -36.56484636095718 23.61982026744681
    vertex -90.13031125642001 -37.70316592832716 29.39617087270224
    vertex -95.21036718064111 -40.07678319397968 26.43341222095748
  endloop
endfacet
facet normal -0.9468140791886799 -0.20119129219700907 -0.25112778299939276
  outer loop
    vertex -15.80058186431995 -52.11537837815511 11.4067891200493
    vertex -13.759896589546944 -52.357739674276246 3.9070670880688545
    vertex -13.759896589546944 -55.869676507298735 6.720659041579526
  endloop
endfacet
facet normal -0.9468140791886799 -0.20119129219700907 -0.25112778299939276
  outer loop
    vertex -13.759896589546944 -52.357739674276246 3.9070670880688545
    vertex -15.80058186431995 -52.11537837815511 11.4067891200493
    vertex -15.80058186431995 -48.603441545132625 8.59319716653863
  endloop
endfacet
facet normal 0.8514586344277837 -0.3278908611162296 -0.4092746963285554
  outer loop
    vertex -103.75091287286989 -42.40679020259177 16.327882384170675
    vertex -107.07671313343643 -49.29492266740566 14.927293322561773
    vertex -107.07671313343643 -45.782985834383176 12.113701369051103
  endloop
endfacet
facet normal 0.8514586344277837 -0.3278908611162296 -0.4092746963285554
  outer loop
    vertex -107.07671313343643 -49.29492266740566 14.927293322561773
    vertex -103.75091287286989 -42.40679020259177 16.327882384170675
    vertex -103.75091287286989 -45.91872703561425 19.14147433768135
  endloop
endfacet
facet normal -0.8990182971066305 -0.2738006779606258 -0.34175911138665493
  outer loop
    vertex -18.577744859972814 -48.550599626886964 15.856360346087783
    vertex -15.80058186431995 -48.603441545132625 8.59319716653863
    vertex -15.80058186431995 -52.11537837815511 11.4067891200493
  endloop
endfacet
facet normal -0.8990182971066305 -0.2738006779606258 -0.34175911138665493
  outer loop
    vertex -15.80058186431995 -48.603441545132625 8.59319716653863
    vertex -18.577744859972814 -48.550599626886964 15.856360346087783
    vertex -18.577744859972814 -45.03866279386448 13.042768392577113
  endloop
endfacet
facet normal 0.9551268867515339 -0.18519496466603422 -0.2311611024084045
  outer loop
    vertex -109.69951199905097 -49.39318111546713 7.607441047179375
    vertex -111.57794636481871 -56.69237794265736 5.6937597892514376
    vertex -111.57794636481871 -53.18044110963487 2.880167835740766
  endloop
endfacet
facet normal 0.9551268867515339 -0.18519496466603422 -0.2311611024084045
  outer loop
    vertex -111.57794636481871 -56.69237794265736 5.6937597892514376
    vertex -109.69951199905097 -49.39318111546713 7.607441047179375
    vertex -109.69951199905097 -52.90511794848962 10.421033000690045
  endloop
endfacet
facet normal -0.23563955451448676 -0.607636149557239 -0.7584538945113717
  outer loop
    vertex -47.54205427946152 -33.974742316864436 34.050004273764024
    vertex -53.70531377881898 -29.528449776516577 32.4026788855264
    vertex -47.54205427946152 -30.46280548384195 31.236412320253358
  endloop
endfacet
facet normal -0.23563955451448676 -0.607636149557239 -0.7584538945113717
  outer loop
    vertex -53.70531377881898 -29.528449776516577 32.4026788855264
    vertex -47.54205427946152 -33.974742316864436 34.050004273764024
    vertex -53.70531377881898 -33.04038660953906 35.21627083903707
  endloop
endfacet
facet normal 0.38059712230710574 -0.5781874899897887 -0.7216959587740934
  outer loop
    vertex -78.74994736522535 -34.23721717191586 33.72238210024766
    vertex -84.6145088181373 -32.23442040729984 29.02507542192992
    vertex -78.74994736522535 -30.725280338893374 30.908790146736987
  endloop
endfacet
facet normal 0.38059712230710574 -0.5781874899897887 -0.7216959587740934
  outer loop
    vertex -84.6145088181373 -32.23442040729984 29.02507542192992
    vertex -78.74994736522535 -34.23721717191586 33.72238210024766
    vertex -84.6145088181373 -35.746357240322325 31.83866737544059
  endloop
endfacet
facet normal 0.6942901046571271 -0.44998416886425857 -0.5616720558713403
  outer loop
    vertex -95.21036718064111 -40.07678319397968 26.43341222095748
    vertex -99.77456107419728 -39.31783884204782 20.183523940499885
    vertex -95.21036718064111 -36.56484636095718 23.61982026744681
  endloop
endfacet
facet normal 0.6942901046571271 -0.44998416886425857 -0.5616720558713403
  outer loop
    vertex -99.77456107419728 -39.31783884204782 20.183523940499885
    vertex -95.21036718064111 -40.07678319397968 26.43341222095748
    vertex -99.77456107419728 -42.8297756750703 22.997115894010555
  endloop
endfacet
facet normal -0.5768504744026852 -0.5107293136813056 -0.6374943908208289
  outer loop
    vertex -30.836368065753366 -39.535363879310594 27.109213994886925
    vertex -36.01670056644526 -33.73610506360133 27.15066657260496
    vertex -30.836368065753366 -36.023427046288106 24.295622041376255
  endloop
endfacet
facet normal -0.5768504744026852 -0.5107293136813056 -0.6374943908208289
  outer loop
    vertex -36.01670056644526 -33.73610506360133 27.15066657260496
    vertex -30.836368065753366 -39.535363879310594 27.109213994886925
    vertex -36.01670056644526 -37.24804189662381 29.96425852611563
  endloop
endfacet
facet normal 0.26169522644725335 -0.6034533015134371 -0.7532328466996469
  outer loop
    vertex -72.62911453511575 -33.19954576350312 35.0176077406366
    vertex -78.74994736522535 -30.725280338893374 30.908790146736987
    vertex -72.62911453511575 -29.68760893048063 32.204015787125925
  endloop
endfacet
facet normal 0.26169522644725335 -0.6034533015134371 -0.7532328466996469
  outer loop
    vertex -78.74994736522535 -30.725280338893374 30.908790146736987
    vertex -72.62911453511575 -33.19954576350312 35.0176077406366
    vertex -78.74994736522535 -34.23721717191586 33.72238210024766
  endloop
endfacet
facet normal -0.6746802578544644 -0.4614979322728443 -0.5760435818315511
  outer loop
    vertex -26.155389955601425 -42.210599583456045 23.769973990776776
    vertex -30.836368065753366 -36.023427046288106 24.295622041376255
    vertex -26.155389955601425 -38.69866275043356 20.956382037266106
  endloop
endfacet
facet normal -0.6746802578544644 -0.4614979322728443 -0.5760435818315511
  outer loop
    vertex -30.836368065753366 -36.023427046288106 24.295622041376255
    vertex -26.155389955601425 -42.210599583456045 23.769973990776776
    vertex -30.836368065753366 -39.535363879310594 27.109213994886925
  endloop
endfacet
facet normal -0.76186993060543 -0.40498845278693746 -0.5055082214450323
  outer loop
    vertex -26.155389955601425 -42.210599583456045 23.769973990776776
    vertex -22.047588057067294 -41.71962211087496 17.18560836990462
    vertex -22.047588057067294 -45.23155894389745 19.99920032341529
  endloop
endfacet
facet normal -0.76186993060543 -0.40498845278693746 -0.5055082214450323
  outer loop
    vertex -22.047588057067294 -41.71962211087496 17.18560836990462
    vertex -26.155389955601425 -42.210599583456045 23.769973990776776
    vertex -26.155389955601425 -38.69866275043356 20.956382037266106
  endloop
endfacet
facet normal 0.7790171524708337 -0.3920287790060267 -0.4893319043218806
  outer loop
    vertex -99.77456107419728 -39.31783884204782 20.183523940499885
    vertex -103.75091287286989 -45.91872703561425 19.14147433768135
    vertex -103.75091287286989 -42.40679020259177 16.327882384170675
  endloop
endfacet
facet normal 0.7790171524708337 -0.3920287790060267 -0.4893319043218806
  outer loop
    vertex -103.75091287286989 -45.91872703561425 19.14147433768135
    vertex -99.77456107419728 -39.31783884204782 20.183523940499885
    vertex -99.77456107419728 -42.8297756750703 22.997115894010555
  endloop
endfacet
facet normal 0.9987810040697136 -0.03086258748643612 -0.03852280627286784
  outer loop
    vertex -112.96186259076045 -62.37667052676746 -4.999999999999654
    vertex -112.68239219866922 -60.59697529740139 0.8200256107264945
    vertex -112.96186259076048 -64.13263894327908 -3.5932040232447924
  endloop
endfacet
facet normal 0.9987810040697136 -0.03086258748643612 -0.03852280627286784
  outer loop
    vertex -112.68239219866922 -60.59697529740139 0.8200256107264945
    vertex -112.96186259076045 -62.37667052676746 -4.999999999999654
    vertex -112.96186259076042 -60.6207021102561 -6.40679597675483
  endloop
endfacet
facet normal 0.9987810040697136 -0.03086258748643612 -0.03852280627286784
  outer loop
    vertex -112.68239219866922 -60.59697529740139 0.8200256107264945
    vertex -112.96186259076042 -60.6207021102561 -6.40679597675483
    vertex -112.68239219866922 -57.085038464378904 -1.9935663427841779
  endloop
endfacet
facet normal -0.35558538138557644 -0.5843791734660526 -0.7294244430809865
  outer loop
    vertex -41.61469051956056 -35.38470606944258 32.29008182668449
    vertex -47.54205427946152 -30.46280548384195 31.236412320253358
    vertex -41.61469051956056 -31.872769236420098 29.47648987317382
  endloop
endfacet
facet normal -0.35558538138557644 -0.5843791734660526 -0.7294244430809865
  outer loop
    vertex -47.54205427946152 -30.46280548384195 31.236412320253358
    vertex -41.61469051956056 -35.38470606944258 32.29008182668449
    vertex -47.54205427946152 -33.974742316864436 34.050004273764024
  endloop
endfacet
facet normal 0.0 0.7804304073383302 -0.6252426563357049
  outer loop
    vertex -117.3043849299907 -57.722960907687245 -2.7898237114018527
    vertex -112.96186259076042 -60.6207021102561 -6.40679597675483
    vertex -117.40419876132249 -60.6207021102561 -6.40679597675483
  endloop
endfacet
facet normal 0.0 0.7804304073383302 -0.6252426563357049
  outer loop
    vertex -112.96186259076042 -60.6207021102561 -6.40679597675483
    vertex -117.3043849299907 -57.722960907687245 -2.7898237114018527
    vertex -116.2913682675918 -53.45113696664251 2.5422841743997933
  endloop
endfacet
facet normal 0.0 0.7804304073383302 -0.6252426563357049
  outer loop
    vertex -112.96186259076042 -60.6207021102561 -6.40679597675483
    vertex -116.2913682675918 -53.45113696664251 2.5422841743997933
    vertex -114.43002959420713 -49.29238135080315 7.73325972029639
  endloop
endfacet
facet normal 0.0 0.7804304073383302 -0.6252426563357049
  outer loop
    vertex -112.96186259076042 -60.6207021102561 -6.40679597675483
    vertex -114.43002959420713 -49.29238135080315 7.73325972029639
    vertex -112.68239219866922 -57.085038464378904 -1.9935663427841779
  endloop
endfacet
facet normal 0.0 0.7804304073383302 -0.6252426563357049
  outer loop
    vertex -112.68239219866922 -57.085038464378904 -1.9935663427841779
    vertex -114.43002959420713 -49.29238135080315 7.73325972029639
    vertex -111.74972333262579 -45.31228012055119 12.701238140990625
  endloop
endfacet
facet normal 0.0 0.7804304073383302 -0.6252426563357049
  outer loop
    vertex -112.68239219866922 -57.085038464378904 -1.9935663427841779
    vertex -111.74972333262579 -45.31228012055119 12.701238140990625
    vertex -111.57794636481871 -53.18044110963487 2.880167835740766
  endloop
endfacet
facet normal 0.0 0.7804304073383302 -0.6252426563357049
  outer loop
    vertex -111.57794636481871 -53.18044110963487 2.880167835740766
    vertex -111.74972333262579 -45.31228012055119 12.701238140990625
    vertex -108.2927195137303 -41.573601849884895 17.367871449061745
  endloop
endfacet
facet normal 0.0 0.7804304073383302 -0.6252426563357049
  outer loop
    vertex -111.57794636481871 -53.18044110963487 2.880167835740766
    vertex -108.2927195137303 -41.573601849884895 17.367871449061745
    vertex -109.69951199905097 -49.39318111546713 7.607441047179375
  endloop
endfacet
facet normal 0.0 0.7804304073383302 -0.6252426563357049
  outer loop
    vertex -109.69951199905097 -49.39318111546713 7.607441047179375
    vertex -108.2927195137303 -41.573601849884895 17.367871449061745
    vertex -107.07671313343643 -45.782985834383176 12.113701369051103
  endloop
endfacet
facet normal 0.0 0.7804304073383302 -0.6252426563357049
  outer loop
    vertex -107.07671313343643 -45.782985834383176 12.113701369051103
    vertex -108.2927195137303 -41.573601849884895 17.367871449061745
    vertex -104.11353715285858 -38.135307728510824 21.65956404952983
  endloop
endfacet
facet normal 0.0 0.7804304073383302 -0.6252426563357049
  outer loop
    vertex -107.07671313343643 -45.782985834383176 12.113701369051103
    vertex -104.11353715285858 -38.135307728510824 21.65956404952983
    vertex -103.75091287286989 -42.40679020259177 16.327882384170675
  endloop
endfacet
facet normal 0.0 0.7804304073383302 -0.6252426563357049
  outer loop
    vertex -103.75091287286989 -42.40679020259177 16.327882384170675
    vertex -104.11353715285858 -38.135307728510824 21.65956404952983
    vertex -99.27808445236414 -35.0516217086604 25.508633386352596
  endloop
endfacet
facet normal 0.0 0.7804304073383302 -0.6252426563357049
  outer loop
    vertex -103.75091287286989 -42.40679020259177 16.327882384170675
    vertex -99.27808445236414 -35.0516217086604 25.508633386352596
    vertex -99.77456107419728 -39.31783884204782 20.183523940499885
  endloop
endfacet
facet normal 0.0 0.7804304073383302 -0.6252426563357049
  outer loop
    vertex -99.77456107419728 -39.31783884204782 20.183523940499885
    vertex -99.27808445236414 -35.0516217086604 25.508633386352596
    vertex -95.21036718064111 -36.56484636095718 23.61982026744681
  endloop
endfacet
facet normal 0.0 0.7804304073383302 -0.6252426563357049
  outer loop
    vertex -95.21036718064111 -36.56484636095718 23.61982026744681
    vertex -99.27808445236414 -35.0516217086604 25.508633386352596
    vertex -93.86261938989323 -32.37117536097142 28.85437733676578
  endloop
endfacet
facet normal 0.0 0.7804304073383302 -0.6252426563357049
  outer loop
    vertex -95.21036718064111 -36.56484636095718 23.61982026744681
    vertex -93.86261938989323 -32.37117536097142 28.85437733676578
    vertex -90.13031125642001 -34.19122909530467 26.58257891919157
  endloop
endfacet
facet normal 0.0 0.7804304073383302 -0.6252426563357049
  outer loop
    vertex -90.13031125642001 -34.19122909530467 26.58257891919157
    vertex -93.86261938989323 -32.37117536097142 28.85437733676578
    vertex -87.95254708452298 -30.136240925567936 31.64403152002083
  endloop
endfacet
facet normal 0.0 0.7804304073383302 -0.6252426563357049
  outer loop
    vertex -90.13031125642001 -34.19122909530467 26.58257891919157
    vertex -87.95254708452298 -30.136240925567936 31.64403152002083
    vertex -84.6145088181373 -32.23442040729984 29.02507542192992
  endloop
endfacet
facet normal 0.0 0.7804304073383302 -0.6252426563357049
  outer loop
    vertex -84.6145088181373 -32.23442040729984 29.02507542192992
    vertex -87.95254708452298 -30.136240925567936 31.64403152002083
    vertex -81.64107290701516 -28.382064653581406 33.833601423189165
  endloop
endfacet
facet normal 0.0 0.7804304073383302 -0.6252426563357049
  outer loop
    vertex -84.6145088181373 -32.23442040729984 29.02507542192992
    vertex -81.64107290701516 -28.382064653581406 33.833601423189165
    vertex -78.74994736522535 -30.725280338893374 30.908790146736987
  endloop
endfacet
facet normal 0.0 0.7804304073383302 -0.6252426563357049
  outer loop
    vertex -78.74994736522535 -30.725280338893374 30.908790146736987
    vertex -81.64107290701516 -28.382064653581406 33.833601423189165
    vertex -75.02773257544096 -27.136310952715156 35.388556220912164
  endloop
endfacet
facet normal 0.0 0.7804304073383302 -0.6252426563357049
  outer loop
    vertex -78.74994736522535 -30.725280338893374 30.908790146736987
    vertex -75.02773257544096 -27.136310952715156 35.388556220912164
    vertex -72.62911453511575 -29.68760893048063 32.204015787125925
  endloop
endfacet
facet normal 0.0 0.7804304073383302 -0.6252426563357049
  outer loop
    vertex -72.62911453511575 -29.68760893048063 32.204015787125925
    vertex -75.02773257544096 -27.136310952715156 35.388556220912164
    vertex -68.21682241744742 -26.418626103009046 36.28437334714477
  endloop
endfacet
facet normal 0.0 0.7804304073383302 -0.6252426563357049
  outer loop
    vertex -72.62911453511575 -29.68760893048063 32.204015787125925
    vertex -68.21682241744742 -26.418626103009046 36.28437334714477
    vertex -66.34853951794763 -29.137770880047103 32.890325861017544
  endloop
endfacet
facet normal 0.0 0.7804304073383302 -0.6252426563357049
  outer loop
    vertex -66.34853951794763 -29.137770880047103 32.890325861017544
    vertex -68.21682241744742 -26.418626103009046 36.28437334714477
    vertex -61.31575455486652 -26.240328423267094 36.50692523067106
  endloop
endfacet
facet normal 0.0 0.7804304073383302 -0.6252426563357049
  outer loop
    vertex -66.34853951794763 -29.137770880047103 32.890325861017544
    vertex -61.31575455486652 -26.240328423267094 36.50692523067106
    vertex -60.00727073357541 -29.0844374621055 32.95689684856476
  endloop
endfacet
facet normal 0.0 0.7804304073383302 -0.6252426563357049
  outer loop
    vertex -60.00727073357541 -29.0844374621055 32.95689684856476
    vertex -61.31575455486652 -26.240328423267094 36.50692523067106
    vertex -54.433362950389366 -26.604229774408672 36.05270209534181
  endloop
endfacet
facet normal 0.0 0.7804304073383302 -0.6252426563357049
  outer loop
    vertex -60.00727073357541 -29.0844374621055 32.95689684856476
    vertex -54.433362950389366 -26.604229774408672 36.05270209534181
    vertex -53.70531377881898 -29.528449776516577 32.4026788855264
  endloop
endfacet
facet normal 0.0 0.7804304073383302 -0.6252426563357049
  outer loop
    vertex -53.70531377881898 -29.528449776516577 32.4026788855264
    vertex -54.433362950389366 -26.604229774408672 36.05270209534181
    vertex -47.67818703095993 -27.504591214742177 34.92886731134088
  endloop
endfacet
facet normal 0.0 0.7804304073383302 -0.6252426563357049
  outer loop
    vertex -53.70531377881898 -29.528449776516577 32.4026788855264
    vertex -47.67818703095993 -27.504591214742177 34.92886731134088
    vertex -47.54205427946152 -30.46280548384195 31.236412320253358
  endloop
endfacet
facet normal 0.0 0.7804304073383302 -0.6252426563357049
  outer loop
    vertex -47.54205427946152 -30.46280548384195 31.236412320253358
    vertex -47.67818703095993 -27.504591214742177 34.92886731134088
    vertex -41.15675995617414 -28.9272135065037 33.15314442455832
  endloop
endfacet
facet normal 0.0 0.7804304073383302 -0.6252426563357049
  outer loop
    vertex -47.54205427946152 -30.46280548384195 31.236412320253358
    vertex -41.15675995617414 -28.9272135065037 33.15314442455832
    vertex -41.61469051956056 -31.872769236420098 29.47648987317382
  endloop
endfacet
facet normal 0.0 0.7804304073383302 -0.6252426563357049
  outer loop
    vertex -41.61469051956056 -31.872769236420098 29.47648987317382
    vertex -41.15675995617414 -28.9272135065037 33.15314442455832
    vertex -36.01670056644526 -33.73610506360133 27.15066657260496
  endloop
endfacet
facet normal 0.0 0.7804304073383302 -0.6252426563357049
  outer loop
    vertex -36.01670056644526 -33.73610506360133 27.15066657260496
    vertex -41.15675995617414 -28.9272135065037 33.15314442455832
    vertex -34.971928526713086 -30.849661046318772 30.753537645684162
  endloop
endfacet
facet normal 0.0 0.7804304073383302 -0.6252426563357049
  outer loop
    vertex -36.01670056644526 -33.73610506360133 27.15066657260496
    vertex -34.971928526713086 -30.849661046318772 30.753537645684162
    vertex -30.836368065753366 -36.023427046288106 24.295622041376255
  endloop
endfacet
facet normal 0.0 0.7804304073383302 -0.6252426563357049
  outer loop
    vertex -30.836368065753366 -36.023427046288106 24.295622041376255
    vertex -34.971928526713086 -30.849661046318772 30.753537645684162
    vertex -29.22123122885856 -33.24161568807004 27.76789020707681
  endloop
endfacet
facet normal 0.0 0.7804304073383302 -0.6252426563357049
  outer loop
    vertex -30.836368065753366 -36.023427046288106 24.295622041376255
    vertex -29.22123122885856 -33.24161568807004 27.76789020707681
    vertex -26.155389955601425 -38.69866275043356 20.956382037266106
  endloop
endfacet
facet normal 0.0 0.7804304073383302 -0.6252426563357049
  outer loop
    vertex -26.155389955601425 -38.69866275043356 20.956382037266106
    vertex -29.22123122885856 -33.24161568807004 27.76789020707681
    vertex -23.995359994297832 -36.0653548781726 24.243287552382505
  endloop
endfacet
facet normal 0.0 0.7804304073383302 -0.6252426563357049
  outer loop
    vertex -26.155389955601425 -38.69866275043356 20.956382037266106
    vertex -23.995359994297832 -36.0653548781726 24.243287552382505
    vertex -22.047588057067294 -41.71962211087496 17.18560836990462
  endloop
endfacet
facet normal 0.0 0.7804304073383302 -0.6252426563357049
  outer loop
    vertex -22.047588057067294 -41.71962211087496 17.18560836990462
    vertex -23.995359994297832 -36.0653548781726 24.243287552382505
    vertex -19.37672993418399 -39.276346562778556 20.23531477096126
  endloop
endfacet
facet normal 0.0 0.7804304073383302 -0.6252426563357049
  outer loop
    vertex -22.047588057067294 -41.71962211087496 17.18560836990462
    vertex -19.37672993418399 -39.276346562778556 20.23531477096126
    vertex -18.577744859972814 -45.03866279386448 13.042768392577113
  endloop
endfacet
facet normal 0.0 0.7804304073383302 -0.6252426563357049
  outer loop
    vertex -18.577744859972814 -45.03866279386448 13.042768392577113
    vertex -19.37672993418399 -39.276346562778556 20.23531477096126
    vertex -15.438179603600965 -42.8239514848682 15.807179987823016
  endloop
endfacet
facet normal 0.0 0.7804304073383302 -0.6252426563357049
  outer loop
    vertex -18.577744859972814 -45.03866279386448 13.042768392577113
    vertex -15.438179603600965 -42.8239514848682 15.807179987823016
    vertex -15.80058186431995 -48.603441545132625 8.59319716653863
  endloop
endfacet
facet normal 0.0 0.7804304073383302 -0.6252426563357049
  outer loop
    vertex -15.80058186431995 -48.603441545132625 8.59319716653863
    vertex -15.438179603600965 -42.8239514848682 15.807179987823016
    vertex -13.759896589546944 -52.357739674276246 3.9070670880688545
  endloop
endfacet
facet normal 0.0 0.7804304073383302 -0.6252426563357049
  outer loop
    vertex -13.759896589546944 -52.357739674276246 3.9070670880688545
    vertex -15.438179603600965 -42.8239514848682 15.807179987823016
    vertex -12.241822294037938 -46.65222179558373 11.028717533737355
  endloop
endfacet
facet normal 0.0 0.7804304073383302 -0.6252426563357049
  outer loop
    vertex -13.759896589546944 -52.357739674276246 3.9070670880688545
    vertex -12.241822294037938 -46.65222179558373 11.028717533737355
    vertex -12.487871861483255 -56.24234965708977 -0.9417187721363371
  endloop
endfacet
facet normal 0.0 0.7804304073383302 -0.6252426563357049
  outer loop
    vertex -12.487871861483255 -56.24234965708977 -0.9417187721363371
    vertex -12.241822294037938 -46.65222179558373 11.028717533737355
    vertex -12.004568269961196 -60.196008873590706 -5.876692164537246
  endloop
endfacet
facet normal 0.0 0.7804304073383302 -0.6252426563357049
  outer loop
    vertex -12.004568269961196 -60.196008873590706 -5.876692164537246
    vertex -12.241822294037938 -46.65222179558373 11.028717533737355
    vertex -9.838066469678047 -50.70078338522729 5.975286616120337
  endloop
endfacet
facet normal 0.0 0.7804304073383302 -0.6252426563357049
  outer loop
    vertex -12.004568269961196 -60.196008873590706 -5.876692164537246
    vertex -7.595801238677323 -60.6207021102561 -6.40679597675483
    vertex -12.038137409239415 -60.6207021102561 -6.40679597675483
  endloop
endfacet
facet normal 0.0 0.7804304073383302 -0.6252426563357049
  outer loop
    vertex -7.595801238677323 -60.6207021102561 -6.40679597675483
    vertex -12.004568269961196 -60.196008873590706 -5.876692164537246
    vertex -9.838066469678047 -50.70078338522729 5.975286616120337
  endloop
endfacet
facet normal 0.0 0.7804304073383302 -0.6252426563357049
  outer loop
    vertex -7.595801238677323 -60.6207021102561 -6.40679597675483
    vertex -9.838066469678047 -50.70078338522729 5.975286616120337
    vertex -8.264820795805536 -54.905788019036784 0.7265828593160435
  endloop
endfacet
facet normal 0.0 0.7804304073383302 -0.6252426563357049
  outer loop
    vertex -7.595801238677323 -60.6207021102561 -6.40679597675483
    vertex -8.264820795805536 -54.905788019036784 0.7265828593160435
    vertex -7.546896296508832 -59.200920261988976 -4.634618543007021
  endloop
endfacet
facet normal 0.1386662405371775 -0.6192022939866895 -0.7728908026732542
  outer loop
    vertex -66.34853951794763 -32.64970771306959 35.70391781452822
    vertex -72.62911453511575 -29.68760893048063 32.204015787125925
    vertex -66.34853951794763 -29.137770880047103 32.890325861017544
  endloop
endfacet
facet normal 0.1386662405371775 -0.6192022939866895 -0.7728908026732542
  outer loop
    vertex -72.62911453511575 -29.68760893048063 32.204015787125925
    vertex -66.34853951794763 -32.64970771306959 35.70391781452822
    vertex -72.62911453511575 -33.19954576350312 35.0176077406366
  endloop
endfacet
facet normal 0.013450405178635435 -0.6251860963902506 -0.7803598089861181
  outer loop
    vertex -60.00727073357541 -32.59637429512799 35.770488802075434
    vertex -66.34853951794763 -29.137770880047103 32.890325861017544
    vertex -60.00727073357541 -29.0844374621055 32.95689684856476
  endloop
endfacet
facet normal 0.013450405178635435 -0.6251860963902506 -0.7803598089861181
  outer loop
    vertex -66.34853951794763 -29.137770880047103 32.890325861017544
    vertex -60.00727073357541 -32.59637429512799 35.770488802075434
    vertex -66.34853951794763 -32.64970771306959 35.70391781452822
  endloop
endfacet
facet normal -0.9796780376426089 -0.12540899956959214 -0.1565360194577629
  outer loop
    vertex -13.759896589546944 -55.869676507298735 6.720659041579526
    vertex -12.487871861483255 -56.24234965708977 -0.9417187721363371
    vertex -12.487871861483255 -59.75428649011225 1.8718731813743343
  endloop
endfacet
facet normal -0.9796780376426089 -0.12540899956959214 -0.1565360194577629
  outer loop
    vertex -12.487871861483255 -56.24234965708977 -0.9417187721363371
    vertex -13.759896589546944 -55.869676507298735 6.720659041579526
    vertex -13.759896589546944 -52.357739674276246 3.9070670880688545
  endloop
endfacet
facet normal -0.8370444594317108 -0.34209206347220666 -0.42700069443035243
  outer loop
    vertex -22.047588057067294 -45.23155894389745 19.99920032341529
    vertex -18.577744859972814 -45.03866279386448 13.042768392577113
    vertex -18.577744859972814 -48.550599626886964 15.856360346087783
  endloop
endfacet
facet normal -0.8370444594317108 -0.34209206347220666 -0.42700069443035243
  outer loop
    vertex -18.577744859972814 -45.03866279386448 13.042768392577113
    vertex -22.047588057067294 -45.23155894389745 19.99920032341529
    vertex -22.047588057067294 -41.71962211087496 17.18560836990462
  endloop
endfacet
facet normal 0.9847187468507753 -0.10888738563505314 -0.13591367425760453
  outer loop
    vertex -111.57794636481871 -53.18044110963487 2.880167835740766
    vertex -112.68239219866922 -60.59697529740139 0.8200256107264945
    vertex -112.68239219866922 -57.085038464378904 -1.9935663427841779
  endloop
endfacet
facet normal 0.9847187468507753 -0.10888738563505314 -0.13591367425760453
  outer loop
    vertex -112.68239219866922 -60.59697529740139 0.8200256107264945
    vertex -111.57794636481871 -53.18044110963487 2.880167835740766
    vertex -111.57794636481871 -56.69237794265736 5.6937597892514376
  endloop
endfacet
facet normal 0.9104721050830755 -0.25858190847412216 -0.3227629818852744
  outer loop
    vertex -107.07671313343643 -45.782985834383176 12.113701369051103
    vertex -109.69951199905097 -52.90511794848962 10.421033000690045
    vertex -109.69951199905097 -49.39318111546713 7.607441047179375
  endloop
endfacet
facet normal 0.9104721050830755 -0.25858190847412216 -0.3227629818852744
  outer loop
    vertex -109.69951199905097 -52.90511794848962 10.421033000690045
    vertex -107.07671313343643 -45.782985834383176 12.113701369051103
    vertex -107.07671313343643 -49.29492266740566 14.927293322561773
  endloop
endfacet
facet normal -0.46992341437580465 -0.5519061887181095 -0.6888915324461728
  outer loop
    vertex -36.01670056644526 -37.24804189662381 29.96425852611563
    vertex -41.61469051956056 -31.872769236420098 29.47648987317382
    vertex -36.01670056644526 -33.73610506360133 27.15066657260496
  endloop
endfacet
facet normal -0.46992341437580465 -0.5519061887181095 -0.6888915324461728
  outer loop
    vertex -41.61469051956056 -31.872769236420098 29.47648987317382
    vertex -36.01670056644526 -37.24804189662381 29.96425852611563
    vertex -41.61469051956056 -35.38470606944258 32.29008182668449
  endloop
endfacet
facet normal 0.4934967741904716 -0.5438033163565376 -0.6787774944584052
  outer loop
    vertex -84.6145088181373 -35.746357240322325 31.83866737544059
    vertex -90.13031125642001 -34.19122909530467 26.58257891919157
    vertex -84.6145088181373 -32.23442040729984 29.02507542192992
  endloop
endfacet
facet normal 0.4934967741904716 -0.5438033163565376 -0.6787774944584052
  outer loop
    vertex -90.13031125642001 -34.19122909530467 26.58257891919157
    vertex -84.6145088181373 -35.746357240322325 31.83866737544059
    vertex -90.13031125642001 -37.70316592832716 29.39617087270224
  endloop
endfacet
facet normal -0.6206857255176647 0.4902274168333225 0.6119038404222826
  outer loop
    vertex -99.27808445236414 -38.56355854168289 28.322225339863266
    vertex -93.86261938989323 -32.37117536097142 28.85437733676578
    vertex -99.27808445236414 -35.0516217086604 25.508633386352596
  endloop
endfacet
facet normal -0.6206857255176647 0.4902274168333225 0.6119038404222826
  outer loop
    vertex -93.86261938989323 -32.37117536097142 28.85437733676578
    vertex -99.27808445236414 -38.56355854168289 28.322225339863266
    vertex -93.86261938989323 -35.8831121939939 31.66796929027645
  endloop
endfacet
facet normal -0.16618752396104966 0.6165481365904267 0.7695778726981227
  outer loop
    vertex -75.02773257544096 -30.64824778573764 38.20214817442284
    vertex -68.21682241744742 -26.418626103009046 36.28437334714477
    vertex -75.02773257544096 -27.136310952715156 35.388556220912164
  endloop
endfacet
facet normal -0.16618752396104966 0.6165481365904267 0.7695778726981227
  outer loop
    vertex -68.21682241744742 -26.418626103009046 36.28437334714477
    vertex -75.02773257544096 -30.64824778573764 38.20214817442284
    vertex -68.21682241744742 -29.93056293603153 39.09796530065544
  endloop
endfacet
facet normal 0.8214854726772302 0.35653177194513735 0.4450243968300258
  outer loop
    vertex -19.37672993418399 -39.276346562778556 20.23531477096126
    vertex -15.438179603600965 -46.335888317890685 18.62077194133369
    vertex -15.438179603600965 -42.8239514848682 15.807179987823016
  endloop
endfacet
facet normal 0.8214854726772302 0.35653177194513735 0.4450243968300258
  outer loop
    vertex -15.438179603600965 -46.335888317890685 18.62077194133369
    vertex -19.37672993418399 -39.276346562778556 20.23531477096126
    vertex -19.37672993418399 -42.788283395801045 23.04890672447193
  endloop
endfacet
facet normal 0.08426520991360767 0.6230188947722167 0.7776546991788974
  outer loop
    vertex -61.31575455486652 -29.75226525628958 39.320517184181725
    vertex -54.433362950389366 -26.604229774408672 36.05270209534181
    vertex -61.31575455486652 -26.240328423267094 36.50692523067106
  endloop
endfacet
facet normal 0.08426520991360767 0.6230188947722167 0.7776546991788974
  outer loop
    vertex -54.433362950389366 -26.604229774408672 36.05270209534181
    vertex -61.31575455486652 -29.75226525628958 39.320517184181725
    vertex -54.433362950389366 -30.116166607431158 38.866294048852474
  endloop
endfacet
facet normal 0.4451630778017775 0.5598732334598102 0.698836029850569
  outer loop
    vertex -41.15675995617414 -32.439150339526186 35.966736378068994
    vertex -34.971928526713086 -30.849661046318772 30.753537645684162
    vertex -41.15675995617414 -28.9272135065037 33.15314442455832
  endloop
endfacet
facet normal 0.4451630778017775 0.5598732334598102 0.698836029850569
  outer loop
    vertex -34.971928526713086 -30.849661046318772 30.753537645684162
    vertex -41.15675995617414 -32.439150339526186 35.966736378068994
    vertex -34.971928526713086 -34.361597879341254 33.56712959919483
  endloop
endfacet
facet normal 0.9374872918972658 0.21759664126359213 0.2716050059220825
  outer loop
    vertex -12.241822294037938 -46.65222179558373 11.028717533737355
    vertex -9.838066469678047 -54.21272021824977 8.788878569631008
    vertex -9.838066469678047 -50.70078338522729 5.975286616120337
  endloop
endfacet
facet normal 0.9374872918972658 0.21759664126359213 0.2716050059220825
  outer loop
    vertex -9.838066469678047 -54.21272021824977 8.788878569631008
    vertex -12.241822294037938 -46.65222179558373 11.028717533737355
    vertex -12.241822294037938 -50.16415862860621 13.842309487248025
  endloop
endfacet
facet normal 0.9737133347927074 0.14241586896967484 0.17776406248867532
  outer loop
    vertex -9.838066469678047 -50.70078338522729 5.975286616120337
    vertex -8.264820795805536 -58.41772485205927 3.540174812826715
    vertex -8.264820795805536 -54.905788019036784 0.7265828593160435
  endloop
endfacet
facet normal 0.9737133347927074 0.14241586896967484 0.17776406248867532
  outer loop
    vertex -8.264820795805536 -58.41772485205927 3.540174812826715
    vertex -9.838066469678047 -50.70078338522729 5.975286616120337
    vertex -9.838066469678047 -54.21272021824977 8.788878569631008
  endloop
endfacet
facet normal 0.3294232507436299 0.5903430844922523 0.7368686208963393
  outer loop
    vertex -47.67818703095993 -31.01652804776466 37.742459264851554
    vertex -41.15675995617414 -28.9272135065037 33.15314442455832
    vertex -47.67818703095993 -27.504591214742177 34.92886731134088
  endloop
endfacet
facet normal 0.3294232507436299 0.5903430844922523 0.7368686208963393
  outer loop
    vertex -41.15675995617414 -28.9272135065037 33.15314442455832
    vertex -47.67818703095993 -31.01652804776466 37.742459264851554
    vertex -41.15675995617414 -32.439150339526186 35.966736378068994
  endloop
endfacet
facet normal -0.7961733996683601 0.3783146506554564 0.47221387395963493
  outer loop
    vertex -104.11353715285858 -41.647244561533306 24.4731560030405
    vertex -108.2927195137303 -41.573601849884895 17.367871449061745
    vertex -108.2927195137303 -45.08553868290738 20.181463402572415
  endloop
endfacet
facet normal -0.7961733996683601 0.3783146506554564 0.47221387395963493
  outer loop
    vertex -108.2927195137303 -41.573601849884895 17.367871449061745
    vertex -104.11353715285858 -41.647244561533306 24.4731560030405
    vertex -104.11353715285858 -38.135307728510824 21.65956404952983
  endloop
endfacet
facet normal -0.9997681653124019 0.01346255941579568 0.0168040210024362
  outer loop
    vertex -117.3043849299907 -61.234897740709734 0.023768242108819657
    vertex -117.40419876132252 -63.937531341444 -3.7495146873280856
    vertex -117.40419876132253 -64.13263894327908 -3.5932040232447924
  endloop
endfacet
facet normal -0.9997681653124019 0.01346255941579568 0.0168040210024362
  outer loop
    vertex -117.40419876132252 -63.937531341444 -3.7495146873280856
    vertex -117.3043849299907 -61.234897740709734 0.023768242108819657
    vertex -117.36112530466903 -62.68704602877259 -2.188653872651429
  endloop
endfacet
facet normal -0.9997681653124019 0.01346255941579568 0.0168040210024362
  outer loop
    vertex -117.36112530466903 -62.68704602877259 -2.188653872651429
    vertex -117.3043849299907 -61.234897740709734 0.023768242108819657
    vertex -117.36112530466903 -59.56532439941927 -4.689624497994247
  endloop
endfacet
facet normal -0.9997681653124019 0.01346255941579568 0.0168040210024362
  outer loop
    vertex -117.36112530466903 -59.56532439941927 -4.689624497994247
    vertex -117.3043849299907 -61.234897740709734 0.023768242108819657
    vertex -117.3043849299907 -57.722960907687245 -2.7898237114018527
  endloop
endfacet
facet normal -0.9997681653124019 0.01346255941579568 0.0168040210024362
  outer loop
    vertex -117.36112530466903 -59.56532439941927 -4.689624497994247
    vertex -117.40419876132249 -60.6207021102561 -6.40679597675483
    vertex -117.40419876132252 -60.81580971209067 -6.250485312670905
  endloop
endfacet
facet normal -0.9997681653124019 0.01346255941579568 0.0168040210024362
  outer loop
    vertex -117.40419876132249 -60.6207021102561 -6.40679597675483
    vertex -117.36112530466903 -59.56532439941927 -4.689624497994247
    vertex -117.3043849299907 -57.722960907687245 -2.7898237114018527
  endloop
endfacet
facet normal -0.2884674562895584 0.5986634037867778 0.7472540770235123
  outer loop
    vertex -81.64107290701516 -31.89400148660389 36.64719337669984
    vertex -75.02773257544096 -27.136310952715156 35.388556220912164
    vertex -81.64107290701516 -28.382064653581406 33.833601423189165
  endloop
endfacet
facet normal -0.2884674562895584 0.5986634037867778 0.7472540770235123
  outer loop
    vertex -75.02773257544096 -27.136310952715156 35.388556220912164
    vertex -81.64107290701516 -31.89400148660389 36.64719337669984
    vertex -75.02773257544096 -30.64824778573764 38.20214817442284
  endloop
endfacet
facet normal -0.9630038851154086 0.168495085681338 0.21031624605309923
  outer loop
    vertex -114.43002959420713 -52.804318183825636 10.54685167380706
    vertex -116.2913682675918 -53.45113696664251 2.5422841743997933
    vertex -116.2913682675918 -56.96307379966498 5.355876127910465
  endloop
endfacet
facet normal -0.9630038851154086 0.168495085681338 0.21031624605309923
  outer loop
    vertex -116.2913682675918 -53.45113696664251 2.5422841743997933
    vertex -114.43002959420713 -52.804318183825636 10.54685167380706
    vertex -114.43002959420713 -49.29238135080315 7.73325972029639
  endloop
endfacet
facet normal 0.6538666999966523 0.4730647001632348 0.5904812681998953
  outer loop
    vertex -29.22123122885856 -36.75355252109252 30.58148216058748
    vertex -23.995359994297832 -36.0653548781726 24.243287552382505
    vertex -29.22123122885856 -33.24161568807004 27.76789020707681
  endloop
endfacet
facet normal 0.6538666999966523 0.4730647001632348 0.5904812681998953
  outer loop
    vertex -23.995359994297832 -36.0653548781726 24.243287552382505
    vertex -29.22123122885856 -36.75355252109252 30.58148216058748
    vertex -23.995359994297832 -39.57729171119508 27.056879505893175
  endloop
endfacet
facet normal -0.8657305291360696 0.3129404460319452 0.39061352787519804
  outer loop
    vertex -108.2927195137303 -45.08553868290738 20.181463402572415
    vertex -111.74972333262579 -45.31228012055119 12.701238140990625
    vertex -111.74972333262579 -48.82421695357368 15.514830094501296
  endloop
endfacet
facet normal -0.8657305291360696 0.3129404460319452 0.39061352787519804
  outer loop
    vertex -111.74972333262579 -45.31228012055119 12.701238140990625
    vertex -108.2927195137303 -45.08553868290738 20.181463402572415
    vertex -108.2927195137303 -41.573601849884895 17.367871449061745
  endloop
endfacet
facet normal -0.4061980845102764 0.5713373914812283 0.7131456381662923
  outer loop
    vertex -87.95254708452298 -33.64817775859042 34.4576234735315
    vertex -81.64107290701516 -28.382064653581406 33.833601423189165
    vertex -87.95254708452298 -30.136240925567936 31.64403152002083
  endloop
endfacet
facet normal -0.4061980845102764 0.5713373914812283 0.7131456381662923
  outer loop
    vertex -81.64107290701516 -28.382064653581406 33.833601423189165
    vertex -87.95254708452298 -33.64817775859042 34.4576234735315
    vertex -81.64107290701516 -31.89400148660389 36.64719337669984
  endloop
endfacet
facet normal -0.7140601400769444 0.4377226072439135 0.5463671251648339
  outer loop
    vertex -99.27808445236414 -38.56355854168289 28.322225339863266
    vertex -104.11353715285858 -38.135307728510824 21.65956404952983
    vertex -104.11353715285858 -41.647244561533306 24.4731560030405
  endloop
endfacet
facet normal -0.7140601400769444 0.4377226072439135 0.5463671251648339
  outer loop
    vertex -104.11353715285858 -38.135307728510824 21.65956404952983
    vertex -99.27808445236414 -38.56355854168289 28.322225339863266
    vertex -99.27808445236414 -35.0516217086604 25.508633386352596
  endloop
endfacet
facet normal 0.7435391143378633 0.4180950403260931 0.521867916914221
  outer loop
    vertex -23.995359994297832 -36.0653548781726 24.243287552382505
    vertex -19.37672993418399 -42.788283395801045 23.04890672447193
    vertex -19.37672993418399 -39.276346562778556 20.23531477096126
  endloop
endfacet
facet normal 0.7435391143378633 0.4180950403260931 0.521867916914221
  outer loop
    vertex -19.37672993418399 -42.788283395801045 23.04890672447193
    vertex -23.995359994297832 -36.0653548781726 24.243287552382505
    vertex -23.995359994297832 -39.57729171119508 27.056879505893175
  endloop
endfacet
facet normal 0.8864765143808413 0.2893457845388505 0.3611625761631334
  outer loop
    vertex -15.438179603600965 -42.8239514848682 15.807179987823016
    vertex -12.241822294037938 -50.16415862860621 13.842309487248025
    vertex -12.241822294037938 -46.65222179558373 11.028717533737355
  endloop
endfacet
facet normal 0.8864765143808413 0.2893457845388505 0.3611625761631334
  outer loop
    vertex -12.241822294037938 -50.16415862860621 13.842309487248025
    vertex -15.438179603600965 -42.8239514848682 15.807179987823016
    vertex -15.438179603600965 -46.335888317890685 18.62077194133369
  endloop
endfacet
facet normal -0.04128671510406028 0.6247095369720405 0.7797649655967464
  outer loop
    vertex -68.21682241744742 -29.93056293603153 39.09796530065544
    vertex -61.31575455486652 -26.240328423267094 36.50692523067106
    vertex -68.21682241744742 -26.418626103009046 36.28437334714477
  endloop
endfacet
facet normal -0.04128671510406028 0.6247095369720405 0.7797649655967464
  outer loop
    vertex -61.31575455486652 -26.240328423267094 36.50692523067106
    vertex -68.21682241744742 -29.93056293603153 39.09796530065544
    vertex -61.31575455486652 -29.75226525628958 39.320517184181725
  endloop
endfacet
facet normal -0.5175227262872909 0.5350010472116062 0.667790466582636
  outer loop
    vertex -93.86261938989323 -35.8831121939939 31.66796929027645
    vertex -87.95254708452298 -30.136240925567936 31.64403152002083
    vertex -93.86261938989323 -32.37117536097142 28.85437733676578
  endloop
endfacet
facet normal -0.5175227262872909 0.5350010472116062 0.667790466582636
  outer loop
    vertex -87.95254708452298 -30.136240925567936 31.64403152002083
    vertex -93.86261938989323 -35.8831121939939 31.66796929027645
    vertex -87.95254708452298 -33.64817775859042 34.4576234735315
  endloop
endfacet
facet normal 0.5538824171954625 0.5205738470836475 0.6497823771496446
  outer loop
    vertex -34.971928526713086 -34.361597879341254 33.56712959919483
    vertex -29.22123122885856 -33.24161568807004 27.76789020707681
    vertex -34.971928526713086 -30.849661046318772 30.753537645684162
  endloop
endfacet
facet normal 0.5538824171954625 0.5205738470836475 0.6497823771496446
  outer loop
    vertex -29.22123122885856 -33.24161568807004 27.76789020707681
    vertex -34.971928526713086 -34.361597879341254 33.56712959919483
    vertex -29.22123122885856 -36.75355252109252 30.58148216058748
  endloop
endfacet
facet normal -0.9891860526949577 0.09170191957444537 0.11446270615414555
  outer loop
    vertex -117.3043849299907 -61.234897740709734 0.023768242108819657
    vertex -116.2913682675918 -53.45113696664251 2.5422841743997933
    vertex -117.3043849299907 -57.722960907687245 -2.7898237114018527
  endloop
endfacet
facet normal -0.9891860526949577 0.09170191957444537 0.11446270615414555
  outer loop
    vertex -116.2913682675918 -53.45113696664251 2.5422841743997933
    vertex -117.3043849299907 -61.234897740709734 0.023768242108819657
    vertex -116.2913682675918 -56.96307379966498 5.355876127910465
  endloop
endfacet
facet normal -0.9216345709969529 0.24263098363294958 0.3028529731149587
  outer loop
    vertex -111.74972333262579 -48.82421695357368 15.514830094501296
    vertex -114.43002959420713 -49.29238135080315 7.73325972029639
    vertex -114.43002959420713 -52.804318183825636 10.54685167380706
  endloop
endfacet
facet normal -0.9216345709969529 0.24263098363294958 0.3028529731149587
  outer loop
    vertex -114.43002959420713 -49.29238135080315 7.73325972029639
    vertex -111.74972333262579 -48.82421695357368 15.514830094501296
    vertex -111.74972333262579 -45.31228012055119 12.701238140990625
  endloop
endfacet
facet normal 0.9945833367303164 0.06498911334698858 0.08111967359871707
  outer loop
    vertex -7.546896296508832 -59.200920261988976 -4.634618543007021
    vertex -8.264820795805536 -58.41772485205927 3.540174812826715
    vertex -7.546896296508832 -62.712857095011465 -1.8210265894963515
  endloop
endfacet
facet normal 0.9945833367303164 0.06498911334698858 0.08111967359871707
  outer loop
    vertex -8.264820795805536 -58.41772485205927 3.540174812826715
    vertex -7.546896296508832 -59.200920261988976 -4.634618543007021
    vertex -8.264820795805536 -54.905788019036784 0.7265828593160435
  endloop
endfacet
facet normal 0.20848822223334187 0.6115028724283871 0.7632803536065974
  outer loop
    vertex -54.433362950389366 -30.116166607431158 38.866294048852474
    vertex -47.67818703095993 -27.504591214742177 34.92886731134088
    vertex -54.433362950389366 -26.604229774408672 36.05270209534181
  endloop
endfacet
facet normal 0.20848822223334187 0.6115028724283871 0.7632803536065974
  outer loop
    vertex -47.67818703095993 -27.504591214742177 34.92886731134088
    vertex -54.433362950389366 -30.116166607431158 38.866294048852474
    vertex -47.67818703095993 -31.01652804776466 37.742459264851554
  endloop
endfacet
facet normal -0.9970918882116212 -0.047648932103258386 -0.05947558937919957
  outer loop
    vertex -12.487871861483255 -59.75428649011225 1.8718731813743343
    vertex -12.004568269961196 -60.196008873590706 -5.876692164537246
    vertex -12.004568269961196 -63.70794570661318 -3.0631002110265753
  endloop
endfacet
facet normal -0.9970918882116212 -0.047648932103258386 -0.05947558937919957
  outer loop
    vertex -12.004568269961196 -60.196008873590706 -5.876692164537246
    vertex -12.487871861483255 -59.75428649011225 1.8718731813743343
    vertex -12.487871861483255 -56.24234965708977 -0.9417187721363371
  endloop
endfacet
facet normal -0.9997552111995047 0.01408309277706477 0.017064119586621802
  outer loop
    vertex -7.546896296508832 -62.712857095011465 -1.8210265894963515
    vertex -7.595801238677345 -63.937531341444 -3.7495146873280856
    vertex -7.595801238677345 -64.13263894327908 -3.5932040232447924
  endloop
endfacet
facet normal -0.9997552111995047 0.01408309277706477 0.017064119586621802
  outer loop
    vertex -7.595801238677345 -63.937531341444 -3.7495146873280856
    vertex -7.546896296508832 -62.712857095011465 -1.8210265894963515
    vertex -7.552727782023862 -62.68704602877259 -2.188653872651429
  endloop
endfacet
facet normal -0.9997552111995047 0.01408309277706477 0.017064119586621802
  outer loop
    vertex -7.552727782023862 -62.68704602877259 -2.188653872651429
    vertex -7.546896296508832 -62.712857095011465 -1.8210265894963515
    vertex -7.546896296508832 -59.56532439941927 -4.689624497994247
  endloop
endfacet
facet normal -0.9997552111995047 0.01408309277706477 0.017064119586621802
  outer loop
    vertex -7.546896296508832 -59.56532439941927 -4.689624497994247
    vertex -7.595801238677323 -60.6207021102561 -6.40679597675483
    vertex -7.595801238677323 -60.81580971209068 -6.250485312670905
  endloop
endfacet
facet normal -0.9997552111995047 0.01408309277706477 0.017064119586621802
  outer loop
    vertex -7.595801238677323 -60.6207021102561 -6.40679597675483
    vertex -7.546896296508832 -59.56532439941927 -4.689624497994247
    vertex -7.546896296508832 -59.200920261988976 -4.634618543007021
  endloop
endfacet
facet normal -0.9997552111995047 0.01408309277706477 0.017064119586621802
  outer loop
    vertex -7.546896296508832 -59.200920261988976 -4.634618543007021
    vertex -7.546896296508832 -59.56532439941927 -4.689624497994247
    vertex -7.546896296508832 -62.712857095011465 -1.8210265894963515
  endloop
endfacet
endsolid support_camera
