solid support_camera_v2
facet normal -0.026080215538749115 0.0022483283018509253 -0.9996573249755636
  outer loop
    vertex -204.9030666294934 48.78486431992755 14.685555038886902
    vertex -209.3544523019696 -14.489291780470587 14.659378090548525
    vertex -210.35041555153933 -14.403431586646699 14.685555038856162
  endloop
endfacet
facet normal -0.026080215538749115 0.0022483283018509253 -0.9996573249755636
  outer loop
    vertex -209.3544523019696 -14.489291780470587 14.659378090548525
    vertex -204.9030666294934 48.78486431992755 14.685555038886902
    vertex -203.90710337992363 48.69900412610361 14.659378090579278
  endloop
endfacet
facet normal 0.02608021553874722 -0.00224832830185073 0.9996573249755638
  outer loop
    vertex -143.2260780447585 23.393621515751544 -0.28521207498643664
    vertex -178.60261078525073 2.933828433999101 0.5917156933078673
    vertex -145.23784192465928 0.05751194089811744 -0.28521207499779616
  endloop
endfacet
facet normal 0.02608021553874722 -0.00224832830185073 0.9996573249755638
  outer loop
    vertex -178.60261078525073 2.933828433999101 0.5917156933078673
    vertex -143.2260780447585 23.393621515751544 -0.28521207498643664
    vertex -177.89796165060287 14.627851957782955 0.5996330091144991
  endloop
endfacet
facet normal 0.02608021553874722 -0.00224832830185073 0.9996573249755638
  outer loop
    vertex -177.89796165060287 14.627851957782955 0.5996330091144991
    vertex -143.2260780447585 23.393621515751544 -0.28521207498643664
    vertex -176.59084690535002 26.269938008852527 0.5917156933192261
  endloop
endfacet
facet normal 0.02608021553874722 -0.00224832830185073 0.9996573249755638
  outer loop
    vertex -177.89796165060287 14.627851957782955 0.5996330091144991
    vertex -176.59084690535002 26.269938008852527 0.5917156933192261
    vertex -196.82026289329303 40.05838801773251 1.1504956648417908
  endloop
endfacet
facet normal 0.02608021553874722 -0.00224832830185073 0.9996573249755638
  outer loop
    vertex -196.82026289329303 40.05838801773251 1.1504956648417908
    vertex -176.59084690535002 26.269938008852527 0.5917156933192261
    vertex -192.55140206414296 47.72004961508732 1.0563565257893868
  endloop
endfacet
facet normal 0.02608021553874722 -0.00224832830185073 0.9996573249755638
  outer loop
    vertex -196.82026289329303 40.05838801773251 1.1504956648417908
    vertex -192.55140206414296 47.72004961508732 1.0563565257893868
    vertex -208.23782324486854 49.07234766781387 1.4686434616345676
  endloop
endfacet
facet normal 0.02608021553874722 -0.00224832830185073 0.9996573249755638
  outer loop
    vertex -209.0142021602059 -6.488951747711811 1.3639356683771846
    vertex -208.23782324486854 49.07234766781387 1.4686434616345676
    vertex -213.68517216691447 -14.11594823876034 1.4686434616038215
  endloop
endfacet
facet normal 0.02608021553874722 -0.00224832830185073 0.9996573249755638
  outer loop
    vertex -208.23782324486854 49.07234766781387 1.4686434616345676
    vertex -209.0142021602059 -6.488951747711811 1.3639356683771846
    vertex -204.9410872550182 40.75846962617413 1.3639356684001893
  endloop
endfacet
facet normal 0.02608021553874722 -0.00224832830185073 0.9996573249755638
  outer loop
    vertex -208.23782324486854 49.07234766781387 1.4686434616345676
    vertex -204.9410872550182 40.75846962617413 1.3639356684001893
    vertex -196.82026289329303 40.05838801773251 1.1504956648417908
  endloop
endfacet
facet normal 0.02608021553874722 -0.00224832830185073 0.9996573249755638
  outer loop
    vertex -178.60261078525073 2.933828433999101 0.5917156933078673
    vertex -213.68517216691447 -14.11594823876034 1.4686434616038215
    vertex -197.9987509861889 -15.468246291486903 1.0563565257586132
  endloop
endfacet
facet normal 0.02608021553874722 -0.00224832830185073 0.9996573249755638
  outer loop
    vertex -213.68517216691447 -14.11594823876034 1.4686434616038215
    vertex -178.60261078525073 2.933828433999101 0.5917156933078673
    vertex -200.89337779848077 -7.1890333561534305 1.1504956648188096
  endloop
endfacet
facet normal 0.02608021553874722 -0.00224832830185073 0.9996573249755638
  outer loop
    vertex -213.68517216691447 -14.11594823876034 1.4686434616038215
    vertex -200.89337779848077 -7.1890333561534305 1.1504956648188096
    vertex -209.0142021602059 -6.488951747711811 1.3639356683771846
  endloop
endfacet
facet normal 0.02608021553874722 -0.00224832830185073 0.9996573249755638
  outer loop
    vertex -200.89337779848077 -7.1890333561534305 1.1504956648188096
    vertex -178.60261078525073 2.933828433999101 0.5917156933078673
    vertex -177.89796165060287 14.627851957782955 0.5996330091144991
  endloop
endfacet
facet normal 0.9959632495698927 -0.08586019382390958 -0.02617694830763347
  outer loop
    vertex -207.96919702481952 49.049189886304816 11.765113908883118
    vertex -213.68517216691447 -14.11594823876034 1.4686434616038215
    vertex -208.23782324486854 49.07234766781387 1.4686434616345676
  endloop
endfacet
facet normal 0.9959632495698927 -0.08586019382390958 -0.02617694830763347
  outer loop
    vertex -213.68517216691447 -14.11594823876034 1.4686434616038215
    vertex -207.96919702481952 49.049189886304816 11.765113908883118
    vertex -213.41654594686554 -14.139106020269379 11.765113908852365
  endloop
endfacet
facet normal -0.9959632495698927 0.08586019382390958 0.02617694830763347
  outer loop
    vertex -147.82670437562598 0.2806930993514926 15.088075842051328
    vertex -145.8671009268027 23.621299330808643 13.088761192111543
    vertex -147.87886480670335 0.285189755955181 13.088761192100181
  endloop
endfacet
facet normal -0.9959632495698927 0.08586019382390958 0.02617694830763347
  outer loop
    vertex -145.8671009268027 23.621299330808643 13.088761192111543
    vertex -147.82670437562598 0.2806930993514926 15.088075842051328
    vertex -145.81494049572524 23.61680267420496 15.088075842062699
  endloop
endfacet
facet normal -0.5741610609849437 0.0494973885873817 -0.8172448131200796
  outer loop
    vertex -146.38491993234865 0.15639946521935466 13.049495769638746
    vertex -142.90529139363176 23.36596707763877 12.0105730222131
    vertex -144.91705527353253 0.029857502785336564 12.01057302220173
  endloop
endfacet
facet normal -0.5741610609849437 0.0494973885873817 -0.8172448131200796
  outer loop
    vertex -142.90529139363176 23.36596707763877 12.0105730222131
    vertex -146.38491993234865 0.15639946521935466 13.049495769638746
    vertex -144.37315605244783 23.49250904007278 13.04949576965008
  endloop
endfacet
facet normal 0.6858108703212002 -0.05912251709830496 -0.7253743710121268
  outer loop
    vertex -213.41654594686554 -14.139106020269379 11.765113908852365
    vertex -204.9030666294934 48.78486431992755 14.685555038886902
    vertex -210.35041555153933 -14.403431586646699 14.685555038856162
  endloop
endfacet
facet normal 0.6858108703212002 -0.05912251709830496 -0.7253743710121268
  outer loop
    vertex -204.9030666294934 48.78486431992755 14.685555038886902
    vertex -213.41654594686554 -14.139106020269379 11.765113908852365
    vertex -207.96919702481952 49.049189886304816 11.765113908883118
  endloop
endfacet
facet normal -0.026080215538749115 0.0022483283018509253 -0.9996573249755636
  outer loop
    vertex -145.8671009268027 23.621299330808643 13.088761192111543
    vertex -146.38491993234865 0.15639946521935466 13.049495769638746
    vertex -147.87886480670335 0.285189755955181 13.088761192100181
  endloop
endfacet
facet normal -0.026080215538749115 0.0022483283018509253 -0.9996573249755636
  outer loop
    vertex -146.38491993234865 0.15639946521935466 13.049495769638746
    vertex -145.8671009268027 23.621299330808643 13.088761192111543
    vertex -144.37315605244783 23.49250904007278 13.04949576965008
  endloop
endfacet
facet normal 0.026080215538749115 -0.0022483283018509253 0.9996573249755636
  outer loop
    vertex -209.30229187089196 -14.493788437074299 16.65869274049964
    vertex -209.83072244626578 49.20966863244338 16.815754430376206
    vertex -215.27807136831134 -13.97862727413085 16.81575443034546
  endloop
endfacet
facet normal 0.026080215538749115 -0.0022483283018509253 0.9996573249755636
  outer loop
    vertex -209.83072244626578 49.20966863244338 16.815754430376206
    vertex -209.30229187089196 -14.493788437074299 16.65869274049964
    vertex -203.8549429488461 48.69450746949988 16.658692740530373
  endloop
endfacet
facet normal -0.9959632495698928 0.0858601938239096 0.026176948307629972
  outer loop
    vertex -215.7618593665552 -13.936920784131534 -1.7278889479514805
    vertex -209.83072244626578 49.20966863244338 16.815754430376206
    vertex -210.31451044450938 49.25137512244272 -1.7278889479207302
  endloop
endfacet
facet normal -0.9959632495698928 0.0858601938239096 0.026176948307629972
  outer loop
    vertex -209.83072244626578 49.20966863244338 16.815754430376206
    vertex -215.7618593665552 -13.936920784131534 -1.7278889479514805
    vertex -215.27807136831134 -13.97862727413085 16.81575443034546
  endloop
endfacet
facet normal 0.02608052584401203 -0.0022484369689618473 0.9996573166355042
  outer loop
    vertex -139.8391609983058 23.101641511261537 14.931014152216878
    vertex -147.82670437562598 0.2806930993514926 15.088075842051328
    vertex -141.85092373637175 -0.2344707995643534 14.931010291738126
  endloop
endfacet
facet normal 0.02608052584401203 -0.0022484369689618473 0.9996573166355042
  outer loop
    vertex -147.82670437562598 0.2806930993514926 15.088075842051328
    vertex -139.8391609983058 23.101641511261537 14.931014152216878
    vertex -145.81494049572524 23.61680267420496 15.088075842062699
  endloop
endfacet
facet normal -0.9959632495698925 0.08586019382390957 0.026176948307635218
  outer loop
    vertex -144.91705527353253 0.029857502785336564 12.01057302220173
    vertex -143.2260780447585 23.393621515751544 -0.28521207498643664
    vertex -145.23784192465928 0.05751194089811744 -0.28521207499779616
  endloop
endfacet
facet normal -0.9959632495698925 0.08586019382390957 0.026176948307635218
  outer loop
    vertex -143.2260780447585 23.393621515751544 -0.28521207498643664
    vertex -144.91705527353253 0.029857502785336564 12.01057302220173
    vertex -142.90529139363176 23.36596707763877 12.0105730222131
  endloop
endfacet
facet normal 0.9959632495698927 -0.08586019382390958 -0.02617694830763347
  outer loop
    vertex -203.8549429488461 48.69450746949988 16.658692740530373
    vertex -209.3544523019696 -14.489291780470587 14.659378090548525
    vertex -203.90710337992363 48.69900412610361 14.659378090579278
  endloop
endfacet
facet normal 0.9959632495698927 -0.08586019382390958 -0.02617694830763347
  outer loop
    vertex -209.3544523019696 -14.489291780470587 14.659378090548525
    vertex -203.8549429488461 48.69450746949988 16.658692740530373
    vertex -209.30229187089196 -14.493788437074299 16.65869274049964
  endloop
endfacet
facet normal -0.026079818274540013 0.002249545497946413 -0.9996573326014369
  outer loop
    vertex -130.10942390572382 -1.2457257315930257 26.515160603802755
    vertex -128.70620287575474 3.3009841976209255 26.48876674603964
    vertex -129.11354290935097 -1.3325347695001875 26.488983667367208
  endloop
endfacet
facet normal -0.026079818274540013 0.002249545497946413 -0.9996573326014369
  outer loop
    vertex -128.70620287575474 3.3009841976209255 26.48876674603964
    vertex -130.10942390572382 -1.2457257315930257 26.515160603802755
    vertex -129.70216547399698 3.386844335296088 26.51494309551352
  endloop
endfacet
facet normal 0.02607981815237574 -0.0022490714497396583 0.9996573336712701
  outer loop
    vertex -124.55053281966914 21.78363647513914 27.922443333588678
    vertex -128.44611015755405 17.423198027646123 28.01428218065611
    vertex -124.95245984271271 17.122016740768654 27.922460732790704
  endloop
endfacet
facet normal 0.02607981815237574 -0.0022490714497396583 0.9996573336712701
  outer loop
    vertex -128.44611015755405 17.423198027646123 28.01428218065611
    vertex -124.55053281966914 21.78363647513914 27.922443333588678
    vertex -128.0363219399667 22.085095997606093 28.014062640793316
  endloop
endfacet
facet normal 0.026079674926023026 -0.002249205666710093 0.9996573371058814
  outer loop
    vertex -126.16273632266142 3.0817132940962155 27.922429771050645
    vertex -130.07030358241562 -1.2490982240458155 28.01464659126607
    vertex -126.56229669956973 -1.5524730997143459 27.922443333577366
  endloop
endfacet
facet normal 0.026079674926023026 -0.002249205666710093 0.9996573371058814
  outer loop
    vertex -130.07030358241562 -1.2490982240458155 28.01464659126607
    vertex -126.16273632266142 3.0817132940962155 27.922429771050645
    vertex -129.6630467161334 3.3834687343318604 28.01442532671533
  endloop
endfacet
facet normal -0.026081519969518515 0.002249050549628691 -0.9996572893185468
  outer loop
    vertex -128.0754422632749 22.088468490058887 26.514576653329996
    vertex -127.48926640340642 17.340713498373415 26.488620294797496
    vertex -128.4852289154177 17.426573628610342 26.51479994945429
  endloop
endfacet
facet normal -0.026081519969518515 0.002249050549628691 -0.9996572893185468
  outer loop
    vertex -127.48926640340642 17.340713498373415 26.488620294797496
    vertex -128.0754422632749 22.088468490058887 26.514576653329996
    vertex -127.07956126690213 22.001659452151724 26.48839971689447
  endloop
endfacet
facet normal -0.08588971850706052 -0.996304650320945 -1.9072494527496732e-06
  outer loop
    vertex -124.95245984271271 17.122016740768654 27.922460732790704
    vertex -127.72969312561476 17.36145783730782 17.272438461145427
    vertex -125.23200532278453 17.146136680667276 17.206796667936842
  endloop
endfacet
facet normal -0.08588971850706052 -0.996304650320945 -1.9072494527496732e-06
  outer loop
    vertex -127.72969312561476 17.36145783730782 17.272438461145427
    vertex -124.95245984271271 17.122016740768654 27.922460732790704
    vertex -127.48926640340642 17.340713498373415 26.488620294797496
  endloop
endfacet
facet normal -0.08588971850706052 -0.996304650320945 -1.9072494527496732e-06
  outer loop
    vertex -127.48926640340642 17.340713498373415 26.488620294797496
    vertex -124.95245984271271 17.122016740768654 27.922460732790704
    vertex -128.44611015755405 17.423198027646123 28.01428218065611
  endloop
endfacet
facet normal -0.08588971850706052 -0.996304650320945 -1.9072494527496732e-06
  outer loop
    vertex -127.48926640340642 17.340713498373415 26.488620294797496
    vertex -128.44611015755405 17.423198027646123 28.01428218065611
    vertex -128.4852289154177 17.426573628610342 26.51479994945429
  endloop
endfacet
facet normal -0.9958174568021679 0.08753503741391253 0.026176515295349197
  outer loop
    vertex -128.4852289154177 17.426573628610342 26.51479994945429
    vertex -128.0363219399667 22.085095997606093 28.014062640793316
    vertex -128.0754422632749 22.088468490058887 26.514576653329996
  endloop
endfacet
facet normal -0.9958174568021679 0.08753503741391253 0.026176515295349197
  outer loop
    vertex -128.0363219399667 22.085095997606093 28.014062640793316
    vertex -128.4852289154177 17.426573628610342 26.51479994945429
    vertex -128.44611015755405 17.423198027646123 28.01428218065611
  endloop
endfacet
facet normal 0.08588971843591954 0.9963046503270778 1.9072507694665677e-06
  outer loop
    vertex -128.94662458933482 3.321727934507795 17.272585481566402
    vertex -126.16273632266142 3.0817132940962155 27.922429771050645
    vertex -126.44227679410498 3.1058326319473117 17.206766275375593
  endloop
endfacet
facet normal 0.08588971843591954 0.9963046503270778 1.9072507694665677e-06
  outer loop
    vertex -126.16273632266142 3.0817132940962155 27.922429771050645
    vertex -128.94662458933482 3.321727934507795 17.272585481566402
    vertex -128.70620287575474 3.3009841976209255 26.48876674603964
  endloop
endfacet
facet normal 0.08588971843591954 0.9963046503270778 1.9072507694665677e-06
  outer loop
    vertex -126.16273632266142 3.0817132940962155 27.922429771050645
    vertex -128.70620287575474 3.3009841976209255 26.48876674603964
    vertex -129.6630467161334 3.3834687343318604 28.01442532671533
  endloop
endfacet
facet normal 0.08588971843591954 0.9963046503270778 1.9072507694665677e-06
  outer loop
    vertex -129.6630467161334 3.3834687343318604 28.01442532671533
    vertex -128.70620287575474 3.3009841976209255 26.48876674603964
    vertex -129.70216547399698 3.386844335296088 26.51494309551352
  endloop
endfacet
facet normal -0.08588970935326237 -0.996304651110079 -1.9067657247510782e-06
  outer loop
    vertex -125.38179327677747 12.140506388585097 27.922447112523596
    vertex -128.16568655207905 12.38052163104421 17.272602253860477
    vertex -125.6613387568492 12.164626328483715 17.206783047669674
  endloop
endfacet
facet normal -0.08588970935326237 -0.996304651110079 -1.9067657247510782e-06
  outer loop
    vertex -128.16568655207905 12.38052163104421 17.272602253860477
    vertex -125.38179327677747 12.140506388585097 27.922447112523596
    vertex -127.92525982987074 12.359777292109797 26.488784087512578
  endloop
endfacet
facet normal -0.08588970935326237 -0.996304651110079 -1.9067657247510782e-06
  outer loop
    vertex -127.92525982987074 12.359777292109797 26.488784087512578
    vertex -125.38179327677747 12.140506388585097 27.922447112523596
    vertex -128.88210367024945 12.442261828820724 28.01444266818827
  endloop
endfacet
facet normal -0.08588970935326237 -0.996304651110079 -1.9067657247510782e-06
  outer loop
    vertex -127.92525982987074 12.359777292109797 26.488784087512578
    vertex -128.88210367024945 12.442261828820724 28.01444266818827
    vertex -128.921222428113 12.445637429784963 26.514960436986456
  endloop
endfacet
facet normal -0.08588971026888746 -0.9963046510311444 -1.90691966054674e-06
  outer loop
    vertex -125.74912161321053 7.879566471097569 27.92243895570034
    vertex -128.53300987988388 8.119581111509143 17.27259466621605
    vertex -126.02866208465417 7.90368580894867 17.20677546002524
  endloop
endfacet
facet normal -0.08588971026888746 -0.9963046510311444 -1.90691966054674e-06
  outer loop
    vertex -128.53300987988388 8.119581111509143 17.27259466621605
    vertex -125.74912161321053 7.879566471097569 27.92243895570034
    vertex -128.29258816630386 8.098837374622276 26.488775930689332
  endloop
endfacet
facet normal -0.08588971026888746 -0.9963046510311444 -1.90691966054674e-06
  outer loop
    vertex -128.29258816630386 8.098837374622276 26.488775930689332
    vertex -125.74912161321053 7.879566471097569 27.92243895570034
    vertex -129.2494320066825 8.181321911333205 28.014434511365007
  endloop
endfacet
facet normal -0.08588971026888746 -0.9963046510311444 -1.90691966054674e-06
  outer loop
    vertex -128.29258816630386 8.098837374622276 26.488775930689332
    vertex -129.2494320066825 8.181321911333205 28.014434511365007
    vertex -129.28855076454613 8.184697512297438 26.5149522801632
  endloop
endfacet
facet normal 0.026079126675656185 -0.0022501505375286395 0.9996573492824398
  outer loop
    vertex -125.38179327677747 12.140506388585097 27.922447112523596
    vertex -129.2494320066825 8.181321911333205 28.014434511365007
    vertex -125.74912161321053 7.879566471097569 27.92243895570034
  endloop
endfacet
facet normal 0.026079126675656185 -0.0022501505375286395 0.9996573492824398
  outer loop
    vertex -129.2494320066825 8.181321911333205 28.014434511365007
    vertex -125.38179327677747 12.140506388585097 27.922447112523596
    vertex -128.88210367024945 12.442261828820724 28.01444266818827
  endloop
endfacet
facet normal 0.9959633695678441 -0.0858586062900282 -0.02617758974771904
  outer loop
    vertex -125.3835002530012 21.855445093902176 -4.005283450694349
    vertex -125.23200532278453 17.146136680667276 17.206796667936842
    vertex -127.39526413290201 -1.480664480951279 -4.005283450705693
  endloop
endfacet
facet normal 0.9959633695678441 -0.0858586062900282 -0.02617758974771904
  outer loop
    vertex -125.23200532278453 17.146136680667276 17.206796667936842
    vertex -125.3835002530012 21.855445093902176 -4.005283450694349
    vertex -124.55053281966914 21.78363647513914 27.922443333588678
  endloop
endfacet
facet normal 0.9959633695678441 -0.0858586062900282 -0.02617758974771904
  outer loop
    vertex -127.39526413290201 -1.480664480951279 -4.005283450705693
    vertex -125.23200532278453 17.146136680667276 17.206796667936842
    vertex -125.6613387568492 12.164626328483715 17.206783047669674
  endloop
endfacet
facet normal 0.9959633695678441 -0.0858586062900282 -0.02617758974771904
  outer loop
    vertex -127.39526413290201 -1.480664480951279 -4.005283450705693
    vertex -125.6613387568492 12.164626328483715 17.206783047669674
    vertex -126.44227679410498 3.1058326319473117 17.206766275375593
  endloop
endfacet
facet normal 0.9959633695678441 -0.0858586062900282 -0.02617758974771904
  outer loop
    vertex -126.44227679410498 3.1058326319473117 17.206766275375593
    vertex -125.6613387568492 12.164626328483715 17.206783047669674
    vertex -126.02866208465417 7.90368580894867 17.20677546002524
  endloop
endfacet
facet normal 0.9959633695678441 -0.0858586062900282 -0.02617758974771904
  outer loop
    vertex -125.23200532278453 17.146136680667276 17.206796667936842
    vertex -124.55053281966914 21.78363647513914 27.922443333588678
    vertex -124.95245984271271 17.122016740768654 27.922460732790704
  endloop
endfacet
facet normal 0.9959633695678441 -0.0858586062900282 -0.02617758974771904
  outer loop
    vertex -125.6613387568492 12.164626328483715 17.206783047669674
    vertex -125.74912161321053 7.879566471097569 27.92243895570034
    vertex -126.02866208465417 7.90368580894867 17.20677546002524
  endloop
endfacet
facet normal 0.9959633695678441 -0.0858586062900282 -0.02617758974771904
  outer loop
    vertex -125.74912161321053 7.879566471097569 27.92243895570034
    vertex -125.6613387568492 12.164626328483715 17.206783047669674
    vertex -125.38179327677747 12.140506388585097 27.922447112523596
  endloop
endfacet
facet normal 0.9959633695678441 -0.0858586062900282 -0.02617758974771904
  outer loop
    vertex -126.44227679410498 3.1058326319473117 17.206766275375593
    vertex -126.56229669956973 -1.5524730997143459 27.922443333577366
    vertex -127.39526413290201 -1.480664480951279 -4.005283450705693
  endloop
endfacet
facet normal 0.9959633695678441 -0.0858586062900282 -0.02617758974771904
  outer loop
    vertex -126.56229669956973 -1.5524730997143459 27.922443333577366
    vertex -126.44227679410498 3.1058326319473117 17.206766275375593
    vertex -126.16273632266142 3.0817132940962155 27.922429771050645
  endloop
endfacet
facet normal -0.026079472404842236 0.0022501803422325583 -0.9996573401958857
  outer loop
    vertex -129.28855076454613 8.184697512297438 26.5149522801632
    vertex -127.92525982987074 12.359777292109797 26.488784087512578
    vertex -128.29258816630386 8.098837374622276 26.488775930689332
  endloop
endfacet
facet normal -0.026079472404842236 0.0022501803422325583 -0.9996573401958857
  outer loop
    vertex -127.92525982987074 12.359777292109797 26.488784087512578
    vertex -129.28855076454613 8.184697512297438 26.5149522801632
    vertex -128.921222428113 12.445637429784963 26.514960436986456
  endloop
endfacet
facet normal -0.9959632666543478 0.0858602382241925 0.02617615264483025
  outer loop
    vertex -129.2494320066825 8.181321911333205 28.014434511365007
    vertex -128.921222428113 12.445637429784963 26.514960436986456
    vertex -129.28855076454613 8.184697512297438 26.5149522801632
  endloop
endfacet
facet normal -0.9959632666543478 0.0858602382241925 0.02617615264483025
  outer loop
    vertex -128.921222428113 12.445637429784963 26.514960436986456
    vertex -129.2494320066825 8.181321911333205 28.014434511365007
    vertex -128.88210367024945 12.442261828820724 28.01444266818827
  endloop
endfacet
facet normal 0.026078989181439676 -0.002250138684394462 0.9996573528960687
  outer loop
    vertex -126.02866208465417 7.90368580894867 17.20677546002524
    vertex -128.94662458933482 3.321727934507795 17.272585481566402
    vertex -126.44227679410498 3.1058326319473117 17.206766275375593
  endloop
endfacet
facet normal 0.026078989181439676 -0.002250138684394462 0.9996573528960687
  outer loop
    vertex -128.94662458933482 3.321727934507795 17.272585481566402
    vertex -126.02866208465417 7.90368580894867 17.20677546002524
    vertex -128.53300987988388 8.119581111509143 17.27259466621605
  endloop
endfacet
facet normal 0.02607852032359589 -0.002250082145361797 0.9996573652547511
  outer loop
    vertex -125.23200532278453 17.146136680667276 17.206796667936842
    vertex -128.16568655207905 12.38052163104421 17.272602253860477
    vertex -125.6613387568492 12.164626328483715 17.206783047669674
  endloop
endfacet
facet normal 0.02607852032359589 -0.002250082145361797 0.9996573652547511
  outer loop
    vertex -128.16568655207905 12.38052163104421 17.272602253860477
    vertex -125.23200532278453 17.146136680667276 17.206796667936842
    vertex -127.72969312561476 17.36145783730782 17.272438461145427
  endloop
endfacet
facet normal -0.9958939075823016 0.08665257483481298 0.02620412400656168
  outer loop
    vertex -129.11354290935097 -1.3325347695001875 26.488983667367208
    vertex -128.94662458933482 3.321727934507795 17.272585481566402
    vertex -129.39278947975544 -1.308464161158196 15.785379882821045
  endloop
endfacet
facet normal -0.9958939075823016 0.08665257483481298 0.02620412400656168
  outer loop
    vertex -128.94662458933482 3.321727934507795 17.272585481566402
    vertex -129.11354290935097 -1.3325347695001875 26.488983667367208
    vertex -128.70620287575474 3.3009841976209255 26.48876674603964
  endloop
endfacet
facet normal -0.9958939075823016 0.08665257483481298 0.02620412400656168
  outer loop
    vertex -128.29258816630386 8.098837374622276 26.488775930689332
    vertex -128.16568655207905 12.38052163104421 17.272602253860477
    vertex -128.53300987988388 8.119581111509143 17.27259466621605
  endloop
endfacet
facet normal -0.9958939075823016 0.08665257483481298 0.02620412400656168
  outer loop
    vertex -128.16568655207905 12.38052163104421 17.272602253860477
    vertex -128.29258816630386 8.098837374622276 26.488775930689332
    vertex -127.92525982987074 12.359777292109797 26.488784087512578
  endloop
endfacet
facet normal -0.9958939075823016 0.08665257483481298 0.02620412400656168
  outer loop
    vertex -127.35880783730649 22.0257300604937 15.784795932348295
    vertex -127.72969312561476 17.36145783730782 17.272438461145427
    vertex -127.07956126690213 22.001659452151724 26.48839971689447
  endloop
endfacet
facet normal -0.9958939075823016 0.08665257483481298 0.02620412400656168
  outer loop
    vertex -127.72969312561476 17.36145783730782 17.272438461145427
    vertex -127.35880783730649 22.0257300604937 15.784795932348295
    vertex -129.39278947975544 -1.308464161158196 15.785379882821045
  endloop
endfacet
facet normal -0.9958939075823016 0.08665257483481298 0.02620412400656168
  outer loop
    vertex -127.72969312561476 17.36145783730782 17.272438461145427
    vertex -129.39278947975544 -1.308464161158196 15.785379882821045
    vertex -128.94662458933482 3.321727934507795 17.272585481566402
  endloop
endfacet
facet normal -0.9958939075823016 0.08665257483481298 0.02620412400656168
  outer loop
    vertex -127.72969312561476 17.36145783730782 17.272438461145427
    vertex -128.94662458933482 3.321727934507795 17.272585481566402
    vertex -128.53300987988388 8.119581111509143 17.27259466621605
  endloop
endfacet
facet normal -0.9958939075823016 0.08665257483481298 0.02620412400656168
  outer loop
    vertex -127.72969312561476 17.36145783730782 17.272438461145427
    vertex -128.53300987988388 8.119581111509143 17.27259466621605
    vertex -128.16568655207905 12.38052163104421 17.272602253860477
  endloop
endfacet
facet normal -0.9958939075823016 0.08665257483481298 0.02620412400656168
  outer loop
    vertex -127.07956126690213 22.001659452151724 26.48839971689447
    vertex -127.72969312561476 17.36145783730782 17.272438461145427
    vertex -127.48926640340642 17.340713498373415 26.488620294797496
  endloop
endfacet
facet normal -0.9958165536826947 0.08754531102101254 0.02617651485120403
  outer loop
    vertex -130.10942390572382 -1.2457257315930257 26.515160603802755
    vertex -129.6630467161334 3.3834687343318604 28.01442532671533
    vertex -129.70216547399698 3.386844335296088 26.51494309551352
  endloop
endfacet
facet normal -0.9958165536826947 0.08754531102101254 0.02617651485120403
  outer loop
    vertex -129.6630467161334 3.3834687343318604 28.01442532671533
    vertex -130.10942390572382 -1.2457257315930257 26.515160603802755
    vertex -130.07030358241562 -1.2490982240458155 28.01464659126607
  endloop
endfacet
facet normal 0.02608036110599364 -0.0022484228404252727 0.9996573209651953
  outer loop
    vertex -129.39278947975544 -1.308464161158196 15.785379882821045
    vertex -139.8083495987648 23.098985219264982 16.112011646661074
    vertex -141.82011233683073 -0.23712709156092876 16.112007786182318
  endloop
endfacet
facet normal 0.02608036110599364 -0.0022484228404252727 0.9996573209651953
  outer loop
    vertex -139.8083495987648 23.098985219264982 16.112011646661074
    vertex -129.39278947975544 -1.308464161158196 15.785379882821045
    vertex -127.35880783730649 22.0257300604937 15.784795932348295
  endloop
endfacet
facet normal -0.9959632509764609 0.08586013081586741 0.026177101456834998
  outer loop
    vertex -141.82011233683073 -0.23712709156092876 16.112007786182318
    vertex -139.8391609983058 23.101641511261537 14.931014152216878
    vertex -141.85092373637175 -0.2344707995643534 14.931010291738126
  endloop
endfacet
facet normal -0.9959632509764609 0.08586013081586741 0.026177101456834998
  outer loop
    vertex -139.8391609983058 23.101641511261537 14.931014152216878
    vertex -141.82011233683073 -0.23712709156092876 16.112007786182318
    vertex -139.8083495987648 23.098985219264982 16.112011646661074
  endloop
endfacet
facet normal 0.08588962275755406 0.9963046584580889 -1.5403757971163507e-05
  outer loop
    vertex -124.55053281966914 21.78363647513914 27.922443333588678
    vertex -127.07956126690213 22.001659452151724 26.48839971689447
    vertex -128.0363219399667 22.085095997606093 28.014062640793316
  endloop
endfacet
facet normal 0.08588962275755406 0.9963046584580889 -1.5403757971163507e-05
  outer loop
    vertex -127.07956126690213 22.001659452151724 26.48839971689447
    vertex -124.55053281966914 21.78363647513914 27.922443333588678
    vertex -125.3835002530012 21.855445093902176 -4.005283450694349
  endloop
endfacet
facet normal 0.08588962275755406 0.9963046584580889 -1.5403757971163507e-05
  outer loop
    vertex -127.07956126690213 22.001659452151724 26.48839971689447
    vertex -125.3835002530012 21.855445093902176 -4.005283450694349
    vertex -127.35880783730649 22.0257300604937 15.784795932348295
  endloop
endfacet
facet normal 0.08588962275755406 0.9963046584580889 -1.5403757971163507e-05
  outer loop
    vertex -128.0363219399667 22.085095997606093 28.014062640793316
    vertex -127.07956126690213 22.001659452151724 26.48839971689447
    vertex -128.0754422632749 22.088468490058887 26.514576653329996
  endloop
endfacet
facet normal 0.08588962275755406 0.9963046584580889 -1.5403757971163507e-05
  outer loop
    vertex -125.3835002530012 21.855445093902176 -4.005283450694349
    vertex -143.2260780447585 23.393621515751544 -0.28521207498643664
    vertex -127.35880783730649 22.0257300604937 15.784795932348295
  endloop
endfacet
facet normal 0.08588962275755406 0.9963046584580889 -1.5403757971163507e-05
  outer loop
    vertex -143.2260780447585 23.393621515751544 -0.28521207498643664
    vertex -125.3835002530012 21.855445093902176 -4.005283450694349
    vertex -176.67560760585098 26.27724507583355 -2.657170612851328
  endloop
endfacet
facet normal 0.08588962275755406 0.9963046584580889 -1.5403757971163507e-05
  outer loop
    vertex -127.35880783730649 22.0257300604937 15.784795932348295
    vertex -143.2260780447585 23.393621515751544 -0.28521207498643664
    vertex -139.8391609983058 23.101641511261537 14.931014152216878
  endloop
endfacet
facet normal 0.08588962275755406 0.9963046584580889 -1.5403757971163507e-05
  outer loop
    vertex -127.35880783730649 22.0257300604937 15.784795932348295
    vertex -139.8391609983058 23.101641511261537 14.931014152216878
    vertex -139.8083495987648 23.098985219264982 16.112011646661074
  endloop
endfacet
facet normal 0.08588962275755406 0.9963046584580889 -1.5403757971163507e-05
  outer loop
    vertex -139.8391609983058 23.101641511261537 14.931014152216878
    vertex -143.2260780447585 23.393621515751544 -0.28521207498643664
    vertex -142.90529139363176 23.36596707763877 12.0105730222131
  endloop
endfacet
facet normal 0.08588962275755406 0.9963046584580889 -1.5403757971163507e-05
  outer loop
    vertex -143.2260780447585 23.393621515751544 -0.28521207498643664
    vertex -176.67560760585098 26.27724507583355 -2.657170612851328
    vertex -176.59084690535002 26.269938008852527 0.5917156933192261
  endloop
endfacet
facet normal 0.08588962275755406 0.9963046584580889 -1.5403757971163507e-05
  outer loop
    vertex -142.90529139363176 23.36596707763877 12.0105730222131
    vertex -145.81494049572524 23.61680267420496 15.088075842062699
    vertex -139.8391609983058 23.101641511261537 14.931014152216878
  endloop
endfacet
facet normal 0.08588962275755406 0.9963046584580889 -1.5403757971163507e-05
  outer loop
    vertex -145.81494049572524 23.61680267420496 15.088075842062699
    vertex -142.90529139363176 23.36596707763877 12.0105730222131
    vertex -144.37315605244783 23.49250904007278 13.04949576965008
  endloop
endfacet
facet normal 0.08588962275755406 0.9963046584580889 -1.5403757971163507e-05
  outer loop
    vertex -145.81494049572524 23.61680267420496 15.088075842062699
    vertex -144.37315605244783 23.49250904007278 13.04949576965008
    vertex -145.8671009268027 23.621299330808643 13.088761192111543
  endloop
endfacet
facet normal 0.08588962605362882 0.9963046582930183 4.854791637013299e-13
  outer loop
    vertex -192.6361627646439 47.727356682068326 -2.192529780381166
    vertex -208.23782324486854 49.07234766781387 1.4686434616345676
    vertex -192.55140206414296 47.72004961508732 1.0563565257893868
  endloop
endfacet
facet normal 0.08588962605362882 0.9963046582930183 4.854791637013299e-13
  outer loop
    vertex -208.23782324486854 49.07234766781387 1.4686434616345676
    vertex -192.6361627646439 47.727356682068326 -2.192529780381166
    vertex -210.31451044450938 49.25137512244272 -1.7278889479207302
  endloop
endfacet
facet normal 0.08588962605362882 0.9963046582930183 4.854791637013299e-13
  outer loop
    vertex -208.23782324486854 49.07234766781387 1.4686434616345676
    vertex -210.31451044450938 49.25137512244272 -1.7278889479207302
    vertex -207.96919702481952 49.049189886304816 11.765113908883118
  endloop
endfacet
facet normal 0.08588962605362882 0.9963046582930183 4.854791637013299e-13
  outer loop
    vertex -203.90710337992363 48.69900412610361 14.659378090579278
    vertex -209.83072244626578 49.20966863244338 16.815754430376206
    vertex -203.8549429488461 48.69450746949988 16.658692740530373
  endloop
endfacet
facet normal 0.08588962605362882 0.9963046582930183 4.854791637013299e-13
  outer loop
    vertex -209.83072244626578 49.20966863244338 16.815754430376206
    vertex -203.90710337992363 48.69900412610361 14.659378090579278
    vertex -204.9030666294934 48.78486431992755 14.685555038886902
  endloop
endfacet
facet normal 0.08588962605362882 0.9963046582930183 4.854791637013299e-13
  outer loop
    vertex -209.83072244626578 49.20966863244338 16.815754430376206
    vertex -204.9030666294934 48.78486431992755 14.685555038886902
    vertex -207.96919702481952 49.049189886304816 11.765113908883118
  endloop
endfacet
facet normal 0.08588962605362882 0.9963046582930183 4.854791637013299e-13
  outer loop
    vertex -209.83072244626578 49.20966863244338 16.815754430376206
    vertex -207.96919702481952 49.049189886304816 11.765113908883118
    vertex -210.31451044450938 49.25137512244272 -1.7278889479207302
  endloop
endfacet
facet normal -0.02608021553874695 0.002248328301850422 -0.9996573249755637
  outer loop
    vertex -198.08351168668983 -15.460939224505893 -2.1925297804119044
    vertex -200.9781384989818 -7.181726289172423 -2.098390641351744
    vertex -178.6873714857517 2.941135500980098 -2.657170612862676
  endloop
endfacet
facet normal -0.02608021553874695 0.002248328301850422 -0.9996573249755637
  outer loop
    vertex -200.9781384989818 -7.181726289172423 -2.098390641351744
    vertex -198.08351168668983 -15.460939224505893 -2.1925297804119044
    vertex -209.09896286070682 -6.481644680730805 -1.884950637793372
  endloop
endfacet
facet normal -0.02608021553874695 0.002248328301850422 -0.9996573249755637
  outer loop
    vertex -178.6873714857517 2.941135500980098 -2.657170612862676
    vertex -200.9781384989818 -7.181726289172423 -2.098390641351744
    vertex -177.9827223511038 14.635159024763976 -2.6492532970560565
  endloop
endfacet
facet normal -0.02608021553874695 0.002248328301850422 -0.9996573249755637
  outer loop
    vertex -215.7618593665552 -13.936920784131534 -1.7278889479514805
    vertex -209.09896286070682 -6.481644680730805 -1.884950637793372
    vertex -198.08351168668983 -15.460939224505893 -2.1925297804119044
  endloop
endfacet
facet normal -0.02608021553874695 0.002248328301850422 -0.9996573249755637
  outer loop
    vertex -209.09896286070682 -6.481644680730805 -1.884950637793372
    vertex -215.7618593665552 -13.936920784131534 -1.7278889479514805
    vertex -210.31451044450938 49.25137512244272 -1.7278889479207302
  endloop
endfacet
facet normal -0.02608021553874695 0.002248328301850422 -0.9996573249755637
  outer loop
    vertex -209.09896286070682 -6.481644680730805 -1.884950637793372
    vertex -210.31451044450938 49.25137512244272 -1.7278889479207302
    vertex -205.02584795551905 40.76577669315513 -1.8849506377703704
  endloop
endfacet
facet normal -0.02608021553874695 0.002248328301850422 -0.9996573249755637
  outer loop
    vertex -205.02584795551905 40.76577669315513 -1.8849506377703704
    vertex -210.31451044450938 49.25137512244272 -1.7278889479207302
    vertex -196.90502359379394 40.06569508471352 -2.0983906413287667
  endloop
endfacet
facet normal -0.02608021553874695 0.002248328301850422 -0.9996573249755637
  outer loop
    vertex -196.90502359379394 40.06569508471352 -2.0983906413287667
    vertex -210.31451044450938 49.25137512244272 -1.7278889479207302
    vertex -192.6361627646439 47.727356682068326 -2.192529780381166
  endloop
endfacet
facet normal -0.02608021553874695 0.002248328301850422 -0.9996573249755637
  outer loop
    vertex -178.6873714857517 2.941135500980098 -2.657170612862676
    vertex -125.3835002530012 21.855445093902176 -4.005283450694349
    vertex -127.39526413290201 -1.480664480951279 -4.005283450705693
  endloop
endfacet
facet normal -0.02608021553874695 0.002248328301850422 -0.9996573249755637
  outer loop
    vertex -125.3835002530012 21.855445093902176 -4.005283450694349
    vertex -178.6873714857517 2.941135500980098 -2.657170612862676
    vertex -177.9827223511038 14.635159024763976 -2.6492532970560565
  endloop
endfacet
facet normal -0.02608021553874695 0.002248328301850422 -0.9996573249755637
  outer loop
    vertex -125.3835002530012 21.855445093902176 -4.005283450694349
    vertex -177.9827223511038 14.635159024763976 -2.6492532970560565
    vertex -176.67560760585098 26.27724507583355 -2.657170612851328
  endloop
endfacet
facet normal -0.02608021553874695 0.002248328301850422 -0.9996573249755637
  outer loop
    vertex -176.67560760585098 26.27724507583355 -2.657170612851328
    vertex -177.9827223511038 14.635159024763976 -2.6492532970560565
    vertex -196.90502359379394 40.06569508471352 -2.0983906413287667
  endloop
endfacet
facet normal -0.02608021553874695 0.002248328301850422 -0.9996573249755637
  outer loop
    vertex -176.67560760585098 26.27724507583355 -2.657170612851328
    vertex -196.90502359379394 40.06569508471352 -2.0983906413287667
    vertex -192.6361627646439 47.727356682068326 -2.192529780381166
  endloop
endfacet
facet normal 0.8019178214053668 0.5971134685276409 -0.019578391541711662
  outer loop
    vertex -192.55140206414296 47.72004961508732 1.0563565257893868
    vertex -176.67560760585098 26.27724507583355 -2.657170612851328
    vertex -192.6361627646439 47.727356682068326 -2.192529780381166
  endloop
endfacet
facet normal 0.8019178214053668 0.5971134685276409 -0.019578391541711662
  outer loop
    vertex -176.67560760585098 26.27724507583355 -2.657170612851328
    vertex -192.55140206414296 47.72004961508732 1.0563565257893868
    vertex -176.59084690535002 26.269938008852527 0.5917156933192261
  endloop
endfacet
facet normal -0.08588962844504197 -0.9963046579677931 1.5402965874645048e-05
  outer loop
    vertex -126.56229669956973 -1.5524730997143459 27.922443333577366
    vertex -129.11354290935097 -1.3325347695001875 26.488983667367208
    vertex -127.39526413290201 -1.480664480951279 -4.005283450705693
  endloop
endfacet
facet normal -0.08588962844504197 -0.9963046579677931 1.5402965874645048e-05
  outer loop
    vertex -129.11354290935097 -1.3325347695001875 26.488983667367208
    vertex -126.56229669956973 -1.5524730997143459 27.922443333577366
    vertex -130.07030358241562 -1.2490982240458155 28.01464659126607
  endloop
endfacet
facet normal -0.08588962844504197 -0.9963046579677931 1.5402965874645048e-05
  outer loop
    vertex -127.39526413290201 -1.480664480951279 -4.005283450705693
    vertex -129.11354290935097 -1.3325347695001875 26.488983667367208
    vertex -129.39278947975544 -1.308464161158196 15.785379882821045
  endloop
endfacet
facet normal -0.08588962844504197 -0.9963046579677931 1.5402965874645048e-05
  outer loop
    vertex -129.11354290935097 -1.3325347695001875 26.488983667367208
    vertex -130.07030358241562 -1.2490982240458155 28.01464659126607
    vertex -130.10942390572382 -1.2457257315930257 26.515160603802755
  endloop
endfacet
facet normal -0.08588962844504197 -0.9963046579677931 1.5402965874645048e-05
  outer loop
    vertex -147.82670437562598 0.2806930993514926 15.088075842051328
    vertex -144.91705527353253 0.029857502785336564 12.01057302220173
    vertex -141.85092373637175 -0.2344707995643534 14.931010291738126
  endloop
endfacet
facet normal -0.08588962844504197 -0.9963046579677931 1.5402965874645048e-05
  outer loop
    vertex -144.91705527353253 0.029857502785336564 12.01057302220173
    vertex -147.82670437562598 0.2806930993514926 15.088075842051328
    vertex -146.38491993234865 0.15639946521935466 13.049495769638746
  endloop
endfacet
facet normal -0.08588962844504197 -0.9963046579677931 1.5402965874645048e-05
  outer loop
    vertex -146.38491993234865 0.15639946521935466 13.049495769638746
    vertex -147.82670437562598 0.2806930993514926 15.088075842051328
    vertex -147.87886480670335 0.285189755955181 13.088761192100181
  endloop
endfacet
facet normal -0.08588962844504197 -0.9963046579677931 1.5402965874645048e-05
  outer loop
    vertex -127.39526413290201 -1.480664480951279 -4.005283450705693
    vertex -145.23784192465928 0.05751194089811744 -0.28521207499779616
    vertex -178.6873714857517 2.941135500980098 -2.657170612862676
  endloop
endfacet
facet normal -0.08588962844504197 -0.9963046579677931 1.5402965874645048e-05
  outer loop
    vertex -145.23784192465928 0.05751194089811744 -0.28521207499779616
    vertex -127.39526413290201 -1.480664480951279 -4.005283450705693
    vertex -129.39278947975544 -1.308464161158196 15.785379882821045
  endloop
endfacet
facet normal -0.08588962844504197 -0.9963046579677931 1.5402965874645048e-05
  outer loop
    vertex -145.23784192465928 0.05751194089811744 -0.28521207499779616
    vertex -129.39278947975544 -1.308464161158196 15.785379882821045
    vertex -141.85092373637175 -0.2344707995643534 14.931010291738126
  endloop
endfacet
facet normal -0.08588962844504197 -0.9963046579677931 1.5402965874645048e-05
  outer loop
    vertex -141.85092373637175 -0.2344707995643534 14.931010291738126
    vertex -129.39278947975544 -1.308464161158196 15.785379882821045
    vertex -141.82011233683073 -0.23712709156092876 16.112007786182318
  endloop
endfacet
facet normal -0.08588962844504197 -0.9963046579677931 1.5402965874645048e-05
  outer loop
    vertex -145.23784192465928 0.05751194089811744 -0.28521207499779616
    vertex -141.85092373637175 -0.2344707995643534 14.931010291738126
    vertex -144.91705527353253 0.029857502785336564 12.01057302220173
  endloop
endfacet
facet normal -0.08588962844504197 -0.9963046579677931 1.5402965874645048e-05
  outer loop
    vertex -178.6873714857517 2.941135500980098 -2.657170612862676
    vertex -145.23784192465928 0.05751194089811744 -0.28521207499779616
    vertex -178.60261078525073 2.933828433999101 0.5917156933078673
  endloop
endfacet
facet normal -0.08588962605362851 -0.9963046582930183 -4.842046591167413e-13
  outer loop
    vertex -215.27807136831134 -13.97862727413085 16.81575443034546
    vertex -209.3544523019696 -14.489291780470587 14.659378090548525
    vertex -209.30229187089196 -14.493788437074299 16.65869274049964
  endloop
endfacet
facet normal -0.08588962605362851 -0.9963046582930183 -4.842046591167413e-13
  outer loop
    vertex -209.3544523019696 -14.489291780470587 14.659378090548525
    vertex -215.27807136831134 -13.97862727413085 16.81575443034546
    vertex -210.35041555153933 -14.403431586646699 14.685555038856162
  endloop
endfacet
facet normal -0.08588962605362851 -0.9963046582930183 -4.842046591167413e-13
  outer loop
    vertex -210.35041555153933 -14.403431586646699 14.685555038856162
    vertex -215.27807136831134 -13.97862727413085 16.81575443034546
    vertex -213.41654594686554 -14.139106020269379 11.765113908852365
  endloop
endfacet
facet normal -0.08588962605362851 -0.9963046582930183 -4.842046591167413e-13
  outer loop
    vertex -213.68517216691447 -14.11594823876034 1.4686434616038215
    vertex -198.08351168668983 -15.460939224505893 -2.1925297804119044
    vertex -197.9987509861889 -15.468246291486903 1.0563565257586132
  endloop
endfacet
facet normal -0.08588962605362851 -0.9963046582930183 -4.842046591167413e-13
  outer loop
    vertex -198.08351168668983 -15.460939224505893 -2.1925297804119044
    vertex -213.68517216691447 -14.11594823876034 1.4686434616038215
    vertex -215.7618593665552 -13.936920784131534 -1.7278889479514805
  endloop
endfacet
facet normal -0.08588962605362851 -0.9963046582930183 -4.842046591167413e-13
  outer loop
    vertex -215.7618593665552 -13.936920784131534 -1.7278889479514805
    vertex -213.68517216691447 -14.11594823876034 1.4686434616038215
    vertex -213.41654594686554 -14.139106020269379 11.765113908852365
  endloop
endfacet
facet normal -0.08588962605362851 -0.9963046582930183 -4.842046591167413e-13
  outer loop
    vertex -215.7618593665552 -13.936920784131534 -1.7278889479514805
    vertex -213.41654594686554 -14.139106020269379 11.765113908852365
    vertex -215.27807136831134 -13.97862727413085 16.81575443034546
  endloop
endfacet
facet normal 0.6878936136324348 -0.7255474229217029 -0.019578391542364328
  outer loop
    vertex -178.6873714857517 2.941135500980098 -2.657170612862676
    vertex -197.9987509861889 -15.468246291486903 1.0563565257586132
    vertex -198.08351168668983 -15.460939224505893 -2.1925297804119044
  endloop
endfacet
facet normal 0.6878936136324348 -0.7255474229217029 -0.019578391542364328
  outer loop
    vertex -197.9987509861889 -15.468246291486903 1.0563565257586132
    vertex -178.6873714857517 2.941135500980098 -2.657170612862676
    vertex -178.60261078525073 2.933828433999101 0.5917156933078673
  endloop
endfacet
facet normal 0.0858896260536281 0.9963046582930184 4.848091764242819e-13
  outer loop
    vertex -200.9781384989818 -7.181726289172423 -2.098390641351744
    vertex -209.0142021602059 -6.488951747711811 1.3639356683771846
    vertex -200.89337779848077 -7.1890333561534305 1.1504956648188096
  endloop
endfacet
facet normal 0.0858896260536281 0.9963046582930184 4.848091764242819e-13
  outer loop
    vertex -209.0142021602059 -6.488951747711811 1.3639356683771846
    vertex -200.9781384989818 -7.181726289172423 -2.098390641351744
    vertex -209.09896286070682 -6.481644680730805 -1.884950637793372
  endloop
endfacet
facet normal 0.9959632495698927 -0.08586019382390961 -0.02617694830763129
  outer loop
    vertex -204.9410872550182 40.75846962617413 1.3639356684001893
    vertex -209.09896286070682 -6.481644680730805 -1.884950637793372
    vertex -205.02584795551905 40.76577669315513 -1.8849506377703704
  endloop
endfacet
facet normal 0.9959632495698927 -0.08586019382390961 -0.02617694830763129
  outer loop
    vertex -209.09896286070682 -6.481644680730805 -1.884950637793372
    vertex -204.9410872550182 40.75846962617413 1.3639356684001893
    vertex -209.0142021602059 -6.488951747711811 1.3639356683771846
  endloop
endfacet
facet normal -0.08588962605362785 -0.9963046582930184 -4.848153278549901e-13
  outer loop
    vertex -196.82026289329303 40.05838801773251 1.1504956648417908
    vertex -205.02584795551905 40.76577669315513 -1.8849506377703704
    vertex -196.90502359379394 40.06569508471352 -2.0983906413287667
  endloop
endfacet
facet normal -0.08588962605362785 -0.9963046582930184 -4.848153278549901e-13
  outer loop
    vertex -205.02584795551905 40.76577669315513 -1.8849506377703704
    vertex -196.82026289329303 40.05838801773251 1.1504956648417908
    vertex -204.9410872550182 40.75846962617413 1.3639356684001893
  endloop
endfacet
facet normal -0.8019178214053673 -0.59711346852764 0.019578391541707568
  outer loop
    vertex -177.9827223511038 14.635159024763976 -2.6492532970560565
    vertex -196.82026289329303 40.05838801773251 1.1504956648417908
    vertex -196.90502359379394 40.06569508471352 -2.0983906413287667
  endloop
endfacet
facet normal -0.8019178214053673 -0.59711346852764 0.019578391541707568
  outer loop
    vertex -196.82026289329303 40.05838801773251 1.1504956648417908
    vertex -177.9827223511038 14.635159024763976 -2.6492532970560565
    vertex -177.89796165060287 14.627851957782955 0.5996330091144991
  endloop
endfacet
facet normal -0.6878936136324362 0.7255474229217019 0.019578391542351192
  outer loop
    vertex -200.89337779848077 -7.1890333561534305 1.1504956648188096
    vertex -177.9827223511038 14.635159024763976 -2.6492532970560565
    vertex -200.9781384989818 -7.181726289172423 -2.098390641351744
  endloop
endfacet
facet normal -0.6878936136324362 0.7255474229217019 0.019578391542351192
  outer loop
    vertex -177.9827223511038 14.635159024763976 -2.6492532970560565
    vertex -200.89337779848077 -7.1890333561534305 1.1504956648188096
    vertex -177.89796165060287 14.627851957782955 0.5996330091144991
  endloop
endfacet
endsolid support_camera_v2
